<svg width="23" height="23" viewBox="0 0 23 23" fill="none" xmlns="http://www.w3.org/2000/svg">
<path d="M3.1573 10.0519C4.97601 9.0691 7.00619 8.24884 8.90309 7.42438C12.1665 6.07399 15.4429 4.74699 18.7523 3.51158C19.3962 3.30107 20.5531 3.09521 20.6666 4.03135C20.6045 5.35643 20.3489 6.67376 20.1736 7.99109C19.7288 10.888 19.2146 13.775 18.7131 16.6624C18.5404 17.6242 17.3123 18.1221 16.5265 17.5066C14.638 16.2551 12.735 15.0159 10.8707 13.7355C10.2599 13.1267 10.8262 12.2524 11.3717 11.8177C12.9271 10.3139 14.5766 9.03622 16.0507 7.45472C16.4484 6.51267 15.2735 7.3066 14.886 7.54986C12.7566 8.98942 10.6794 10.5169 8.43434 11.782C7.28759 12.4013 5.95104 11.8721 4.80481 11.5265C3.77706 11.1091 2.27104 10.6885 3.1572 10.052L3.1573 10.0519Z" fill="#FE5000"/>
</svg>
