<svg width="252" height="252" viewBox="0 0 252 252" fill="none" xmlns="http://www.w3.org/2000/svg">
<path fill-rule="evenodd" clip-rule="evenodd" d="M250.598 128.523L223.191 156.047C221.934 157.225 220.174 157.983 218.414 157.983H202.574L213.721 169.261C214.978 170.44 215.732 172.123 215.732 173.975V212.777C215.732 214.629 214.224 216.144 212.38 216.144H173.491C171.731 216.144 170.055 215.47 168.797 214.208L157.567 202.929V218.837C157.567 220.605 156.896 222.288 155.639 223.551L128.149 250.99C126.891 252.337 124.712 252.337 123.455 250.99L95.9648 223.551C94.7076 222.288 94.0371 220.605 94.0371 218.837V202.929L82.8063 214.208C81.5491 215.386 79.8729 216.144 78.1128 216.144H39.224C37.3802 216.144 35.8715 214.629 35.8715 212.777V173.975C35.8715 172.207 36.542 170.44 37.7992 169.261L49.03 157.983H33.1896C31.4295 157.983 29.7533 157.225 28.4961 156.047L1.00574 128.523C-0.335248 127.261 -0.335248 125.157 1.00574 123.81L28.4961 96.3706C29.6695 95.108 31.4295 94.4347 33.1896 94.4347H49.03L37.7992 83.1559C36.542 81.9776 35.8715 80.21 35.8715 78.4424V39.6403C35.8715 37.7886 37.3802 36.2735 39.224 36.2735H78.1128C79.8729 36.2735 81.5491 36.9469 82.8063 38.2094L94.0371 49.404V33.5801C94.0371 31.8126 94.7076 30.1292 96.0486 28.8666L123.455 1.34318C124.796 0.0806351 126.891 0.0806351 128.149 1.34318L155.639 28.8666C156.896 30.1292 157.567 31.8126 157.567 33.5801V49.4881L168.797 38.2094C170.055 36.9469 171.731 36.2735 173.491 36.2735H212.38C214.224 36.2735 215.732 37.7886 215.732 39.6403V78.4424C215.732 80.21 215.062 81.9776 213.804 83.1559L202.574 94.4347H218.414C220.174 94.4347 221.85 95.108 223.108 96.3706L250.598 123.81C251.939 125.157 251.939 127.261 250.598 128.523ZM94.0371 157.983V202.929L125.802 171.197L157.567 202.929V157.983H202.574L170.725 126.251L202.574 94.4347H157.567V49.4881L125.802 81.2201L94.0371 49.404V94.4347H49.03L80.8786 126.251L49.03 157.983H94.0371Z" fill="#FFC600"/>
<path fill-rule="evenodd" clip-rule="evenodd" d="M92.1175 47.572L123.836 79.3457L155.555 47.656V92.5428H200.497L168.694 124.317L200.497 156.006H155.555V200.893L123.836 169.203L92.1175 200.893V156.006H47.1757L78.9781 124.317L47.1757 92.5428H92.1175V47.572ZM155.555 111.035V92.4587H136.976L123.836 79.3457L110.697 92.4587H92.1175V111.035L78.9781 124.232L92.1175 137.345V156.006H110.697L123.836 169.119L136.976 156.006H155.555V137.345L168.694 124.232L155.555 111.035Z" fill="#F68D2E"/>
<path fill-rule="evenodd" clip-rule="evenodd" d="M149.472 128.573L128.119 149.984C126.878 151.317 124.726 151.317 123.484 149.984L102.048 128.573C100.807 127.323 100.807 125.24 102.048 123.907L123.484 102.496C124.726 101.246 126.878 101.246 128.119 102.496L149.472 123.907C150.797 125.24 150.797 127.323 149.472 128.573ZM157.17 94.7477V113.16L138.796 94.7477H157.17ZM112.808 94.7477L94.3514 113.16V94.7477H112.808ZM138.796 157.649L157.252 139.237V157.649H138.796ZM94.3514 139.237L112.808 157.649H94.3514V139.237Z" fill="#FE5000"/>
</svg>
