<svg width="64" height="65" viewBox="0 0 64 65" fill="none" xmlns="http://www.w3.org/2000/svg">
<path d="M32.2882 38.5666C31.9602 38.896 31.4277 38.896 31.0983 38.5666L25.647 33.1152C25.3193 32.7876 25.3193 32.2547 25.647 31.9256L31.0983 26.4751C31.4277 26.1459 31.9602 26.1459 32.2882 26.4751L37.7396 31.9256C38.0677 32.2547 38.0677 32.7876 37.7396 33.1152L32.2882 38.5666ZM31.6934 21.1719L20.3648 32.5004L31.6934 43.8292L43.0217 32.5004L31.6934 21.1719Z" fill="#FF5000"/>
<path d="M23.6834 40.5112H12.3548L9.52973 43.3346C9.21433 43.6503 9.03635 44.0789 9.03635 44.5251V54.3155C9.03635 54.7805 9.41277 55.1569 9.87721 55.1569H19.6682C20.114 55.1569 20.5426 54.9789 20.8581 54.6648L23.6834 51.8385V40.5112Z" fill="#FFC300"/>
<path d="M51.0324 40.5112H39.7038V51.8385L31.6933 43.8291L23.683 51.8385V55.835C23.683 56.2809 23.8593 56.7084 24.1749 57.0251L31.0982 63.9472C31.4266 64.2767 31.9592 64.2767 32.2884 63.9472L39.211 57.0251C39.526 56.7084 39.7038 56.2809 39.7038 55.835V51.8385L42.5285 54.6648C42.8444 54.9789 43.2716 55.1569 43.719 55.1569H53.5095C53.9743 55.1569 54.3511 54.7805 54.3511 54.3155V44.5251C54.3511 44.0789 54.173 43.6503 53.8575 43.3346L51.0324 40.5112Z" fill="#FFC300"/>
<path d="M63.1401 31.9047L56.2179 24.9823C55.9024 24.6668 55.4738 24.4895 55.0281 24.4895H51.0324L53.8575 21.6643C54.1735 21.3488 54.3511 20.9205 54.3511 20.4742V10.6846C54.3511 10.2202 53.9743 9.84214 53.5098 9.84214H43.719C43.2716 9.84214 42.8448 10.0202 42.5289 10.3357L39.7038 13.1605V9.16556C39.7038 8.7195 39.526 8.29085 39.211 7.97503L32.2884 1.05314C31.9592 0.723497 31.4266 0.723497 31.0987 1.05314L24.1749 7.97503C23.8593 8.29085 23.683 8.7195 23.683 9.16556V13.1605L31.6933 21.1712L39.7038 13.1605V24.4895H51.0324L43.0221 32.4998L51.0324 40.5117H55.0281C55.4738 40.5117 55.9024 40.3337 56.2179 40.0173L63.1401 33.095C63.4694 32.7656 63.4694 32.2342 63.1401 31.9047Z" fill="#FFC300"/>
<path d="M19.6681 9.84277H9.87765C9.41266 9.84277 9.03623 10.2208 9.03623 10.6852V20.4747C9.03623 20.9207 9.2127 21.349 9.52961 21.6645L12.3547 24.4901H8.35802C7.91316 24.4901 7.48473 24.6674 7.16912 24.9833L0.245928 31.9053C-0.081976 32.2332 -0.081976 32.7661 0.245928 33.0956L7.16912 40.0175C7.48473 40.3344 7.91316 40.5119 8.35802 40.5119H12.3547L20.3651 32.5004L12.3547 24.4901H23.6833V13.1614L20.8585 10.3347C20.5429 10.0209 20.1143 9.84277 19.6681 9.84277Z" fill="#FFC300"/>
<path d="M23.6832 40.511V35.8184L20.365 32.5002L12.3545 40.511H23.6832Z" fill="#FF8000"/>
<path d="M31.6933 43.8294L28.375 40.5112H23.683V51.8386L31.6933 43.8294L39.7037 51.8386V40.5112H35.0114L31.6933 43.8294Z" fill="#FF8000"/>
<path d="M39.7042 35.8186V40.5107H51.0327L43.022 32.5002L39.7042 35.8186Z" fill="#FF8000"/>
<path d="M23.6832 24.49H12.3545L20.365 32.5002L23.6832 29.1819V24.49Z" fill="#FF8000"/>
<path d="M23.683 13.1604V24.4894H28.3752L31.6933 21.1715L35.0113 24.4894H39.7038V13.1604L31.6933 21.1715L23.683 13.1604Z" fill="#FF8000"/>
<path d="M51.0327 24.49H39.7042V29.1819L43.0225 32.5002L51.0327 24.49Z" fill="#FF8000"/>
<path d="M35.0114 24.49L39.7034 29.1819V24.49H35.0114Z" fill="#FF5000"/>
<path d="M23.683 24.49V29.1819L28.3752 24.49H23.683Z" fill="#FF5000"/>
<path d="M39.7039 40.5117V35.8191L35.0114 40.5117H39.7039Z" fill="#FF5000"/>
<path d="M23.683 40.5117H28.3752L23.683 35.8191V40.5117Z" fill="#FF5000"/>
<path d="M37.74 31.9256L32.2887 26.4743C31.9607 26.1463 31.4266 26.1463 31.0987 26.4743L25.6474 31.9256C25.3182 32.2548 25.3182 32.7861 25.6474 33.1153L31.0987 38.5667C31.4266 38.8949 31.9607 38.8949 32.2887 38.5667L37.74 33.1153C38.0678 32.7861 38.0678 32.2548 37.74 31.9256Z" fill="white"/>
</svg>
