<svg width="272" height="272" viewBox="0 0 272 272" fill="none" xmlns="http://www.w3.org/2000/svg">
<path fill-rule="evenodd" clip-rule="evenodd" d="M270.42 138.261L240.9 167.961C239.546 169.233 237.65 170.05 235.755 170.05H218.692L230.699 182.221C232.053 183.493 232.866 185.309 232.866 187.307V229.178C232.866 231.177 231.241 232.811 229.255 232.811H187.367C185.471 232.811 183.665 232.085 182.311 230.722L170.214 218.552V235.718C170.214 237.625 169.492 239.442 168.138 240.804L138.528 270.414C137.174 271.867 134.826 271.867 133.472 270.414L103.862 240.804C102.508 239.442 101.786 237.625 101.786 235.718V218.552L89.6886 230.722C88.3345 231.994 86.529 232.811 84.6332 232.811H42.7453C40.7592 232.811 39.1343 231.177 39.1343 229.178V187.307C39.1343 185.4 39.8565 183.493 41.2106 182.221L53.3076 170.05H36.2455C34.3497 170.05 32.5442 169.233 31.19 167.961L1.57965 138.261C0.135236 136.899 0.135236 134.628 1.57965 133.175L31.19 103.565C32.4539 102.203 34.3497 101.476 36.2455 101.476H53.3076L41.2106 89.3053C39.8565 88.0338 39.1343 86.1264 39.1343 84.219V42.3479C39.1343 40.3497 40.7592 38.7149 42.7453 38.7149H84.6332C86.529 38.7149 88.3345 39.4415 89.6886 40.8039L101.786 52.8838V35.8084C101.786 33.9011 102.508 32.0845 103.952 30.7221L133.472 1.0218C134.917 -0.3406 137.174 -0.3406 138.528 1.0218L168.138 30.7221C169.492 32.0845 170.214 33.9011 170.214 35.8084V52.9747L182.311 40.8039C183.665 39.4415 185.471 38.7149 187.367 38.7149H229.255C231.241 38.7149 232.866 40.3497 232.866 42.3479V84.219C232.866 86.1264 232.143 88.0338 230.789 89.3053L218.692 101.476H235.755C237.65 101.476 239.456 102.203 240.81 103.565L270.42 133.175C271.865 134.628 271.865 136.899 270.42 138.261ZM101.786 170.05V218.552L136 184.31L170.214 218.552V170.05H218.692L184.388 135.809L218.692 101.476H170.214V52.9747L136 87.2163L101.786 52.8838V101.476H53.3076L87.6123 135.809L53.3076 170.05H101.786Z" fill="#F7F6F9"/>
<path fill-rule="evenodd" clip-rule="evenodd" d="M101.57 52.9854L135.86 87.3349L170.15 53.0762V101.602H218.735L184.355 135.951L218.735 170.21H170.15V218.735L135.86 184.477L101.57 218.735V170.21H52.9854L87.3658 135.951L52.9854 101.602H101.57V52.9854ZM170.15 121.593V101.511H150.065L135.86 87.3349L121.656 101.511H101.57V121.593L87.3658 135.86L101.57 150.036V170.21H121.656L135.86 184.386L150.065 170.21H170.15V150.036L184.355 135.86L170.15 121.593Z" fill="#F7F6F9"/>
<path fill-rule="evenodd" clip-rule="evenodd" d="M161.715 138.357L138.294 161.841C136.932 163.304 134.572 163.304 133.21 161.841L109.698 138.357C108.336 136.986 108.336 134.701 109.698 133.239L133.21 109.754C134.572 108.384 136.932 108.384 138.294 109.754L161.715 133.239C163.167 134.701 163.167 136.986 161.715 138.357ZM170.157 101.256V121.451L150.004 101.256H170.157ZM121.499 101.256L101.255 121.451V101.256H121.499ZM150.004 170.249L170.248 150.053V170.249H150.004ZM101.255 150.053L121.499 170.249H101.255V150.053Z" fill="#F7F6F9"/>
</svg>
