<svg width="144" height="47" viewBox="0 0 144 47" fill="none" xmlns="http://www.w3.org/2000/svg">
<path d="M13.498 25.3154C10.5562 25.3154 8.16936 22.9299 8.16936 19.9883C8.16936 17.0451 10.5562 14.6582 13.498 14.6582C16.4409 14.6582 18.8267 17.0451 18.8267 19.9883C18.8267 22.9299 16.4409 25.3154 13.498 25.3154ZM14.8057 8.19775C11.7241 8.19775 9.33258 9.13153 7.63203 10.9948V1.01835C7.63203 0.782703 7.44164 0.591553 7.206 0.591553H1.19112C0.956236 0.591553 0.764648 0.782703 0.764648 1.01835V31.2408C0.764648 31.4776 0.956236 31.6675 1.19112 31.6675H7.206C7.44164 31.6675 7.63203 31.4776 7.63203 31.2408L7.6378 26.3303L13.3391 32.0302C13.5786 32.2695 13.9033 32.4054 14.2422 32.4054H14.8057C17.9831 32.4054 20.6934 31.2358 22.9405 28.8981C25.1861 26.5594 26.3107 23.6939 26.3107 20.3029C26.3107 16.9089 25.1861 14.0441 22.9405 11.7048C20.6934 9.36717 17.9831 8.19775 14.8057 8.19775Z"/>
<path d="M39.6703 25.3462C36.7285 25.3462 34.3413 22.9597 34.3413 20.0177C34.3413 17.0759 36.7285 14.6891 39.6703 14.6891C42.6133 14.6891 44.999 17.0759 44.999 20.0177C44.999 22.9597 42.6133 25.3462 39.6703 25.3462ZM51.9719 8.76851H47.0397C46.5864 8.76851 46.1811 9.05681 46.0325 9.4847L45.5317 10.9297C43.9136 9.06834 41.6403 8.13794 38.7108 8.13794C35.6895 8.13794 33.1104 9.30475 30.9738 11.6386C28.8379 13.9752 27.7702 16.8352 27.7702 20.2243C27.7702 23.6106 28.8379 26.4716 30.9738 28.807C33.1104 31.1421 35.6895 32.3089 38.7108 32.3089H39.0321C39.3718 32.308 39.6964 32.1744 39.9359 31.9338L45.5317 26.3384V31.2417C45.5317 31.4772 45.7228 31.6671 45.9581 31.6671H51.9719C52.2071 31.6671 52.3986 31.4772 52.3986 31.2417V9.19531C52.3986 8.95966 52.2071 8.76851 51.9719 8.76851Z"/>
<path d="M111.392 20.2137L119.231 9.44588C119.436 9.16498 119.235 8.76843 118.886 8.76843H112.386C111.965 8.76843 111.569 8.97731 111.331 9.32578L104.844 18.7951V1.01884C104.844 0.781994 104.654 0.592041 104.419 0.592041H98.4042C98.169 0.592041 97.9786 0.781994 97.9786 1.01884V31.2416C97.9786 31.4767 98.169 31.668 98.4042 31.668H104.419C104.654 31.668 104.844 31.4767 104.844 31.2416V21.5419L111.787 31.1395C112.028 31.4707 112.414 31.6695 112.824 31.6695H119.102C119.454 31.6695 119.654 31.2679 119.443 30.987L111.392 20.2137Z"/>
<path d="M82.7516 25.3462C79.8084 25.3462 77.4231 22.9597 77.4231 20.0177C77.4231 17.0759 79.8084 14.6891 82.7516 14.6891C85.6938 14.6891 88.0791 17.0759 88.0791 20.0177C88.0791 22.9597 85.6938 25.3462 82.7516 25.3462ZM95.0535 8.76851H90.1214C89.6665 8.76851 89.2624 9.05681 89.1143 9.4847L88.613 10.9297C86.9953 9.06834 84.7216 8.13794 81.7915 8.13794C78.7702 8.13794 76.1918 9.30475 74.0544 11.6386C71.9178 13.9752 70.8504 16.8352 70.8504 20.2243C70.8504 23.6106 71.9178 26.4716 74.0544 28.807C76.1918 31.1421 78.7702 32.3089 81.7915 32.3089H82.1135C82.4523 32.308 82.7781 32.1744 83.0176 31.9338L88.613 26.3384V31.2417C88.613 31.4772 88.8046 31.6671 89.0398 31.6671H95.0535C95.2884 31.6671 95.4803 31.4772 95.4803 31.2417V9.19531C95.4803 8.95966 95.2884 8.76851 95.0535 8.76851Z"/>
<path d="M130.359 25.3462C127.416 25.3462 125.031 22.9597 125.031 20.0177C125.031 17.0759 127.416 14.6891 130.359 14.6891C133.302 14.6891 135.688 17.0759 135.688 20.0177C135.688 22.9597 133.302 25.3462 130.359 25.3462ZM142.661 8.76851H137.729C137.275 8.76851 136.87 9.05681 136.722 9.4847L136.221 10.9297C134.603 9.06834 132.329 8.13794 129.399 8.13794C126.377 8.13794 123.799 9.30475 121.664 11.6386C119.527 13.9752 118.458 16.8352 118.458 20.2243C118.458 23.6106 119.527 26.4716 121.664 28.807C123.799 31.1421 126.377 32.3089 129.399 32.3089H129.721C130.06 32.308 130.386 32.1744 130.625 31.9338L136.221 26.3384V31.2417C136.221 31.4772 136.412 31.6671 136.648 31.6671H142.661C142.897 31.6671 143.088 31.4772 143.088 31.2417V9.19531C143.088 8.95966 142.897 8.76851 142.661 8.76851Z"/>
<path d="M68.4154 8.34936C67.0334 8.41888 65.7568 8.8026 64.5847 9.50649C63.2883 10.2845 62.4259 11.4059 61.9991 12.8709V9.22178C61.9991 8.98765 61.8075 8.79607 61.5719 8.79607H55.5585C55.3233 8.79607 55.1317 8.98765 55.1317 9.22178V31.2595C55.1317 31.4961 55.3233 31.6861 55.5585 31.6861H61.5719C61.8075 31.6861 61.9991 31.4961 61.9991 31.2595V21.3395C61.9991 19.265 62.7241 17.8083 64.1733 16.9688C65.4859 16.2073 66.8948 15.9049 68.3955 16.0588C68.6468 16.0852 68.866 15.8883 68.866 15.6354V8.77735C68.866 8.53322 68.6599 8.33783 68.4154 8.34936Z"/>
<path d="M9.53494 37.8669C8.39772 37.8669 7.54717 38.3274 6.9846 39.2484C6.48676 38.3274 5.69148 37.8669 4.5981 37.8669C3.5365 37.8669 2.72935 38.3007 2.17788 39.1678V38.2956C2.17788 38.1755 2.08073 38.0783 1.96062 38.0783H0.980823C0.861802 38.0783 0.764648 38.1755 0.764648 38.2956V45.9837C0.764648 46.1011 0.861802 46.1998 0.980823 46.1998H1.96062C2.08073 46.1998 2.17788 46.1011 2.17788 45.9837V41.6835C2.17788 40.8614 2.37469 40.2435 2.77048 39.8331C3.16573 39.4212 3.66041 39.2164 4.25649 39.2164C4.78729 39.2164 5.2068 39.388 5.51502 39.7359C5.82312 40.081 5.97782 40.5683 5.97782 41.1977V45.9837C5.97782 46.1011 6.07497 46.1998 6.19389 46.1998H7.17379C7.2939 46.1998 7.39095 46.1011 7.39095 45.9837V41.6835C7.39095 40.851 7.57176 40.2308 7.9348 39.824C8.29828 39.4187 8.78263 39.2164 9.38905 39.2164C9.93019 39.2164 10.362 39.388 10.6871 39.7359C11.0133 40.081 11.1757 40.5683 11.1757 41.1977V45.9837C11.1757 46.1011 11.2716 46.1998 11.3917 46.1998H12.3719C12.4917 46.1998 12.588 46.1011 12.588 45.9837V41.1477C12.588 40.1413 12.3063 39.3433 11.7437 38.7524C11.181 38.1624 10.4441 37.8669 9.53494 37.8669Z"/>
<path d="M20.7947 44.1943C20.242 44.7534 19.5554 45.0311 18.7318 45.0311C17.9198 45.0311 17.2378 44.7534 16.6854 44.1943C16.1328 43.6368 15.858 42.946 15.858 42.1252C15.858 41.3016 16.1328 40.6109 16.6854 40.0544C17.2378 39.4953 17.9198 39.2165 18.7318 39.2165C19.5554 39.2165 20.242 39.4953 20.7947 40.0544C21.347 40.6109 21.6226 41.3016 21.6226 42.1252C21.6226 42.946 21.347 43.6368 20.7947 44.1943ZM22.8196 38.0784H21.8397C21.7204 38.0784 21.6226 38.1742 21.6226 38.2946V39.4751C20.9187 38.4032 19.8955 37.8674 18.5542 37.8674C17.417 37.8674 16.4475 38.2805 15.6469 39.1091C14.8451 39.9379 14.4448 40.9471 14.4448 42.139C14.4448 43.3285 14.8451 44.339 15.6469 45.1677C16.4475 45.9955 17.417 46.4084 18.5542 46.4084C19.8955 46.4084 20.9187 45.8726 21.6226 44.8019V45.9814C21.6226 46.1014 21.7204 46.1974 21.8397 46.1974H22.8196C22.9393 46.1974 23.0357 46.1014 23.0357 45.9814V38.2946C23.0357 38.1742 22.9393 38.0784 22.8196 38.0784Z"/>
<path d="M29.1525 37.9388C28.0491 37.9975 27.2777 38.4989 26.8416 39.4439V38.2954C26.8416 38.1765 26.7442 38.0794 26.6245 38.0794H25.6443C25.5252 38.0794 25.4281 38.1765 25.4281 38.2954V45.9835C25.4281 46.1036 25.5252 46.1997 25.6443 46.1997H26.6245C26.7442 46.1997 26.8416 46.1036 26.8416 45.9835V41.8959C26.8416 41.0084 27.0911 40.3637 27.5885 39.9631C28.0361 39.604 28.5634 39.4172 29.1694 39.407C29.2846 39.4055 29.3751 39.3074 29.3751 39.1909V38.1563C29.3751 38.0333 29.2742 37.9321 29.1525 37.9388Z"/>
<path d="M34.1791 42.0088L37.6963 38.4483C37.831 38.31 37.735 38.0799 37.5416 38.0799H36.424C36.3077 38.0799 36.1964 38.1259 36.1142 38.209L32.7338 41.6677V35.0476C32.7338 34.9286 32.6366 34.8315 32.5169 34.8315H31.5367C31.4177 34.8315 31.3206 34.9286 31.3206 35.0476V45.9828C31.3206 46.103 31.4177 46.1987 31.5367 46.1987H32.5169C32.6366 46.1987 32.7338 46.103 32.7338 45.9828V42.3518L36.3084 46.0671C36.3906 46.1517 36.5035 46.1987 36.6209 46.1987H37.684C37.874 46.1987 37.9719 45.9714 37.8398 45.8333L34.1791 42.0088Z"/>
<path d="M40.5241 41.5393C40.643 40.8246 40.9513 40.2542 41.4502 39.8268C41.9476 39.3986 42.5759 39.1846 43.3343 39.1846C43.984 39.1846 44.5521 39.3843 45.0391 39.7861C45.5266 40.1865 45.8293 40.7708 45.9484 41.5393H40.5241ZM43.3343 37.8535C42.078 37.8535 41.0553 38.2602 40.2647 39.0708C39.4744 39.8833 39.079 40.9013 39.079 42.1254C39.079 43.3593 39.4821 44.38 40.2888 45.1871C41.0944 45.9929 42.1433 46.3958 43.4313 46.3958C44.9393 46.3958 46.0865 45.8472 46.8759 44.7508C46.9477 44.6513 46.9128 44.5079 46.8053 44.4478L45.9725 43.9747C45.8769 43.9209 45.7591 43.9529 45.6939 44.0409C45.203 44.7231 44.46 45.0646 43.4644 45.0646C42.6949 45.0646 42.0478 44.8647 41.5231 44.4634C40.9973 44.0628 40.6649 43.5 40.5241 42.775H46.9397C47.1646 42.775 47.358 42.5999 47.3723 42.3733C47.3756 42.2953 47.3784 42.2174 47.3784 42.1421C47.3784 40.9615 47.0011 39.9511 46.2489 39.1118C45.497 38.2728 44.5252 37.8535 43.3343 37.8535Z"/>
<path d="M53.0063 39.4289C53.1266 39.4289 53.2225 39.3317 53.2225 39.2127V38.2813C53.2225 38.1614 53.1266 38.0654 53.0063 38.0654H51.0621V36.0817C51.0621 35.9371 50.9227 35.8323 50.785 35.8744L49.8051 36.1658C49.713 36.1941 49.6489 36.2787 49.6489 36.3748V38.0654H48.2591C48.1383 38.0654 48.0423 38.1614 48.0423 38.2813V39.2127C48.0423 39.3317 48.1383 39.4289 48.2591 39.4289H49.6489V43.8297C49.6489 44.8378 49.9367 45.5232 50.5109 45.8851C51.0544 46.2279 51.8934 46.3353 53.0306 46.2088C53.1396 46.1957 53.2225 46.1025 53.2225 45.9923V45.1444C53.2225 45.0203 53.1204 44.9232 52.9975 44.9283C52.6187 44.9426 52.2925 44.9465 52.0204 44.944C51.6965 44.9373 51.4547 44.8503 51.2988 44.6829C51.1415 44.5154 51.0621 44.2315 51.0621 43.8297V39.4289H53.0063Z"/>
</svg>
