<svg width="70" height="70" viewBox="0 0 70 70" fill="none" xmlns="http://www.w3.org/2000/svg">
<rect width="70" height="70" rx="15.2902" fill="url(#paint0_linear_189_3882)"/>
<path d="M29.1748 35.0898C29.1748 31.8654 31.7872 29.2508 35.0107 29.2508C38.2341 29.2508 40.848 31.8654 40.848 35.0898C40.848 38.3142 38.2341 40.9288 35.0107 40.9288C31.7872 40.9288 29.1748 38.3142 29.1748 35.0898ZM26.0192 35.0898C26.0192 40.0572 30.0447 44.0838 35.0107 44.0838C39.9766 44.0838 44.0021 40.0572 44.0021 35.0898C44.0021 30.1224 39.9766 26.0957 35.0107 26.0957C30.0447 26.0957 26.0192 30.1224 26.0192 35.0898ZM42.2568 25.7391C42.2566 26.1548 42.3797 26.5613 42.6104 26.907C42.8412 27.2527 43.1693 27.5223 43.5531 27.6815C43.937 27.8408 44.3595 27.8826 44.7671 27.8016C45.1748 27.7207 45.5493 27.5206 45.8433 27.2268C46.1372 26.933 46.3375 26.5585 46.4188 26.1508C46.5 25.7432 46.4586 25.3205 46.2997 24.9364C46.1408 24.5523 45.8716 24.2239 45.5261 23.9928C45.1807 23.7617 44.7745 23.6383 44.3589 23.6381H44.358C43.801 23.6384 43.2668 23.8598 42.8728 24.2537C42.4788 24.6477 42.2573 25.1819 42.2568 25.7391V25.7391ZM27.9364 49.347C26.2292 49.2692 25.3013 48.9848 24.6846 48.7445C23.8671 48.4261 23.2838 48.0469 22.6705 47.4343C22.0572 46.8217 21.6776 46.2388 21.3607 45.421C21.1203 44.8045 20.836 43.876 20.7584 42.1683C20.6735 40.322 20.6565 39.7674 20.6565 35.0899C20.6565 30.4124 20.6749 29.8593 20.7584 28.0115C20.8361 26.3038 21.1226 25.3772 21.3607 24.7588C21.679 23.9411 22.0581 23.3576 22.6705 22.7441C23.283 22.1306 23.8657 21.7509 24.6846 21.4339C25.301 21.1935 26.2292 20.909 27.9364 20.8314C29.7822 20.7465 30.3366 20.7295 35.0107 20.7295C39.6847 20.7295 40.2397 20.7479 42.087 20.8314C43.7942 20.9092 44.7206 21.1957 45.3388 21.4339C46.1563 21.7509 46.7396 22.1315 47.3529 22.7441C47.9662 23.3567 48.3444 23.9411 48.6627 24.7588C48.9031 25.3754 49.1874 26.3038 49.265 28.0115C49.3499 29.8593 49.3669 30.4124 49.3669 35.0899C49.3669 39.7674 49.3499 40.3205 49.265 42.1683C49.1873 43.876 48.9015 44.8042 48.6627 45.421C48.3444 46.2388 47.9653 46.8223 47.3529 47.4343C46.7404 48.0464 46.1563 48.4261 45.3388 48.7445C44.7224 48.9849 43.7942 49.2694 42.087 49.347C40.2412 49.4319 39.6868 49.4489 35.0107 49.4489C30.3345 49.4489 29.7816 49.4319 27.9364 49.347V49.347ZM27.7914 17.6803C25.9273 17.7652 24.6535 18.0609 23.5411 18.4939C22.3891 18.941 21.4138 19.5409 20.4393 20.5142C19.4647 21.4875 18.8665 22.4646 18.4195 23.6169C17.9867 24.7304 17.6911 26.0038 17.6062 27.8685C17.5199 29.736 17.5002 30.3331 17.5002 35.0898C17.5002 39.8464 17.5199 40.4435 17.6062 42.3111C17.6911 44.1759 17.9867 45.4492 18.4195 46.5626C18.8665 47.7143 19.4648 48.6925 20.4393 49.6654C21.4137 50.6383 22.3891 51.2373 23.5411 51.6857C24.6556 52.1187 25.9273 52.4143 27.7914 52.4993C29.6594 52.5842 30.2554 52.6053 35.0107 52.6053C39.7659 52.6053 40.3628 52.5856 42.2299 52.4993C44.0941 52.4143 45.3671 52.1187 46.4802 51.6857C47.6315 51.2373 48.6075 50.6387 49.582 49.6654C50.5566 48.6921 51.1535 47.7143 51.6018 46.5626C52.0346 45.4492 52.3316 44.1757 52.4151 42.3111C52.5 40.4421 52.5197 39.8464 52.5197 35.0898C52.5197 30.3331 52.5 29.736 52.4151 27.8685C52.3302 26.0037 52.0346 24.7297 51.6018 23.6169C51.1535 22.4653 50.5551 21.489 49.582 20.5142C48.609 19.5393 47.6315 18.941 46.4816 18.4939C45.3671 18.0609 44.094 17.7638 42.2313 17.6803C40.3642 17.5954 39.7673 17.5742 35.0121 17.5742C30.2568 17.5742 29.6594 17.594 27.7914 17.6803Z" fill="white"/>
<defs>
<linearGradient id="paint0_linear_189_3882" x1="68.6546" y1="70" x2="-1.3454" y2="-1.8842e-06" gradientUnits="userSpaceOnUse">
<stop stop-color="#FBE18A"/>
<stop offset="0.21" stop-color="#FCBB45"/>
<stop offset="0.38" stop-color="#F75274"/>
<stop offset="0.52" stop-color="#D53692"/>
<stop offset="0.74" stop-color="#8F39CE"/>
<stop offset="1" stop-color="#5B4FE9"/>
</linearGradient>
</defs>
</svg>
