<svg width="70" height="70" viewBox="0 0 70 70" fill="none" xmlns="http://www.w3.org/2000/svg">
<g clip-path="url(#clip0_531_1836)">
<mask id="mask0_531_1836" style="mask-type:luminance" maskUnits="userSpaceOnUse" x="-1" y="0" width="71" height="71">
<path d="M69.9996 0.0195312H-0.000427246V70.0195H69.9996V0.0195312Z" fill="white"/>
</mask>
<g mask="url(#mask0_531_1836)">
<mask id="mask1_531_1836" style="mask-type:luminance" maskUnits="userSpaceOnUse" x="-1" y="0" width="71" height="71">
<path d="M69.9993 0.0390625H-0.000671387V70.0391H69.9993V0.0390625Z" fill="white"/>
</mask>
<g mask="url(#mask1_531_1836)">
<path d="M0.209229 33.5305C0.209229 17.7805 0.209229 9.87046 5.07424 4.97046C10.0092 0.105469 17.8842 0.105469 33.6692 0.105469H36.4692C52.2192 0.105469 60.1292 0.105469 65.0292 4.97046C69.8942 9.83546 69.8942 17.7805 69.8942 33.5305V36.3305C69.8942 52.0805 69.8942 59.9905 65.0292 64.8905C60.1642 69.7555 52.2192 69.7555 36.4692 69.7555H33.6692C17.9192 69.7555 10.0092 69.7555 5.10924 64.8905C0.209229 59.9905 0.209229 52.1155 0.209229 36.3305V33.5305Z" fill="#FF7700"/>
<path d="M35.0342 34.7575C38.4292 34.7575 41.5092 33.3575 43.7142 31.1525C45.9192 28.9475 47.3192 25.8675 47.3192 22.4725C47.3192 19.0775 45.9192 15.9975 43.7142 13.7925C41.5092 11.5875 38.4292 10.1875 35.0342 10.1875C31.6391 10.1875 28.5591 11.5875 26.3541 13.7925C24.1491 15.9625 22.7491 19.0425 22.7491 22.4725C22.7491 25.9025 24.1491 28.9475 26.3541 31.1525C28.5591 33.3575 31.6741 34.7575 35.0342 34.7575ZM31.1141 18.4825C32.1291 17.4675 33.5291 16.8375 35.0692 16.8375C36.6442 16.8375 38.0092 17.4675 39.0242 18.4825C40.0392 19.4975 40.6692 20.8975 40.6692 22.4375C40.6692 24.0125 40.0392 25.3775 39.0242 26.3925C38.0092 27.4075 36.6092 28.0375 35.0692 28.0375C33.4941 28.0375 32.1291 27.4075 31.1141 26.3925C30.0991 25.3775 29.4691 23.9775 29.4691 22.4375C29.4691 20.8975 30.1341 19.4975 31.1141 18.4825Z" fill="white"/>
<path d="M51.6243 39.7274L48.0193 34.7924C47.8093 34.5124 47.3893 34.4774 47.1443 34.7224C43.7493 37.6274 39.5493 39.5174 35.0343 39.5174C30.5193 39.5174 26.3543 37.6274 22.9243 34.7224C22.6793 34.5124 22.2593 34.5474 22.0493 34.7924L18.4443 39.7274C18.2693 39.9724 18.3043 40.2874 18.5143 40.4974C21.5593 42.9474 25.0943 44.6274 28.7693 45.5024L21.1393 58.9424C20.9293 59.3274 21.2093 59.8174 21.6293 59.8174H29.0843C29.3293 59.8174 29.5393 59.6774 29.6093 59.4324L34.9293 47.5324L40.2493 59.4324C40.3193 59.6424 40.5293 59.8174 40.7743 59.8174H48.2293C48.6843 59.8174 48.9293 59.3624 48.7193 58.9424L41.0893 45.5024C44.7643 44.6274 48.2993 43.0174 51.3443 40.4974C51.7993 40.2874 51.8343 39.9724 51.6243 39.7274Z" fill="white"/>
</g>
</g>
</g>
<defs>
<clipPath id="clip0_531_1836">
<rect width="70" height="70" fill="white"/>
</clipPath>
</defs>
</svg>
