<svg width="71" height="70" viewBox="0 0 71 70" fill="none" xmlns="http://www.w3.org/2000/svg">
<rect x="0.333344" y="0.167969" width="70" height="69.6666" rx="15.2174" fill="#34AADF"/>
<path d="M19.8076 33.765C19.8076 33.765 34.0489 27.7954 38.988 25.6933C40.8814 24.8526 47.3023 22.1619 47.3023 22.1619C47.3023 22.1619 50.2659 20.9849 50.0189 23.8435C49.9365 25.0207 49.278 29.1406 48.6195 33.5968C47.6316 39.9029 46.5614 46.7974 46.5614 46.7974C46.5614 46.7974 46.3968 48.7313 44.9974 49.0676C43.598 49.4039 41.2929 47.8905 40.8814 47.5541C40.552 47.3019 34.7074 43.5183 32.5671 41.6685C31.9909 41.164 31.3323 40.1551 32.6494 38.978C35.6129 36.2033 39.1526 32.7561 41.2929 30.57C42.2808 29.561 43.2686 27.2068 39.1526 30.0654C33.308 34.1854 27.5456 38.0531 27.5456 38.0531C27.5456 38.0531 26.2285 38.8938 23.7589 38.1371C21.2893 37.3805 18.4081 36.3715 18.4081 36.3715C18.4081 36.3715 16.4325 35.1103 19.8076 33.765Z" fill="white"/>
</svg>
