<svg width="71" height="70" viewBox="0 0 71 70" fill="none" xmlns="http://www.w3.org/2000/svg">
<rect x="0.333374" y="0.167969" width="70" height="69.6666" rx="15.2174" fill="#33CCFF"/>
<path d="M52.7065 23.9737C51.5507 24.4692 50.3356 24.8142 49.0912 25.0003C49.673 24.9009 50.529 23.8578 50.8698 23.4356C51.3875 22.7987 51.782 22.0717 52.0333 21.2914C52.0333 21.2335 52.0915 21.1507 52.0333 21.1093C52.004 21.0933 51.9711 21.085 51.9378 21.085C51.9044 21.085 51.8715 21.0933 51.8422 21.1093C50.491 21.8382 49.0529 22.3945 47.562 22.765C47.5101 22.7808 47.4548 22.7823 47.4021 22.7691C47.3493 22.756 47.3012 22.7288 47.2628 22.6905C47.1468 22.5529 47.0219 22.4229 46.8888 22.3014C46.2808 21.7587 45.5908 21.3145 44.8443 20.9851C43.8367 20.5733 42.7483 20.395 41.6613 20.4635C40.6065 20.5299 39.5768 20.8117 38.6361 21.2914C37.7097 21.7972 36.8955 22.4843 36.2425 23.3114C35.5556 24.1628 35.0597 25.1508 34.7881 26.209C34.5641 27.2155 34.5387 28.2559 34.7133 29.2721C34.7133 29.446 34.7133 29.4708 34.5637 29.446C28.638 28.5767 23.7761 26.4822 19.8034 21.9868C19.6289 21.7881 19.5375 21.7881 19.3962 21.9868C17.6675 24.6029 18.5069 28.7423 20.6678 30.7871C20.9587 31.0603 21.2579 31.3252 21.5737 31.5736C20.5829 31.5035 19.6164 31.2361 18.7313 30.7871C18.5651 30.6795 18.4737 30.7374 18.4654 30.9361C18.4418 31.2116 18.4418 31.4885 18.4654 31.764C18.6388 33.0841 19.1611 34.3347 19.9788 35.3878C20.7965 36.4409 21.8804 37.2588 23.1195 37.7578C23.4216 37.8867 23.7363 37.9838 24.0586 38.0476C23.1415 38.2274 22.2008 38.2554 21.2745 38.1303C21.075 38.0889 21.0002 38.1966 21.075 38.387C22.2967 41.6985 24.9479 42.7085 26.8927 43.2714C27.1586 43.3128 27.4246 43.3128 27.7238 43.3791C27.7238 43.3791 27.7238 43.3791 27.6739 43.4287C27.1005 44.4718 24.7817 45.1755 23.7179 45.5398C21.7762 46.2345 19.706 46.5001 17.6509 46.318C17.3268 46.2683 17.252 46.2766 17.1689 46.318C17.0858 46.3594 17.1689 46.4505 17.2603 46.5332C17.6758 46.8064 18.0914 47.0465 18.5235 47.2783C19.8101 47.9774 21.1703 48.5326 22.5793 48.9341C29.8763 50.9375 38.0875 49.4639 43.5645 44.0413C47.8695 39.7861 49.3821 33.9165 49.3821 28.0386C49.3821 27.815 49.6564 27.6826 49.8143 27.5667C50.9035 26.7213 51.8637 25.723 52.665 24.6029C52.8037 24.4359 52.8749 24.2233 52.8644 24.0068C52.8644 23.8827 52.8644 23.9075 52.7065 23.9737Z" fill="white"/>
</svg>
