<svg width="71" height="70" viewBox="0 0 71 70" fill="none" xmlns="http://www.w3.org/2000/svg">
<g clip-path="url(#clip0_531_3681)">
<mask id="mask0_531_3681" style="mask-type:luminance" maskUnits="userSpaceOnUse" x="1" y="0" width="70" height="70">
<path d="M70.3202 0.351562H1.01324V69.6585H70.3202V0.351562Z" fill="white"/>
</mask>
<g mask="url(#mask0_531_3681)">
<path d="M1.01324 33.6189C1.01324 17.9365 1.01324 10.0954 5.88513 5.22345C10.757 0.351562 18.5982 0.351562 34.2806 0.351562H37.0528C52.7352 0.351562 60.5764 0.351562 65.4483 5.22345C70.3202 10.0954 70.3202 17.9365 70.3202 33.6189V36.3912C70.3202 52.0735 70.3202 59.9147 65.4483 64.7866C60.5764 69.6585 52.7352 69.6585 37.0528 69.6585H34.2806C18.5982 69.6585 10.757 69.6585 5.88513 64.7866C1.01324 59.9147 1.01324 52.0735 1.01324 36.3912V33.6189Z" fill="#0077FF"/>
<path d="M37.8905 50.2865C22.0942 50.2865 13.0844 39.4573 12.709 21.4375H20.6215C20.8814 34.6635 26.7147 40.2658 31.3351 41.421V21.4375H38.7859V32.8442C43.3485 32.3533 48.1417 27.1553 49.7589 21.4375H57.2096C55.9678 28.4837 50.7698 33.6817 47.0734 35.8186C50.7698 37.5513 56.6901 42.0851 58.9425 50.2865H50.741C48.9794 44.7997 44.5903 40.5546 38.7859 39.977V50.2865H37.8905Z" fill="white"/>
</g>
</g>
<defs>
<clipPath id="clip0_531_3681">
<rect width="70" height="68.5714" fill="white" transform="translate(0.666687 0.714844)"/>
</clipPath>
</defs>
</svg>
