<svg width="70" height="70" viewBox="0 0 70 70" fill="none" xmlns="http://www.w3.org/2000/svg">
<rect y="0.167969" width="70" height="69.6666" rx="15.2174" fill="#FF0000"/>
<path d="M54.4692 25.4174C54.0122 23.7074 52.6602 22.3584 50.9401 21.8961C47.8298 21.0664 35.3508 21.0664 35.3508 21.0664C35.3508 21.0664 22.878 21.0664 19.7614 21.8961C18.0476 22.3521 16.6956 23.7011 16.2323 25.4174C15.4008 28.5207 15.4008 34.9997 15.4008 34.9997C15.4008 34.9997 15.4008 41.4787 16.2323 44.582C16.6893 46.292 18.0413 47.641 19.7614 48.1034C22.878 48.933 35.3508 48.933 35.3508 48.933C35.3508 48.933 47.8298 48.933 50.9401 48.1034C52.6539 47.6474 54.0059 46.2984 54.4692 44.582C55.3008 41.4787 55.3008 34.9997 55.3008 34.9997C55.3008 34.9997 55.3008 28.5207 54.4692 25.4174Z" fill="white"/>
<path d="M31.3646 40.972L41.7299 34.9997L31.3646 29.0274V40.972Z" fill="#FF0000"/>
</svg>
