<svg width="219" height="65" viewBox="0 0 219 65" fill="none" xmlns="http://www.w3.org/2000/svg">
<path d="M32.2882 38.5666C31.9602 38.896 31.4277 38.896 31.0983 38.5666L25.647 33.1152C25.3193 32.7876 25.3193 32.2547 25.647 31.9256L31.0983 26.4751C31.4277 26.1459 31.9602 26.1459 32.2882 26.4751L37.7396 31.9256C38.0677 32.2547 38.0677 32.7876 37.7396 33.1152L32.2882 38.5666ZM31.6934 21.1719L20.3648 32.5004L31.6934 43.8292L43.0217 32.5004L31.6934 21.1719Z" fill="#FF5000"/>
<path d="M23.6834 40.5117H12.3548L9.52973 43.3351C9.21433 43.6507 9.03635 44.0794 9.03635 44.5255V54.316C9.03635 54.781 9.41277 55.1574 9.87721 55.1574H19.6682C20.114 55.1574 20.5426 54.9794 20.8581 54.6653L23.6834 51.839V40.5117Z" fill="#FFC300"/>
<path d="M51.0324 40.5117H39.7038V51.839L31.6933 43.8296L23.683 51.839V55.8355C23.683 56.2814 23.8593 56.7089 24.1749 57.0256L31.0982 63.9477C31.4266 64.2771 31.9592 64.2771 32.2884 63.9477L39.211 57.0256C39.526 56.7089 39.7038 56.2814 39.7038 55.8355V51.839L42.5285 54.6653C42.8444 54.9794 43.2716 55.1574 43.719 55.1574H53.5095C53.9743 55.1574 54.3511 54.781 54.3511 54.316V44.5256C54.3511 44.0794 54.173 43.6507 53.8575 43.3351L51.0324 40.5117Z" fill="#FFC300"/>
<path d="M63.1401 31.9035L56.2179 24.9811C55.9024 24.6656 55.4738 24.4882 55.0281 24.4882H51.0324L53.8575 21.6631C54.1735 21.3476 54.3511 20.9193 54.3511 20.473V10.6834C54.3511 10.219 53.9743 9.84092 53.5098 9.84092H43.719C43.2716 9.84092 42.8448 10.019 42.5289 10.3345L39.7038 13.1592V9.16433C39.7038 8.71828 39.526 8.28963 39.211 7.97381L32.2884 1.05192C31.9592 0.722276 31.4266 0.722276 31.0987 1.05192L24.1749 7.97381C23.8593 8.28963 23.683 8.71828 23.683 9.16433V13.1592L31.6933 21.1699L39.7038 13.1592V24.4882H51.0324L43.0221 32.4986L51.0324 40.5105H55.0281C55.4738 40.5105 55.9024 40.3325 56.2179 40.016L63.1401 33.0938C63.4694 32.7644 63.4694 32.2329 63.1401 31.9035Z" fill="#FFC300"/>
<path d="M19.6681 9.83984H9.87765C9.41266 9.83984 9.03623 10.2179 9.03623 10.6822V20.4718C9.03623 20.9178 9.2127 21.3461 9.52961 21.6616L12.3547 24.4872H8.35802C7.91316 24.4872 7.48473 24.6645 7.16912 24.9803L0.245928 31.9023C-0.081976 32.2302 -0.081976 32.7632 0.245928 33.0926L7.16912 40.0145C7.48473 40.3314 7.91316 40.509 8.35802 40.509H12.3547L20.3651 32.4974L12.3547 24.4872H23.6833V13.1585L20.8585 10.3318C20.5429 10.0179 20.1143 9.83984 19.6681 9.83984Z" fill="#FFC300"/>
<path d="M23.6832 40.5108V35.8182L20.365 32.5L12.3545 40.5108H23.6832Z" fill="#FF8000"/>
<path d="M31.6933 43.8299L28.375 40.5117H23.683V51.8391L31.6933 43.8299L39.7037 51.8391V40.5117H35.0114L31.6933 43.8299Z" fill="#FF8000"/>
<path d="M39.7042 35.8183V40.5105H51.0327L43.022 32.5L39.7042 35.8183Z" fill="#FF8000"/>
<path d="M23.6832 24.4883H12.3545L20.365 32.4985L23.6832 29.1802V24.4883Z" fill="#FF8000"/>
<path d="M23.683 13.1602V24.4892H28.3752L31.6933 21.1713L35.0113 24.4892H39.7038V13.1602L31.6933 21.1713L23.683 13.1602Z" fill="#FF8000"/>
<path d="M51.0327 24.4883H39.7042V29.1802L43.0225 32.4985L51.0327 24.4883Z" fill="#FF8000"/>
<path d="M35.0114 24.4883L39.7034 29.1802V24.4883H35.0114Z" fill="#FF5000"/>
<path d="M23.683 24.4883V29.1802L28.3752 24.4883H23.683Z" fill="#FF5000"/>
<path d="M39.7039 40.509V35.8164L35.0114 40.509H39.7039Z" fill="#FF5000"/>
<path d="M23.683 40.509H28.3752L23.683 35.8164V40.509Z" fill="#FF5000"/>
<path d="M37.74 31.9239L32.2887 26.4726C31.9607 26.1446 31.4266 26.1446 31.0987 26.4726L25.6474 31.9239C25.3182 32.2531 25.3182 32.7843 25.6474 33.1136L31.0987 38.565C31.4266 38.8932 31.9607 38.8932 32.2887 38.565L37.74 33.1136C38.0678 32.7843 38.0678 32.2531 37.74 31.9239Z" fill="white"/>
<path d="M88.498 34.3137C85.5562 34.3137 83.1694 31.9282 83.1694 28.9865C83.1694 26.0434 85.5562 23.6565 88.498 23.6565C91.4409 23.6565 93.8267 26.0434 93.8267 28.9865C93.8267 31.9282 91.4409 34.3137 88.498 34.3137ZM89.8057 17.196C86.7241 17.196 84.3326 18.1298 82.632 19.9931V10.0166C82.632 9.78099 82.4416 9.58984 82.206 9.58984H76.1911C75.9562 9.58984 75.7646 9.78099 75.7646 10.0166V40.2391C75.7646 40.4759 75.9562 40.6658 76.1911 40.6658H82.206C82.4416 40.6658 82.632 40.4759 82.632 40.2391L82.6378 35.3286L88.3391 41.0285C88.5786 41.2678 88.9033 41.4037 89.2422 41.4037H89.8057C92.9831 41.4037 95.6934 40.2341 97.9405 37.8964C100.186 35.5577 101.311 32.6922 101.311 29.3012C101.311 25.9071 100.186 23.0424 97.9405 20.7031C95.6934 18.3655 92.9831 17.196 89.8057 17.196Z" fill="#FF5000"/>
<path d="M114.67 34.3449C111.729 34.3449 109.341 31.9584 109.341 29.0164C109.341 26.0747 111.729 23.6878 114.67 23.6878C117.613 23.6878 119.999 26.0747 119.999 29.0164C119.999 31.9584 117.613 34.3449 114.67 34.3449ZM126.972 17.7673H122.04C121.586 17.7673 121.181 18.0556 121.033 18.4835L120.532 19.9285C118.914 18.0671 116.64 17.1367 113.711 17.1367C110.69 17.1367 108.11 18.3035 105.974 20.6374C103.838 22.9739 102.77 25.834 102.77 29.223C102.77 32.6093 103.838 35.4704 105.974 37.8058C108.11 40.1409 110.69 41.3077 113.711 41.3077H114.032C114.372 41.3067 114.696 41.1731 114.936 40.9326L120.532 35.3371V40.2405C120.532 40.476 120.723 40.6658 120.958 40.6658H126.972C127.207 40.6658 127.399 40.476 127.399 40.2405V18.1941C127.399 17.9584 127.207 17.7673 126.972 17.7673Z" fill="#FF5000"/>
<path d="M186.392 29.2115L194.231 18.4437C194.436 18.1628 194.235 17.7662 193.886 17.7662H187.386C186.965 17.7662 186.569 17.9751 186.331 18.3236L179.844 27.7929V10.0166C179.844 9.7798 179.654 9.58984 179.419 9.58984H173.404C173.169 9.58984 172.979 9.7798 172.979 10.0166V40.2394C172.979 40.4745 173.169 40.6658 173.404 40.6658H179.419C179.654 40.6658 179.844 40.4745 179.844 40.2394V30.5397L186.787 40.1374C187.028 40.4685 187.414 40.6673 187.824 40.6673H194.102C194.454 40.6673 194.654 40.2657 194.443 39.9848L186.392 29.2115Z" fill="#FF5000"/>
<path d="M157.752 34.3449C154.808 34.3449 152.423 31.9584 152.423 29.0164C152.423 26.0747 154.808 23.6878 157.752 23.6878C160.694 23.6878 163.079 26.0747 163.079 29.0164C163.079 31.9584 160.694 34.3449 157.752 34.3449ZM170.054 17.7673H165.121C164.667 17.7673 164.262 18.0556 164.114 18.4835L163.613 19.9285C161.995 18.0671 159.722 17.1367 156.792 17.1367C153.77 17.1367 151.192 18.3035 149.054 20.6374C146.918 22.9739 145.85 25.834 145.85 29.223C145.85 32.6093 146.918 35.4704 149.054 37.8058C151.192 40.1409 153.77 41.3077 156.792 41.3077H157.114C157.452 41.3067 157.778 41.1731 158.018 40.9326L163.613 35.3371V40.2405C163.613 40.476 163.805 40.6658 164.04 40.6658H170.054C170.288 40.6658 170.48 40.476 170.48 40.2405V18.1941C170.48 17.9584 170.288 17.7673 170.054 17.7673Z" fill="#FF5000"/>
<path d="M205.359 34.3449C202.416 34.3449 200.031 31.9584 200.031 29.0164C200.031 26.0747 202.416 23.6878 205.359 23.6878C208.302 23.6878 210.688 26.0747 210.688 29.0164C210.688 31.9584 208.302 34.3449 205.359 34.3449ZM217.661 17.7673H212.729C212.275 17.7673 211.87 18.0556 211.722 18.4835L211.221 19.9285C209.603 18.0671 207.329 17.1367 204.399 17.1367C201.377 17.1367 198.799 18.3035 196.664 20.6374C194.527 22.9739 193.458 25.834 193.458 29.223C193.458 32.6093 194.527 35.4704 196.664 37.8058C198.799 40.1409 201.377 41.3077 204.399 41.3077H204.721C205.06 41.3067 205.386 41.1731 205.625 40.9326L211.221 35.3371V40.2405C211.221 40.476 211.412 40.6658 211.648 40.6658H217.661C217.897 40.6658 218.088 40.476 218.088 40.2405V18.1941C218.088 17.9584 217.897 17.7673 217.661 17.7673Z" fill="#FF5000"/>
<path d="M143.415 17.3481C142.033 17.4177 140.757 17.8014 139.585 18.5053C138.288 19.2833 137.426 20.4047 136.999 21.8697V18.2206C136.999 17.9864 136.808 17.7948 136.572 17.7948H130.559C130.323 17.7948 130.132 17.9864 130.132 18.2206V40.2582C130.132 40.4949 130.323 40.6849 130.559 40.6849H136.572C136.808 40.6849 136.999 40.4949 136.999 40.2582V30.3383C136.999 28.2637 137.724 26.8071 139.173 25.9675C140.486 25.2061 141.895 24.9036 143.396 25.0576C143.647 25.084 143.866 24.8871 143.866 24.6342V17.7761C143.866 17.532 143.66 17.3366 143.415 17.3481Z" fill="#FF5000"/>
<path d="M84.5349 46.8672C83.3977 46.8672 82.5472 47.3276 81.9846 48.2486C81.4868 47.3276 80.6915 46.8672 79.5981 46.8672C78.5365 46.8672 77.7294 47.3009 77.1779 48.168V47.2958C77.1779 47.1757 77.0807 47.0786 76.9606 47.0786H75.9808C75.8618 47.0786 75.7646 47.1757 75.7646 47.2958V54.984C75.7646 55.1013 75.8618 55.2 75.9808 55.2H76.9606C77.0807 55.2 77.1779 55.1013 77.1779 54.984V50.6838C77.1779 49.8616 77.3747 49.2438 77.7705 48.8333C78.1657 48.4214 78.6604 48.2167 79.2565 48.2167C79.7873 48.2167 80.2068 48.3882 80.515 48.7361C80.8231 49.0812 80.9778 49.5685 80.9778 50.1979V54.984C80.9778 55.1013 81.075 55.2 81.1939 55.2H82.1738C82.2939 55.2 82.3909 55.1013 82.3909 54.984V50.6838C82.3909 49.8513 82.5718 49.2311 82.9348 48.8243C83.2983 48.4189 83.7826 48.2167 84.389 48.2167C84.9302 48.2167 85.362 48.3882 85.6871 48.7361C86.0133 49.0812 86.1757 49.5685 86.1757 50.1979V54.984C86.1757 55.1013 86.2716 55.2 86.3917 55.2H87.3719C87.4917 55.2 87.588 55.1013 87.588 54.984V50.148C87.588 49.1415 87.3063 48.3435 86.7437 47.7527C86.181 47.1627 85.4441 46.8672 84.5349 46.8672Z" fill="#FF5000"/>
<path d="M95.7947 53.1941C95.242 53.7532 94.5554 54.0308 93.7318 54.0308C92.9198 54.0308 92.2378 53.7532 91.6854 53.1941C91.1328 52.6365 90.858 51.9458 90.858 51.1249C90.858 50.3014 91.1328 49.6106 91.6854 49.0542C92.2378 48.4951 92.9198 48.2162 93.7318 48.2162C94.5554 48.2162 95.242 48.4951 95.7947 49.0542C96.347 49.6106 96.6226 50.3014 96.6226 51.1249C96.6226 51.9458 96.347 52.6365 95.7947 53.1941ZM97.8196 47.0781H96.8397C96.7204 47.0781 96.6226 47.174 96.6226 47.2943V48.4748C95.9187 47.403 94.8955 46.8672 93.5542 46.8672C92.417 46.8672 91.4475 47.2803 90.6469 48.1088C89.8451 48.9376 89.4448 49.9468 89.4448 51.1388C89.4448 52.3283 89.8451 53.3388 90.6469 54.1675C91.4475 54.9953 92.417 55.4081 93.5542 55.4081C94.8955 55.4081 95.9187 54.8723 96.6226 53.8017V54.9811C96.6226 55.1011 96.7204 55.1972 96.8397 55.1972H97.8196C97.9393 55.1972 98.0357 55.1011 98.0357 54.9811V47.2943C98.0357 47.174 97.9393 47.0781 97.8196 47.0781Z" fill="#FF5000"/>
<path d="M104.153 46.9378C103.049 46.9966 102.278 47.4979 101.842 48.443V47.2944C101.842 47.1755 101.744 47.0784 101.625 47.0784H100.644C100.525 47.0784 100.428 47.1755 100.428 47.2944V54.9826C100.428 55.1027 100.525 55.1987 100.644 55.1987H101.625C101.744 55.1987 101.842 55.1027 101.842 54.9826V50.895C101.842 50.0074 102.091 49.3627 102.589 48.9621C103.036 48.603 103.563 48.4162 104.169 48.406C104.285 48.4046 104.375 48.3064 104.375 48.1899V47.1553C104.375 47.0324 104.274 46.9312 104.153 46.9378Z" fill="#FF5000"/>
<path d="M109.179 51.0053L112.696 47.4449C112.831 47.3066 112.735 47.0765 112.542 47.0765H111.424C111.308 47.0765 111.196 47.1225 111.114 47.2056L107.734 50.6643V44.0442C107.734 43.9252 107.637 43.8281 107.517 43.8281H106.537C106.418 43.8281 106.321 43.9252 106.321 44.0442V54.9794C106.321 55.0996 106.418 55.1953 106.537 55.1953H107.517C107.637 55.1953 107.734 55.0996 107.734 54.9794V51.3484L111.308 55.0637C111.391 55.1483 111.504 55.1953 111.621 55.1953H112.684C112.874 55.1953 112.972 54.9679 112.84 54.8299L109.179 51.0053Z" fill="#FF5000"/>
<path d="M115.524 50.5374C115.643 49.8226 115.951 49.2522 116.45 48.8249C116.948 48.3966 117.576 48.1826 118.334 48.1826C118.984 48.1826 119.552 48.3824 120.039 48.7842C120.527 49.1845 120.829 49.7689 120.948 50.5374H115.524ZM118.334 46.8516C117.078 46.8516 116.055 47.2582 115.265 48.0689C114.474 48.8813 114.079 49.8993 114.079 51.1234C114.079 52.3574 114.482 53.3781 115.289 54.1851C116.094 54.991 117.143 55.3938 118.431 55.3938C119.939 55.3938 121.087 54.8453 121.876 53.7489C121.948 53.6493 121.913 53.5059 121.805 53.4459L120.973 52.9727C120.877 52.919 120.759 52.951 120.694 53.039C120.203 53.7211 119.46 54.0626 118.464 54.0626C117.695 54.0626 117.048 53.8628 116.523 53.4614C115.997 53.0608 115.665 52.4981 115.524 51.7731H121.94C122.165 51.7731 122.358 51.5979 122.372 51.3714C122.376 51.2934 122.378 51.2155 122.378 51.1401C122.378 49.9596 122.001 48.9491 121.249 48.1099C120.497 47.2708 119.525 46.8516 118.334 46.8516Z" fill="#FF5000"/>
<path d="M128.006 48.4272C128.127 48.4272 128.223 48.33 128.223 48.211V47.2796C128.223 47.1597 128.127 47.0637 128.006 47.0637H126.062V45.08C126.062 44.9353 125.923 44.8306 125.785 44.8727L124.805 45.1641C124.713 45.1924 124.649 45.277 124.649 45.3731V47.0637H123.259C123.138 47.0637 123.042 47.1597 123.042 47.2796V48.211C123.042 48.33 123.138 48.4272 123.259 48.4272H124.649V52.828C124.649 53.8361 124.937 54.5215 125.511 54.8834C126.054 55.2262 126.893 55.3336 128.031 55.2071C128.14 55.194 128.223 55.1008 128.223 54.9906V54.1427C128.223 54.0186 128.12 53.9215 127.998 53.9266C127.619 53.9408 127.293 53.9448 127.02 53.9423C126.696 53.9356 126.455 53.8486 126.299 53.6812C126.142 53.5137 126.062 53.2298 126.062 52.828V48.4272H128.006Z" fill="#FF5000"/>
</svg>
