<svg width="22" height="22" viewBox="0 0 22 22" fill="none" xmlns="http://www.w3.org/2000/svg">
<path d="M20.1667 8.25002V13.75C20.1667 16.0417 19.7083 17.6459 18.6817 18.6817L12.8333 12.8334L19.9192 5.74753C20.0842 6.47169 20.1667 7.29669 20.1667 8.25002Z" stroke="#FE5000" stroke-width="1.375" stroke-linecap="round" stroke-linejoin="round"/>
<path d="M19.9192 5.74751L5.74749 19.9192C2.98833 19.2867 1.83334 17.38 1.83334 13.75V8.25001C1.83334 3.66668 3.66667 1.83334 8.25 1.83334H13.75C17.38 1.83334 19.2867 2.98835 19.9192 5.74751Z" stroke="#FE5000" stroke-width="1.375" stroke-linecap="round" stroke-linejoin="round"/>
<path d="M18.6817 18.6817C17.6458 19.7083 16.0417 20.1667 13.75 20.1667H8.25C7.29667 20.1667 6.47166 20.0842 5.74749 19.9192L12.8333 12.8333L18.6817 18.6817Z" stroke="#FE5000" stroke-width="1.375" stroke-linecap="round" stroke-linejoin="round"/>
<path d="M5.71999 7.315C6.34332 4.62917 10.3767 4.62917 11 7.315C11.3575 8.89167 10.3675 10.23 9.49665 11.055C8.86415 11.66 7.865 11.66 7.22334 11.055C6.3525 10.23 5.35332 8.89167 5.71999 7.315Z" stroke="#FE5000" stroke-width="1.375"/>
<path d="M8.33672 7.975H8.34495" stroke="#FE5000" stroke-width="1.83333" stroke-linecap="round" stroke-linejoin="round"/>
</svg>
