<svg width="22" height="23" viewBox="0 0 22 23" fill="none" xmlns="http://www.w3.org/2000/svg">
<path d="M20.1392 17.3024C20.1392 17.6324 20.0659 17.9716 19.91 18.3016C19.7542 18.6316 19.5525 18.9433 19.2867 19.2366C18.8375 19.7316 18.3425 20.0891 17.7834 20.3183C17.2334 20.5474 16.6375 20.6666 15.9959 20.6666C15.0609 20.6666 14.0617 20.4466 13.0075 19.9974C11.9534 19.5483 10.8992 18.9433 9.85421 18.1824C8.80004 17.4124 7.80087 16.5599 6.84754 15.6158C5.90337 14.6624 5.05087 13.6633 4.29004 12.6183C3.53837 11.5733 2.93337 10.5283 2.49337 9.49242C2.05337 8.44742 1.83337 7.44825 1.83337 6.49492C1.83337 5.87159 1.94337 5.27575 2.16337 4.72575C2.38337 4.16659 2.73171 3.65325 3.21754 3.19492C3.80421 2.61742 4.44587 2.33325 5.12421 2.33325C5.38087 2.33325 5.63754 2.38825 5.86671 2.49825C6.10504 2.60825 6.31587 2.77325 6.48087 3.01159L8.60754 6.00909C8.77254 6.23825 8.89171 6.44909 8.97421 6.65075C9.05671 6.84325 9.10254 7.03575 9.10254 7.20992C9.10254 7.42992 9.03837 7.64992 8.91004 7.86075C8.79087 8.07158 8.61671 8.29158 8.39671 8.51158L7.70004 9.23575C7.59921 9.33658 7.55337 9.45575 7.55337 9.60242C7.55337 9.67575 7.56254 9.73992 7.58087 9.81325C7.60837 9.88658 7.63587 9.94158 7.65421 9.99658C7.81921 10.2991 8.10337 10.6933 8.50671 11.1699C8.91921 11.6466 9.35921 12.1324 9.83587 12.6183C10.3309 13.1041 10.8075 13.5533 11.2934 13.9658C11.77 14.3691 12.1642 14.6441 12.4759 14.8091C12.5217 14.8274 12.5767 14.8549 12.6409 14.8824C12.7142 14.9099 12.7875 14.9191 12.87 14.9191C13.0259 14.9191 13.145 14.8641 13.2459 14.7633L13.9425 14.0758C14.1717 13.8466 14.3917 13.6724 14.6025 13.5624C14.8134 13.4341 15.0242 13.3699 15.2534 13.3699C15.4275 13.3699 15.6109 13.4066 15.8125 13.4891C16.0142 13.5716 16.225 13.6908 16.4542 13.8466L19.4884 16.0008C19.7267 16.1658 19.8917 16.3583 19.9925 16.5874C20.0842 16.8166 20.1392 17.0458 20.1392 17.3024Z" stroke="#141414" stroke-width="1.375" stroke-miterlimit="10"/>
<path d="M16.9583 8.74984C16.9583 8.19984 16.5275 7.3565 15.8858 6.669C15.2992 6.0365 14.52 5.5415 13.75 5.5415" stroke="#FE5000" stroke-width="1.375" stroke-linecap="round" stroke-linejoin="round"/>
<path d="M20.1667 8.74992C20.1667 5.20242 17.2975 2.33325 13.75 2.33325" stroke="#FE5000" stroke-width="1.375" stroke-linecap="round" stroke-linejoin="round"/>
</svg>
