<svg width="169" height="48" viewBox="0 0 169 48" fill="none" xmlns="http://www.w3.org/2000/svg">
<path d="M168 42.4051C168 44.9549 165.85 47.0203 163.191 47.0203H5.81526C3.1574 47.0203 1 44.9549 1 42.4051V5.60068C1 3.0521 3.1574 0.979492 5.81526 0.979492H163.19C165.85 0.979492 167.999 3.0521 167.999 5.60068L168 42.4051Z" fill="#F2F2F2"/>
<path d="M130 9.60122C132.315 9.60122 134.199 11.4465 134.199 13.7143V43.102C134.199 45.3698 132.315 47.2151 130 47.2151H5C2.685 47.2151 0.80125 45.3698 0.80125 43.102V13.7143C0.80125 11.4465 2.685 9.60122 5 9.60122H130ZM130 8.81633H5C2.25125 8.81633 0 11.0216 0 13.7143V43.102C0 45.7947 2.25125 48 5 48H130C132.749 48 135 45.7947 135 43.102V13.7143C135 11.0216 132.749 8.81633 130 8.81633Z" fill="#F2F2F2"/>
<path d="M37.716 23.9862C37.6796 20.1497 41.0217 18.2833 41.1745 18.1964C39.2818 15.5741 36.3481 15.2158 35.3171 15.1872C32.8532 14.9408 30.4631 16.5883 29.208 16.5883C27.9278 16.5883 25.995 15.211 23.9118 15.2515C21.2312 15.2908 18.7234 16.7656 17.348 19.0558C14.5095 23.7255 16.6264 30.5878 19.3459 34.3624C20.7063 36.2109 22.2959 38.275 24.3766 38.2024C26.4121 38.1226 27.1725 36.9692 29.6289 36.9692C32.0628 36.9692 32.7768 38.2024 34.8988 38.156C37.0834 38.1226 38.4588 36.299 39.7715 34.4338C41.3436 32.315 41.9749 30.2283 42 30.1212C41.9486 30.1045 37.7573 28.5845 37.716 23.9862Z" fill="#141414"/>
<path d="M33.7075 12.7042C34.8023 11.4032 35.5514 9.63313 35.3434 7.83691C33.7589 7.90357 31.7772 8.87846 30.636 10.1509C29.6264 11.2722 28.7245 13.1101 28.9575 14.8385C30.7375 14.9646 32.5651 13.985 33.7075 12.7042Z" fill="#141414"/>
<path d="M67 37.2242H64.1701L62.6199 32.6204H57.2318L55.7551 37.2242H53L58.3383 21.5508H61.6355L67 37.2242ZM62.1526 30.6889L60.7508 26.5963C60.6025 26.1782 60.3246 25.1936 59.9146 23.6436H59.8648C59.7016 24.3102 59.4386 25.2948 59.0773 26.5963L57.7003 30.6889H62.1526Z" fill="#141414"/>
<path d="M81 31.3957C81 33.379 80.4273 34.9468 79.282 36.0976C78.2561 37.1221 76.9822 37.6338 75.4616 37.6338C73.8203 37.6338 72.6412 37.082 71.9231 35.9785H71.8711V42.1218H69.1026V29.5472C69.1026 28.3004 69.0675 27.0207 69 25.7082H71.4348L71.5893 27.5566H71.6413C72.5645 26.1639 73.9657 25.4688 75.846 25.4688C77.316 25.4688 78.5431 26.012 79.5248 27.0997C80.5091 28.1886 81 29.6202 81 31.3957ZM78.1795 31.4905C78.1795 30.3554 77.9068 29.4196 77.3588 28.6832C76.7602 27.9151 75.9564 27.5311 74.9487 27.5311C74.2657 27.5311 73.6449 27.745 73.0905 28.1667C72.5347 28.592 72.1711 29.1474 72.001 29.8353C71.9153 30.1561 71.8724 30.4186 71.8724 30.6252V32.5697C71.8724 33.4179 72.1503 34.1337 72.7061 34.7183C73.2619 35.3028 73.9839 35.5945 74.8721 35.5945C75.9148 35.5945 76.7264 35.2178 77.3069 34.4667C77.8886 33.7145 78.1795 32.7228 78.1795 31.4905Z" fill="#141414"/>
<path d="M95 31.3957C95 33.379 94.4273 34.9468 93.2805 36.0976C92.2558 37.1221 90.9818 37.6338 89.461 37.6338C87.8195 37.6338 86.6403 37.082 85.9234 35.9785H85.8714V42.1218H83.1026V29.5472C83.1026 28.3004 83.0675 27.0207 83 25.7082H85.4351L85.5896 27.5566H85.6416C86.5636 26.1639 87.9649 25.4688 89.8468 25.4688C91.3156 25.4688 92.5429 26.012 93.5273 27.0997C94.5078 28.1886 95 29.6202 95 31.3957ZM92.1792 31.4905C92.1792 30.3554 91.9052 29.4196 91.3571 28.6832C90.7584 27.9151 89.9571 27.5311 88.9481 27.5311C88.2636 27.5311 87.6442 27.745 87.0883 28.1667C86.5325 28.592 86.1701 29.1474 86 29.8353C85.9156 30.1561 85.8714 30.4186 85.8714 30.6252V32.5697C85.8714 33.4179 86.1493 34.1337 86.7026 34.7183C87.2584 35.3016 87.9805 35.5945 88.8714 35.5945C89.9143 35.5945 90.726 35.2178 91.3065 34.4667C91.8883 33.7145 92.1792 32.7228 92.1792 31.4905Z" fill="#141414"/>
<path d="M110 33.4279C110 34.8039 109.524 35.9235 108.568 36.7877C107.518 37.7322 106.056 38.2038 104.178 38.2038C102.443 38.2038 101.053 37.8683 100 37.1961L100.598 35.0361C101.732 35.7241 102.976 36.0693 104.331 36.0693C105.304 36.0693 106.061 35.8481 106.605 35.4081C107.146 34.968 107.416 34.3773 107.416 33.6407C107.416 32.9843 107.194 32.4312 106.747 31.9826C106.302 31.5341 105.56 31.1172 104.523 30.7318C101.701 29.6755 100.291 28.1281 100.291 26.0933C100.291 24.7635 100.785 23.6731 101.774 22.8247C102.76 21.975 104.076 21.5508 105.721 21.5508C107.187 21.5508 108.406 21.8073 109.379 22.319L108.733 24.4316C107.825 23.9357 106.797 23.6877 105.648 23.6877C104.74 23.6877 104.03 23.9126 103.521 24.3599C103.091 24.7598 102.875 25.2473 102.875 25.8247C102.875 26.464 103.121 26.9928 103.616 27.4085C104.046 27.7926 104.827 28.2084 105.961 28.6569C107.347 29.2173 108.366 29.8724 109.021 30.6237C109.674 31.3724 110 32.3096 110 33.4279Z" fill="#141414"/>
<path d="M119 28.3233H116.185V33.9425C116.185 35.3717 116.681 36.0857 117.675 36.0857C118.132 36.0857 118.51 36.0459 118.81 35.9663L118.88 37.919C118.377 38.1084 117.715 38.2036 116.894 38.2036C115.886 38.2036 115.098 37.8937 114.529 37.2749C113.962 36.655 113.677 35.6154 113.677 34.1548V28.3209H112V26.3911H113.677V24.272L116.185 23.5098V26.3911H119V28.3233Z" fill="#141414"/>
<path d="M133 31.2412C133 32.9735 132.461 34.3958 131.386 35.508C130.259 36.6531 128.763 37.2239 126.897 37.2239C125.1 37.2239 123.668 36.6754 122.601 35.5784C121.534 34.4815 121 33.0968 121 31.4279C121 29.6815 121.549 28.251 122.651 27.1388C123.75 26.0254 125.234 25.4688 127.099 25.4688C128.897 25.4688 130.343 26.0172 131.435 27.1153C132.479 28.1806 133 29.5558 133 31.2412ZM130.176 31.3222C130.176 30.2828 129.935 29.3914 129.446 28.648C128.875 27.7484 128.059 27.2997 127.002 27.2997C125.908 27.2997 125.077 27.7495 124.506 28.648C124.017 29.3926 123.776 30.2981 123.776 31.3692C123.776 32.4086 124.017 33.3 124.506 34.0423C125.094 34.9419 125.917 35.3905 126.978 35.3905C128.017 35.3905 128.833 34.9325 129.421 34.0188C129.923 33.2612 130.176 32.3604 130.176 31.3222Z" fill="#141414"/>
<path d="M141 27.9559C140.753 27.9091 140.49 27.8851 140.215 27.8851C139.338 27.8851 138.66 28.2248 138.183 28.9054C137.769 29.5056 137.561 30.2642 137.561 31.1801V37.2239H135.07L135.093 29.3327C135.093 28.0051 135.062 26.7963 135 25.7064H137.17L137.261 27.9103H137.33C137.593 27.1529 138.008 26.5431 138.576 26.0857C139.131 25.674 139.731 25.4688 140.377 25.4688C140.607 25.4688 140.815 25.4856 141 25.5156V27.9559Z" fill="#141414"/>
<path d="M153 30.8338C153 31.2833 152.968 31.6623 152.899 31.9718H144.649C144.682 33.0874 145.08 33.9406 145.846 34.529C146.542 35.055 147.441 35.3186 148.545 35.3186C149.766 35.3186 150.881 35.1409 151.883 34.7843L152.314 36.526C151.143 36.992 149.76 37.2239 148.164 37.2239C146.245 37.2239 144.738 36.7084 143.642 35.6787C142.548 34.649 142 33.2663 142 31.5316C142 29.8288 142.51 28.4108 143.53 27.2799C144.598 26.0725 146.041 25.4688 147.857 25.4688C149.641 25.4688 150.992 26.0725 151.909 27.2799C152.635 28.2389 153 29.4252 153 30.8338ZM150.378 30.183C150.396 29.4393 150.216 28.7968 149.844 28.2542C149.368 27.5564 148.636 27.2081 147.652 27.2081C146.753 27.2081 146.022 27.5482 145.463 28.2307C145.005 28.7732 144.733 29.424 144.649 30.1819H150.378V30.183Z" fill="#141414"/>
<path d="M62 12.0335C62 13.5951 61.5402 14.7706 60.6219 15.56C59.7713 16.2884 58.5625 16.6532 56.9968 16.6532C56.2205 16.6532 55.5562 16.6187 55 16.5498V8.01735C55.7255 7.89794 56.5071 7.83691 57.3511 7.83691C58.8426 7.83691 59.9667 8.16728 60.7248 8.828C61.5741 9.57497 62 10.643 62 12.0335ZM60.5607 12.0719C60.5607 11.0596 60.2975 10.2835 59.7713 9.74214C59.2451 9.20215 58.4766 8.93149 57.4645 8.93149C57.0346 8.93149 56.6686 8.96068 56.3651 9.02171V15.5082C56.5331 15.5348 56.8405 15.5467 57.2873 15.5467C58.332 15.5467 59.1383 15.2509 59.7062 14.6591C60.2741 14.0674 60.5607 13.205 60.5607 12.0719Z" fill="#141414"/>
<path d="M69 13.661C69 14.5276 68.731 15.2376 68.193 15.7947C67.629 16.3673 66.8817 16.6529 65.9487 16.6529C65.0494 16.6529 64.3333 16.3792 63.7992 15.8293C63.2664 15.2807 63 14.5886 63 13.7542C63 12.8816 63.2742 12.1656 63.8252 11.6097C64.3762 11.0539 65.117 10.7754 66.05 10.7754C66.9493 10.7754 67.6719 11.0491 68.219 11.5978C68.7388 12.1309 69 12.8194 69 13.661ZM67.5874 13.7016C67.5874 13.1816 67.4652 12.7358 67.2222 12.364C66.9363 11.9146 66.5296 11.6898 66.0007 11.6898C65.4535 11.6898 65.0377 11.9146 64.7518 12.364C64.5075 12.7358 64.3866 13.1888 64.3866 13.7243C64.3866 14.2443 64.5088 14.6902 64.7518 15.0619C65.0468 15.5114 65.4574 15.7361 65.9877 15.7361C66.5075 15.7361 66.9155 15.5078 67.2092 15.05C67.4613 14.671 67.5874 14.2216 67.5874 13.7016Z" fill="#141414"/>
<path d="M79 10.7754L77.0564 16.6529H75.7914L74.9862 14.1007C74.782 13.4636 74.616 12.8302 74.4868 12.2018H74.4618C74.3419 12.8476 74.1758 13.4798 73.9624 14.1007L73.1072 16.6529H71.8277L70 10.7754H71.4192L72.1215 13.5695C72.2915 14.2304 72.4312 14.86 72.5432 15.456H72.5682C72.671 14.9647 72.841 14.3388 73.0808 13.582L73.9624 10.7766H75.0877L75.9324 13.5222C76.1366 14.1917 76.3026 14.8363 76.4305 15.4572H76.4687C76.5622 14.8525 76.7032 14.2079 76.8903 13.5222L77.6441 10.7766H79V10.7754Z" fill="#141414"/>
<path d="M86 16.6529H84.7319V13.3557C84.7319 12.3397 84.3495 11.8317 83.5823 11.8317C83.2059 11.8317 82.9022 11.9709 82.6663 12.2506C82.4327 12.5302 82.3141 12.8599 82.3141 13.2373V16.6517H81.046V12.5412C81.046 12.0357 81.0303 11.4873 81 10.8938H82.1145L82.1738 11.7939H82.2089C82.3565 11.5142 82.5767 11.2834 82.8659 11.099C83.2096 10.8841 83.5944 10.7754 84.0155 10.7754C84.5479 10.7754 84.9908 10.9488 85.3429 11.2968C85.781 11.723 86 12.3593 86 13.2043V16.6529Z" fill="#141414"/>
<path d="M89 16.6532H88V7.83691H89V16.6532Z" fill="#141414"/>
<path d="M97 13.661C97 14.5276 96.731 15.2376 96.193 15.7947C95.629 16.3673 94.8804 16.6529 93.9487 16.6529C93.0481 16.6529 92.332 16.3792 91.7992 15.8293C91.2664 15.2807 91 14.5886 91 13.7542C91 12.8816 91.2742 12.1656 91.8252 11.6097C92.3762 11.0539 93.117 10.7754 94.0487 10.7754C94.9493 10.7754 95.6706 11.0491 96.219 11.5978C96.7388 12.1309 97 12.8194 97 13.661ZM95.5861 13.7016C95.5861 13.1816 95.4639 12.7358 95.2209 12.364C94.9363 11.9146 94.5283 11.6898 94.0006 11.6898C93.4522 11.6898 93.0364 11.9146 92.7518 12.364C92.5075 12.7358 92.3866 13.1888 92.3866 13.7243C92.3866 14.2443 92.5088 14.6902 92.7518 15.0619C93.0468 15.5114 93.4574 15.7361 93.9877 15.7361C94.5075 15.7361 94.9142 15.5078 95.2079 15.05C95.4613 14.671 95.5861 14.2216 95.5861 13.7016Z" fill="#141414"/>
<path d="M104 16.525H102.784L102.683 15.876H102.646C102.23 16.3936 101.637 16.6529 100.867 16.6529C100.292 16.6529 99.8269 16.482 99.4767 16.1425C99.1589 15.8341 99 15.4504 99 14.995C99 14.3065 99.3101 13.7817 99.9341 13.4183C100.557 13.0549 101.433 12.8768 102.561 12.8852V12.78C102.561 12.0377 102.14 11.6671 101.296 11.6671C100.695 11.6671 100.165 11.807 99.708 12.0843L99.4328 11.2619C99.9987 10.938 100.698 10.7754 101.522 10.7754C103.114 10.7754 103.912 11.5524 103.912 13.1063V15.1815C103.912 15.7445 103.942 16.1927 104 16.525ZM102.594 14.5886V13.7195C101.101 13.6956 100.354 14.0746 100.354 14.8551C100.354 15.1492 100.439 15.3691 100.614 15.5162C100.788 15.6632 101.01 15.7361 101.275 15.7361C101.572 15.7361 101.85 15.6488 102.103 15.4755C102.358 15.301 102.514 15.0799 102.572 14.8085C102.587 14.7475 102.594 14.6734 102.594 14.5886Z" fill="#141414"/>
<path d="M111 16.5182H109.76L109.695 15.5626H109.656C109.26 16.2897 108.585 16.6532 107.637 16.6532C106.88 16.6532 106.249 16.3717 105.749 15.8087C105.249 15.2457 105 14.5148 105 13.6173C105 12.6541 105.271 11.8739 105.815 11.2781C106.341 10.7227 106.987 10.445 107.755 10.445C108.599 10.445 109.189 10.7138 109.525 11.2529H109.552V7.83691H110.951V14.915C110.951 15.4944 110.967 16.0284 111 16.5182ZM109.552 14.0086V13.0164C109.552 12.8447 109.539 12.7058 109.513 12.5998C109.435 12.2817 109.265 12.0141 109.008 11.7982C108.748 11.5823 108.435 11.4738 108.073 11.4738C107.552 11.4738 107.144 11.6694 106.844 12.062C106.547 12.4546 106.396 12.9558 106.396 13.568C106.396 14.1563 106.539 14.6335 106.825 15.0008C107.128 15.3921 107.536 15.5878 108.047 15.5878C108.505 15.5878 108.872 15.425 109.151 15.098C109.42 14.7963 109.552 14.4327 109.552 14.0086Z" fill="#141414"/>
<path d="M122 13.661C122 14.5276 121.731 15.2376 121.193 15.7947C120.629 16.3673 119.883 16.6529 118.949 16.6529C118.051 16.6529 117.335 16.3792 116.799 15.8293C116.266 15.2807 116 14.5886 116 13.7542C116 12.8816 116.274 12.1656 116.825 11.6097C117.376 11.0539 118.117 10.7754 119.051 10.7754C119.949 10.7754 120.673 11.0491 121.219 11.5978C121.739 12.1309 122 12.8194 122 13.661ZM120.589 13.7016C120.589 13.1816 120.467 12.7358 120.224 12.364C119.936 11.9146 119.531 11.6898 119.001 11.6898C118.455 11.6898 118.039 11.9146 117.752 12.364C117.507 12.7358 117.387 13.1888 117.387 13.7243C117.387 14.2443 117.509 14.6902 117.752 15.0619C118.047 15.5114 118.457 15.7361 118.988 15.7361C119.507 15.7361 119.917 15.5078 120.211 15.05C120.461 14.671 120.589 14.2216 120.589 13.7016Z" fill="#141414"/>
<path d="M129 16.6529H127.733V13.3557C127.733 12.3397 127.35 11.8317 126.582 11.8317C126.205 11.8317 125.901 11.9709 125.667 12.2506C125.432 12.5302 125.314 12.8599 125.314 13.2373V16.6517H124.045V12.5412C124.045 12.0357 124.03 11.4873 124 10.8938H125.114L125.173 11.7939H125.208C125.357 11.5142 125.577 11.2834 125.865 11.099C126.21 10.8841 126.594 10.7754 127.016 10.7754C127.548 10.7754 127.991 10.9488 128.343 11.2968C128.782 11.723 129 12.3593 129 13.2043V16.6529Z" fill="#141414"/>
<path d="M138 11.3815H136.392V14.38C136.392 15.1421 136.678 15.5231 137.243 15.5231C137.505 15.5231 137.723 15.5022 137.894 15.459L137.932 16.4999C137.643 16.6021 137.264 16.6531 136.798 16.6531C136.221 16.6531 135.772 16.4882 135.448 16.1582C135.122 15.8282 134.96 15.273 134.96 14.4939V11.3815H134V10.3536H134.96V9.22232L136.391 8.81641V10.3523H137.999V11.3815H138Z" fill="#141414"/>
<path d="M145 16.6532H143.719V13.2175C143.719 12.1342 143.333 11.5919 142.56 11.5919C141.966 11.5919 141.561 11.906 141.339 12.5342C141.301 12.6662 141.279 12.8277 141.279 13.0175V16.652H140V7.83691H141.279V11.4791H141.303C141.706 10.8163 142.284 10.4855 143.032 10.4855C143.563 10.4855 144.001 10.6676 144.349 11.0329C144.783 11.4881 145 12.165 145 13.0598V16.6532Z" fill="#141414"/>
<path d="M152 13.4572C152 13.6824 151.983 13.8717 151.953 14.0262H148.204C148.22 14.5844 148.399 15.0096 148.747 15.3042C149.064 15.5677 149.473 15.6995 149.974 15.6995C150.529 15.6995 151.035 15.6109 151.491 15.4324L151.686 16.3044C151.153 16.5368 150.525 16.6529 149.799 16.6529C148.928 16.6529 148.242 16.3954 147.746 15.8804C147.247 15.3653 147 14.6742 147 13.807C147 12.9554 147.23 12.2463 147.694 11.6809C148.179 11.0772 148.834 10.7754 149.66 10.7754C150.469 10.7754 151.084 11.0772 151.499 11.6809C151.834 12.16 152 12.7529 152 13.4572ZM150.807 13.1326C150.817 12.7601 150.734 12.4391 150.565 12.1684C150.348 11.8199 150.017 11.645 149.57 11.645C149.162 11.645 148.829 11.8151 148.575 12.1564C148.367 12.4283 148.244 12.7529 148.204 13.1326H150.807Z" fill="#141414"/>
</svg>
