<?xml version="1.0" standalone="no"?>
<!DOCTYPE svg PUBLIC "-//W3C//DTD SVG 20010904//EN"
 "http://www.w3.org/TR/2001/REC-SVG-20010904/DTD/svg10.dtd">
<svg version="1.0" xmlns="http://www.w3.org/2000/svg"
 width="1920.000000pt" height="450.000000pt" viewBox="0 0 1920.000000 450.000000"
 preserveAspectRatio="xMidYMid meet">

<g transform="translate(0.000000,450.000000) scale(0.100000,-0.100000)"
fill="#000000" stroke="none">
<path d="M160 2250 l0 -2100 9440 0 9440 0 0 2100 0 2100 -160 0 -160 0 0
-258 c0 -287 -8 -356 -50 -422 -16 -25 -164 -178 -329 -340 -219 -215 -314
-301 -348 -317 -48 -23 -52 -23 -533 -23 l-484 0 -126 -124 c-98 -97 -133
-126 -160 -131 -19 -3 -135 -5 -258 -3 -185 2 -224 6 -232 18 -5 8 -10 122
-10 256 l0 241 29 39 c15 21 82 91 147 155 135 131 131 129 290 129 l104 0 0
293 c0 336 3 351 76 435 l46 52 -8361 0 -8361 0 0 -2100z m1466 1790 c34 -35
44 -53 44 -78 l0 -34 31 26 c30 25 36 27 133 24 l101 -3 3 -109 c3 -107 2
-110 -25 -138 l-27 -28 40 0 c35 0 47 -7 112 -70 39 -38 72 -76 72 -83 0 -8
-33 -46 -74 -85 -64 -62 -79 -72 -109 -72 l-36 0 24 -26 c23 -25 25 -34 25
-135 l0 -109 -108 0 c-96 0 -111 2 -127 20 -25 28 -35 25 -35 -11 0 -25 -14
-46 -72 -105 -40 -41 -78 -73 -84 -72 -7 2 -45 34 -83 72 -65 62 -71 72 -71
109 l0 41 -28 -27 c-28 -27 -31 -28 -138 -25 l-109 3 -3 101 c-3 97 -1 103 24
133 l26 31 -32 0 c-26 0 -46 13 -106 72 -41 39 -74 78 -74 87 0 8 30 46 67 83
60 60 72 68 105 68 21 0 38 5 38 10 0 6 -4 10 -10 10 -22 0 -40 61 -40 137 0
129 -5 123 115 123 97 0 105 -2 134 -26 l31 -26 0 38 c0 33 8 46 75 113 l75
75 37 -35 c20 -19 56 -54 79 -79z m10684 64 c82 -40 121 -79 162 -162 l33 -67
0 -1030 0 -1030 -23 -67 c-53 -152 -44 -143 -686 -783 -541 -540 -608 -604
-666 -632 -149 -73 -60 -68 -1205 -68 -1024 0 -1030 0 -1081 21 -69 28 -119
69 -155 127 -62 100 -60 66 -57 1174 l3 1008 24 62 c55 151 49 143 680 774
529 530 603 601 660 629 92 46 137 61 206 70 33 4 506 7 1050 6 l990 -1 65
-31z m2015 3 c17 -10 39 -31 50 -45 19 -26 20 -45 23 -468 l3 -440 -23 -35
c-46 -69 -49 -69 -469 -69 l-376 0 -134 -142 c-74 -79 -154 -163 -177 -188
l-41 -45 -1 188 0 187 -189 0 c-179 0 -190 1 -221 23 -18 12 -43 35 -54 50
-21 28 -21 38 -21 467 l0 438 31 39 c17 21 46 43 65 50 26 9 216 12 769 10
693 -2 737 -3 765 -20z m-11855 -216 l0 -90 46 21 c144 63 304 -49 304 -213 0
-33 -6 -74 -13 -92 -34 -80 -113 -136 -192 -137 -34 0 -46 7 -92 52 l-53 52 0
-47 0 -47 -65 0 -64 0 -3 278 c-2 153 -2 286 0 295 3 14 16 17 68 17 l64 0 0
-89z m1832 -73 l3 -161 58 86 57 87 75 0 c43 0 75 -4 75 -10 0 -5 -31 -52 -70
-104 -38 -52 -70 -100 -70 -106 0 -6 32 -52 70 -104 39 -51 70 -98 70 -104 0
-8 -23 -12 -69 -12 l-70 0 -63 88 -63 87 -3 -88 -3 -88 -67 3 -67 3 -3 293 -2
292 70 0 70 0 2 -162z m-1172 6 c22 -9 40 -21 40 -27 0 -6 7 -1 16 11 12 18
25 22 70 22 l54 0 0 -220 0 -220 -65 0 -65 0 0 47 0 47 -53 -52 c-59 -59 -84
-64 -152 -33 -44 19 -100 78 -117 120 -6 14 -10 55 -11 91 0 166 139 271 283
214z m490 -64 l0 -80 -34 0 c-22 0 -45 -9 -63 -24 -27 -24 -28 -27 -32 -145
l-3 -121 -64 0 -64 0 0 220 0 220 65 0 65 0 0 -31 0 -31 18 21 c14 18 78 49
105 51 4 0 7 -36 7 -80z m339 52 c29 -21 30 -21 36 -2 5 17 15 20 66 20 l59 0
0 -220 0 -220 -65 0 -65 0 0 46 0 47 -56 -53 c-53 -50 -58 -52 -99 -48 -120
14 -203 147 -175 281 15 75 66 139 132 167 39 17 134 6 167 -18z m885 7 c35
-19 40 -19 48 -5 7 12 25 16 68 16 l60 0 0 -220 0 -220 -70 0 -70 0 0 47 0 47
-53 -52 c-59 -59 -84 -64 -153 -33 -129 59 -167 250 -72 365 60 73 164 97 242
55z m3541 -219 c23 -11 52 -35 66 -52 l24 -33 0 -502 c0 -491 0 -502 -21 -529
-38 -51 -70 -68 -139 -72 l-65 -4 0 -205 c0 -113 -4 -203 -9 -201 -4 2 -93 94
-196 205 l-188 203 -596 2 -596 3 -34 24 c-18 13 -42 42 -52 65 -17 38 -19 74
-19 508 0 306 4 476 11 495 14 37 57 82 94 99 24 11 188 13 854 14 804 0 826
0 866 -20z m-5445 -315 c0 -30 4 -55 8 -55 5 0 19 11 32 25 22 23 60 34 60 18
0 -4 -14 -22 -32 -40 l-32 -33 32 -33 c18 -18 32 -36 32 -40 0 -18 -37 -4 -67
25 l-33 32 0 -32 c0 -22 -5 -32 -15 -32 -12 0 -15 19 -15 110 0 91 3 110 15
110 12 0 15 -13 15 -55z m350 15 c0 -13 7 -20 20 -20 11 0 20 -6 20 -14 0 -7
-9 -16 -20 -19 -16 -4 -20 -14 -20 -47 0 -33 4 -43 20 -47 32 -8 24 -33 -10
-33 -35 0 -50 27 -50 91 0 28 -4 39 -15 39 -19 0 -20 16 -2 27 8 4 16 16 20
26 9 24 37 22 37 -3z m-844 -31 c8 -7 14 -7 19 1 9 15 61 12 79 -5 32 -32 35
-137 4 -143 -16 -3 -18 5 -18 58 0 45 -4 62 -15 66 -28 11 -45 -16 -45 -72 0
-47 -2 -54 -20 -54 -18 0 -20 7 -20 60 0 45 -4 62 -15 66 -28 11 -45 -16 -45
-72 0 -41 -4 -54 -15 -54 -12 0 -15 15 -15 79 l0 78 47 1 c26 1 52 -3 59 -9z
m272 -1 c9 -9 12 -9 12 0 0 7 7 12 15 12 12 0 15 -16 15 -80 0 -64 -3 -80 -15
-80 -8 0 -15 4 -15 9 0 6 -12 4 -27 -4 -52 -27 -121 27 -107 85 13 57 87 93
122 58z m112 0 c0 -9 3 -9 12 0 7 7 18 12 25 12 22 0 15 -27 -12 -44 -21 -14
-25 -24 -25 -66 0 -38 -4 -50 -15 -50 -12 0 -15 16 -15 80 0 64 3 80 15 80 8
0 15 -5 15 -12z m366 -13 c16 -16 24 -34 22 -48 -3 -19 -10 -22 -61 -25 -40
-2 -57 -7 -54 -15 5 -16 55 -21 70 -8 8 6 18 6 27 0 23 -15 -15 -39 -62 -39
-48 0 -78 30 -78 79 0 75 83 109 136 56z m15472 -713 c67 -48 67 -50 67 -427
0 -340 0 -340 -24 -378 -12 -21 -40 -46 -62 -57 -38 -20 -73 -20 -2904 -20
-2831 0 -2866 0 -2904 20 -22 11 -50 36 -62 57 -24 38 -24 38 -24 378 0 323 1
342 20 375 12 21 39 44 65 58 l44 22 2876 -2 2875 -3 33 -23z m-12970 -199 c3
-22 1 -23 -82 -23 -77 0 -86 2 -86 18 0 30 10 33 90 30 69 -3 75 -5 78 -25z
m-4428 -248 c0 -168 1 -175 20 -175 18 0 20 -7 20 -65 0 -63 -1 -65 -25 -65
-22 0 -25 4 -25 40 l0 40 -145 0 -145 0 0 -40 c0 -36 -2 -40 -25 -40 -24 0
-25 2 -25 64 0 59 2 65 22 68 39 5 52 56 73 281 l7 67 124 0 124 0 0 -175z
m390 153 c26 -14 57 -41 75 -66 27 -39 30 -52 30 -117 0 -65 -3 -78 -30 -116
-71 -101 -218 -118 -311 -36 -50 43 -67 82 -68 152 0 45 6 71 24 103 54 96
178 131 280 80z m480 -178 l0 -200 -25 0 -25 0 0 170 0 171 -72 -3 -73 -3 -11
-125 c-14 -167 -37 -210 -113 -210 -26 0 -31 4 -31 25 0 18 5 25 20 25 45 0
56 28 69 181 7 79 14 150 16 157 3 9 37 12 125 12 l120 0 0 -200z m318 168 l3
-28 -80 0 -81 0 0 -170 0 -170 -30 0 -30 0 0 200 0 201 108 -3 107 -3 3 -27z
m307 13 c151 -68 153 -292 5 -367 -150 -77 -331 48 -305 210 18 109 94 174
205 175 33 0 71 -7 95 -18z m452 4 c48 -20 71 -41 94 -87 l19 -38 -25 0 c-17
0 -39 13 -63 39 -51 53 -104 62 -169 29 -62 -31 -86 -75 -79 -146 8 -87 55
-131 141 -131 61 -1 94 15 120 56 14 23 28 32 48 33 33 0 33 -3 2 -56 -89
-152 -327 -109 -366 68 -37 162 125 297 278 233z m355 5 c73 -21 113 -104 84
-173 -22 -53 -67 -77 -143 -77 l-63 0 0 -70 0 -70 -30 0 -30 0 0 193 c0 107 3
197 7 200 10 11 134 8 175 -3z m438 -12 c26 -14 57 -41 75 -66 27 -39 30 -52
30 -117 0 -65 -3 -78 -30 -116 -71 -101 -218 -118 -311 -36 -50 43 -67 82 -68
152 0 158 162 255 304 183z m220 -66 c4 -73 8 -86 29 -103 25 -21 75 -25 115
-9 24 9 25 13 28 102 3 92 3 93 28 93 l25 0 3 -197 2 -198 -30 0 -30 0 0 74 0
74 -41 -9 c-84 -19 -159 19 -179 89 -11 42 -14 155 -3 166 4 4 16 6 28 4 18
-3 21 -12 25 -86z m388 1 l3 -83 94 0 94 0 3 83 c3 80 4 82 28 82 l25 0 3
-197 2 -198 -30 0 -30 0 0 85 0 85 -95 0 -95 0 0 -85 0 -85 -30 0 -30 0 0 201
0 200 28 -3 c27 -3 27 -4 30 -85z m410 16 l3 -66 62 -5 c35 -3 77 -13 95 -22
82 -42 83 -172 2 -220 -21 -12 -53 -16 -124 -16 l-96 0 0 193 c0 107 3 197 7
201 4 4 16 6 28 4 17 -3 20 -11 23 -69z m332 -129 l0 -200 -30 0 -30 0 0 193
c0 107 3 197 7 200 3 4 17 7 30 7 l23 0 0 -200z m160 55 l5 -140 105 142 c63
86 112 143 122 143 16 0 17 -19 20 -200 l3 -200 -27 0 -28 0 0 147 0 147 -107
-147 c-83 -112 -113 -146 -130 -147 l-23 0 0 201 0 200 28 -3 27 -3 5 -140z
m-4250 -710 c0 -168 1 -175 20 -175 18 0 20 -7 20 -65 0 -63 -1 -65 -25 -65
-23 0 -25 4 -25 40 l0 41 -142 -3 -143 -3 0 -38 c0 -34 -2 -37 -27 -37 -28 0
-28 1 -28 64 0 59 2 65 22 68 13 2 28 15 35 29 10 21 42 252 43 307 0 9 32 12
125 12 l125 0 0 -175z m385 156 c79 -36 121 -112 113 -207 -14 -165 -218 -243
-344 -131 -50 43 -67 82 -68 152 0 91 39 152 124 192 39 18 130 15 175 -6z
m403 -13 l3 -28 -80 0 -81 0 0 -170 0 -170 -30 0 -30 0 0 200 0 201 108 -3
107 -3 3 -27z m317 13 c79 -36 121 -112 113 -207 -14 -165 -218 -243 -344
-131 -50 43 -67 82 -67 152 0 88 43 157 118 191 43 19 133 17 180 -5z m377 9
c20 -6 46 -22 58 -37 26 -33 26 -93 1 -124 -19 -23 -19 -24 5 -52 37 -44 33
-100 -10 -143 l-34 -34 -106 0 -106 0 0 200 0 200 78 0 c42 0 94 -5 114 -10z
m436 -5 c77 -33 121 -102 122 -191 1 -176 -212 -269 -346 -151 -50 43 -67 82
-68 152 0 91 39 152 124 192 36 17 125 15 168 -2z m384 5 c73 -21 113 -104 84
-173 -22 -53 -67 -77 -143 -77 l-63 0 0 -70 0 -70 -30 0 -30 0 0 200 0 200 73
0 c39 0 89 -5 109 -10z m530 -172 c43 -101 80 -191 84 -200 5 -15 1 -18 -24
-18 -26 0 -31 6 -46 45 l-18 45 -93 0 -93 0 -18 -45 c-14 -39 -21 -45 -45 -45
-16 0 -29 2 -29 4 0 5 150 378 157 389 2 4 14 7 26 7 20 0 33 -23 99 -182z
m327 172 c78 -22 118 -101 87 -174 -22 -52 -67 -76 -143 -76 l-63 0 0 -70 0
-70 -30 0 -30 0 0 200 0 200 73 0 c39 0 88 -4 106 -10z m389 -22 l3 -28 -85 0
-86 0 0 -55 0 -55 75 0 75 0 0 -30 0 -30 -75 0 -75 0 0 -60 0 -60 90 0 c89 0
90 0 90 -25 l0 -25 -120 0 -120 0 0 200 0 201 113 -3 112 -3 3 -27z m140 -55
l3 -83 94 0 94 0 3 83 c3 80 4 82 28 82 l25 0 3 -197 2 -198 -30 0 -30 0 0 85
0 85 -95 0 -95 0 0 -85 0 -85 -30 0 -30 0 0 201 0 200 28 -3 c27 -3 27 -4 30
-85z m662 -88 c0 -168 1 -175 20 -175 18 0 20 -7 20 -65 0 -63 -1 -65 -25 -65
-22 0 -25 4 -25 40 l0 40 -145 0 -145 0 0 -40 c0 -37 -2 -40 -27 -40 l-28 0 3
64 c3 58 6 65 25 68 12 2 27 15 34 29 10 21 42 252 43 307 0 9 32 12 125 12
l125 0 0 -175z m168 103 l3 -68 52 0 c67 -1 131 -29 151 -69 21 -39 20 -96 0
-131 -29 -48 -62 -60 -168 -60 l-96 0 0 201 0 200 28 -3 c26 -3 27 -5 30 -70z
m332 -128 l0 -200 -30 0 -30 0 0 193 c0 107 3 197 7 200 3 4 17 7 30 7 l23 0
0 -200z m7947 -33 c93 -59 126 -191 73 -287 -15 -27 -45 -58 -74 -77 -42 -29
-57 -33 -113 -33 -71 0 -121 20 -165 67 -99 104 -64 283 66 345 59 27 157 20
213 -15z m1341 -75 c3 -28 6 -31 27 -26 34 8 91 -13 109 -41 26 -40 21 -92
-13 -126 -28 -27 -34 -29 -105 -27 l-76 1 0 129 0 129 28 -3 c22 -2 28 -8 30
-36z m834 -34 l3 -73 25 37 c19 28 32 38 53 38 33 0 34 -6 1 -53 l-25 -38 30
-41 c38 -51 38 -58 4 -58 -21 0 -35 11 -58 43 l-30 42 -3 -42 c-3 -38 -6 -43
-28 -43 l-24 0 0 130 0 130 25 0 c23 0 24 -3 27 -72z m1110 0 l3 -73 25 37
c20 31 31 38 58 38 l33 0 -31 -45 -31 -46 30 -41 c38 -52 38 -58 2 -58 -22 0
-35 9 -57 43 l-29 42 -3 -42 c-3 -38 -6 -43 -28 -43 l-24 0 0 130 0 130 25 0
c23 0 24 -3 27 -72z m-2412 27 c0 -20 5 -25 25 -25 18 0 25 -5 25 -20 0 -15
-7 -20 -26 -20 -24 0 -25 -2 -22 -52 3 -46 6 -53 26 -56 14 -2 22 -10 22 -23
0 -29 -54 -26 -85 6 -20 19 -25 34 -25 75 0 38 -4 50 -15 50 -23 0 -18 11 22
52 43 45 53 47 53 13z m318 -2 c43 -23 76 -91 68 -137 -9 -47 -35 -67 -87 -65
-24 0 -62 0 -84 -1 -32 -2 -44 3 -62 25 -29 33 -29 67 0 101 23 27 27 27 115
24 31 -1 32 -2 32 -48 0 -59 11 -80 30 -57 18 22 6 84 -24 113 -17 18 -39 26
-75 30 -47 4 -53 2 -86 -31 -29 -29 -35 -42 -35 -79 0 -77 59 -125 133 -108
32 7 37 5 37 -10 0 -22 -19 -30 -72 -30 -58 0 -106 26 -128 71 -28 54 -26 116
5 162 14 20 27 37 28 37 1 0 20 7 42 15 47 18 116 13 163 -12z m2492 2 c0 -21
5 -25 30 -25 23 0 30 -4 30 -20 0 -16 -7 -20 -30 -20 -29 0 -30 -2 -30 -43 0
-46 13 -67 42 -67 11 0 18 -7 18 -20 0 -16 -7 -20 -35 -20 -53 0 -75 28 -75
95 0 42 -3 55 -15 55 -24 0 -18 20 18 56 38 40 47 42 47 9z m-3142 -51 c12
-14 22 -38 22 -55 l0 -29 -70 0 c-70 0 -83 -7 -55 -30 16 -13 65 -6 65 10 0 6
14 10 30 10 36 0 38 -13 5 -45 -58 -59 -175 -14 -175 68 0 38 30 83 64 98 33
14 89 1 114 -27z m191 21 c36 -18 41 -31 41 -116 l0 -70 -27 3 c-27 3 -28 5
-31 68 -3 76 -22 102 -54 73 -14 -12 -18 -31 -18 -80 0 -61 -1 -63 -25 -63
-25 0 -25 0 -25 95 l0 94 35 -1 c19 -1 38 2 42 5 10 11 32 8 62 -8z m949 4
l32 1 0 -93 0 -93 -76 -2 c-72 -1 -78 0 -105 28 -66 66 -5 182 86 163 17 -3
45 -5 63 -4z m370 0 l32 2 0 -94 0 -94 -76 -1 c-90 -1 -119 13 -134 66 -19 72
39 139 110 127 19 -4 50 -6 68 -6z m420 0 l32 2 0 -94 0 -94 -76 -1 c-90 -1
-119 13 -133 65 -7 26 -7 44 3 67 21 51 55 69 111 59 17 -3 45 -5 63 -4z m225
0 c9 0 33 2 52 3 58 3 75 -21 75 -114 0 -76 -1 -78 -24 -78 -22 0 -24 4 -28
71 -4 80 -21 103 -50 68 -13 -15 -18 -39 -18 -80 0 -56 -1 -59 -25 -59 -23 0
-24 3 -27 72 -3 62 -6 73 -22 76 -27 6 -36 -15 -36 -86 0 -63 0 -63 -27 -60
l-28 3 -3 93 -3 93 35 -3 c20 -1 39 1 43 6 4 4 21 4 38 1 16 -4 38 -7 48 -6z
m325 0 l32 1 0 -93 0 -93 -75 -2 c-64 -1 -78 2 -100 21 -74 63 -15 188 80 171
17 -3 45 -5 63 -5z m555 -29 c15 -17 27 -41 27 -55 0 -24 -2 -25 -75 -25 -62
0 -73 -2 -69 -15 9 -23 52 -30 73 -11 22 20 61 21 61 2 0 -26 -50 -56 -92 -56
-80 0 -125 69 -90 140 33 68 113 78 165 20z m-3203 10 c0 -14 -7 -20 -23 -20
-37 0 -47 -19 -47 -87 0 -61 -1 -63 -25 -63 -25 0 -25 0 -25 94 l0 94 60 1
c53 0 60 -2 60 -19z m1500 0 c0 -15 -7 -20 -25 -20 -32 0 -45 -26 -45 -94 0
-53 -1 -56 -25 -56 -25 0 -25 0 -25 94 l0 94 60 1 c53 0 60 -2 60 -19z m1340
-1 c0 -14 -7 -19 -25 -19 -32 0 -45 -26 -45 -94 0 -53 -1 -56 -25 -56 -25 0
-25 0 -25 94 l0 93 60 1 c53 1 60 -1 60 -19z m680 -43 c0 -69 14 -92 50 -81
18 6 20 15 20 76 l0 69 30 0 30 0 0 -70 c0 -62 -3 -74 -25 -95 -32 -33 -98
-35 -132 -3 -20 19 -23 31 -23 95 0 71 1 73 25 73 24 0 25 -2 25 -64z m299 42
c-7 -12 -27 -46 -46 -75 l-34 -53 46 0 c38 0 45 -3 45 -20 0 -18 -7 -20 -80
-20 -49 0 -80 4 -80 10 0 6 18 39 40 73 l39 62 -39 3 c-32 3 -40 7 -40 23 0
17 7 19 80 19 80 0 81 0 69 -22z m-379 -144 c0 -22 -4 -25 -27 -22 -20 2 -29
9 -31 26 -3 19 1 22 27 22 27 0 31 -4 31 -26z m-13292 -101 c3 -22 1 -23 -82
-23 -77 0 -86 2 -86 18 0 30 10 33 90 30 69 -3 75 -5 78 -25z m3245 -45 c25
-29 21 -59 -13 -106 -16 -23 -30 -43 -30 -45 0 -2 15 -3 33 -3 26 1 32 -3 32
-19 0 -18 -8 -20 -64 -23 -98 -5 -100 -1 -42 69 58 69 67 109 26 109 -16 0
-25 -6 -25 -15 0 -8 -9 -15 -20 -15 -39 0 -16 56 30 73 23 8 53 -2 73 -25z
m-6585 -230 l2 -198 -25 0 -25 0 0 170 0 170 -90 0 -90 0 0 -170 0 -170 -30 0
-30 0 0 193 c0 107 3 197 7 201 4 3 68 5 142 4 l136 -3 3 -197z m404 167 c82
-58 112 -170 67 -261 -56 -116 -221 -151 -318 -67 -58 49 -75 86 -74 160 1 89
30 135 117 186 23 13 48 17 98 14 55 -2 75 -8 110 -32z m252 13 c8 -13 38 -76
67 -141 28 -65 55 -115 60 -110 4 4 34 66 66 138 87 192 102 186 143 -61 16
-98 30 -185 30 -191 0 -20 -48 -16 -54 5 -3 9 -12 64 -21 122 -23 148 -28 157
-54 97 -62 -143 -105 -227 -115 -224 -6 2 -37 63 -70 135 -33 73 -63 132 -66
132 -3 0 -14 -48 -23 -107 -10 -60 -21 -123 -24 -140 -4 -29 -9 -33 -35 -33
-23 0 -28 4 -24 18 2 9 17 93 32 185 31 192 51 231 88 175z m660 16 c9 -3 16
-17 16 -30 0 -23 -2 -24 -85 -24 l-85 0 0 -55 0 -55 75 0 75 0 0 -30 0 -30
-74 0 -74 0 -4 -56 c-1 -31 -1 -58 1 -60 2 -2 43 -4 91 -4 84 0 87 -1 86 -22
-1 -22 -5 -23 -118 -26 l-118 -3 0 195 c0 146 3 196 13 199 18 8 182 8 201 1z
m140 0 c14 -5 16 -30 16 -176 l0 -169 66 3 66 3 -1 161 c-2 168 4 193 43 178
14 -5 16 -28 16 -175 l0 -169 70 0 70 0 2 173 c3 164 4 172 23 172 19 0 20 -8
23 -172 2 -169 3 -172 25 -175 20 -3 22 -9 24 -65 l2 -63 -30 0 c-27 0 -30 3
-29 28 1 15 2 33 1 40 -1 9 -51 12 -216 12 l-215 0 0 193 c0 107 3 197 7 200
8 9 17 9 37 1z m741 -24 c0 -24 -2 -25 -83 -30 -45 -3 -82 -8 -82 -12 0 -5 0
-28 0 -53 l0 -45 75 0 75 0 0 -30 0 -30 -75 0 -75 0 0 -60 0 -59 88 -3 c82 -3
87 -4 90 -25 3 -23 2 -23 -117 -23 l-121 0 0 194 c0 146 3 196 13 200 6 2 57
4 112 3 99 -2 100 -2 100 -27z m129 24 c13 -5 16 -22 16 -85 l0 -79 95 0 95 0
0 79 c0 82 9 98 45 85 13 -5 15 -37 15 -200 l0 -194 -30 0 -30 0 0 85 0 86
-96 -3 -97 -3 1 -82 1 -83 -30 0 -29 0 0 193 c0 107 3 197 7 200 8 9 17 9 37
1z m404 -3 c10 -6 12 -39 10 -139 -2 -73 0 -132 4 -132 3 0 50 60 104 133 149
202 144 203 144 -53 l0 -200 -25 0 -24 0 -3 143 -3 142 -82 -110 c-45 -60 -92
-125 -105 -142 -14 -20 -32 -33 -45 -33 l-23 0 0 194 c0 189 2 201 30 205 3 0
11 -3 18 -8z m428 -129 c1 -73 3 -135 6 -137 3 -3 48 52 101 123 103 138 120
157 137 147 6 -4 10 -76 10 -201 l0 -194 -25 0 -25 0 -1 133 c-1 72 -1 135 0
140 3 17 -11 3 -58 -60 -28 -38 -54 -72 -59 -78 -4 -5 -29 -40 -56 -76 -36
-51 -53 -65 -67 -62 -18 5 -19 17 -19 198 0 199 2 207 40 202 12 -2 15 -25 16
-135z m674 91 c62 -56 46 -139 -46 -242 -24 -27 -44 -52 -44 -55 0 -3 32 -6
70 -6 68 0 70 -1 70 -25 l0 -25 -125 0 c-84 0 -125 4 -125 11 0 6 24 36 54 67
124 129 152 182 122 227 -27 42 -103 30 -113 -16 -4 -22 -11 -29 -29 -29 -45
0 -28 77 24 104 46 25 107 20 142 -11z m315 7 c51 -32 70 -80 70 -180 0 -74
-3 -90 -25 -122 -66 -99 -198 -83 -246 29 -21 48 -17 159 6 210 34 77 125 106
195 63z m356 -3 c98 -66 88 -302 -14 -350 -68 -33 -139 -13 -177 48 -34 55
-40 174 -12 238 37 83 131 113 203 64z m539 14 c0 -5 -21 -53 -46 -107 -74
-158 -73 -144 -4 -144 59 0 60 0 60 29 0 57 12 91 31 91 17 0 19 -8 19 -60 0
-54 2 -60 21 -60 15 0 20 -5 17 -22 -2 -13 -10 -23 -18 -23 -10 0 -16 -12 -18
-37 -3 -33 -7 -38 -28 -38 -21 0 -24 5 -24 35 l0 35 -95 0 c-66 0 -95 4 -95
12 0 17 123 282 135 290 14 11 45 10 45 -1z m357 -11 c18 -10 40 -34 49 -52
22 -43 30 -154 14 -204 -42 -133 -195 -153 -257 -35 -30 58 -32 166 -3 228 34
77 127 106 197 63z m348 0 c51 -32 70 -80 70 -180 0 -74 -3 -90 -25 -122 -70
-106 -214 -81 -250 42 -16 57 -12 150 10 197 34 77 125 106 195 63z m7043 -25
c166 -70 171 -317 8 -394 -92 -43 -203 -20 -264 55 -91 110 -57 271 73 338 39
20 135 20 183 1z m-6616 -132 l50 -108 49 103 c48 100 70 125 90 105 5 -5 22
-76 38 -156 l28 -147 -27 0 c-26 0 -27 3 -47 108 l-19 107 -52 -107 c-29 -60
-56 -108 -60 -108 -4 0 -29 47 -56 105 -27 58 -51 103 -53 102 -2 -2 -10 -40
-18 -83 -24 -127 -23 -124 -51 -124 -22 0 -25 4 -21 23 3 12 15 76 27 142 27
151 25 145 50 145 17 0 31 -22 72 -107z m7227 8 c10 -10 21 -25 25 -32 5 -12
7 -12 12 0 24 53 114 71 154 31 36 -36 36 -66 -2 -138 -31 -60 -38 -67 -68
-70 l-33 -3 21 35 21 35 -29 6 c-28 6 -54 28 -62 54 -2 7 -20 -18 -40 -55 -32
-62 -39 -69 -68 -72 l-33 -3 21 35 21 35 -30 6 c-16 4 -38 18 -49 32 -19 25
-20 25 -20 4 0 -17 -6 -21 -30 -21 -27 0 -30 -3 -30 -30 0 -25 -4 -30 -25 -30
-21 0 -25 5 -25 30 0 27 -3 30 -30 30 -25 0 -30 4 -30 25 0 21 5 25 30 25 27
0 30 3 30 30 0 25 4 30 25 30 21 0 25 -5 25 -30 0 -26 3 -30 29 -30 22 0 30 6
35 25 4 14 15 34 26 45 27 27 102 28 129 1z m386 -1 c13 -15 16 -29 11 -59 -3
-23 -2 -42 4 -46 5 -3 10 -22 10 -41 0 -28 -6 -38 -32 -55 -84 -52 -185 23
-133 98 10 14 12 24 5 28 -16 10 -12 56 7 77 23 26 104 25 128 -2z m276 1 c35
-28 31 -82 -10 -153 -28 -51 -36 -58 -63 -58 l-30 0 20 34 21 35 -29 6 c-54
12 -80 66 -56 114 18 35 28 39 82 40 27 1 50 -6 65 -18z m189 0 c0 -16 -8 -20
-42 -23 -31 -2 -44 -8 -46 -20 -2 -13 3 -18 18 -18 47 0 89 -38 89 -80 0 -49
-50 -86 -105 -76 -50 10 -89 76 -44 76 11 0 29 -9 41 -21 16 -16 23 -18 35 -8
19 15 18 55 -2 63 -9 3 -31 6 -50 6 -31 0 -34 3 -34 29 0 16 3 43 6 60 6 31 7
31 70 31 57 0 64 -2 64 -19z m268 3 c23 -16 31 -67 11 -79 -7 -5 -5 -15 5 -31
21 -32 20 -48 -7 -79 -51 -60 -157 -34 -157 39 0 17 5 37 11 43 8 8 8 17 0 31
-16 30 -14 45 9 70 25 27 94 30 128 6z m202 5 c0 -6 -9 -24 -20 -39 l-20 -29
25 -25 c69 -69 -15 -168 -104 -122 -17 9 -31 21 -31 25 0 5 -3 16 -6 25 -9 24
38 21 59 -4 19 -22 43 -17 52 11 9 27 -10 47 -46 51 l-29 3 25 38 26 37 -41 0
c-33 0 -40 3 -40 20 0 18 7 20 75 20 48 0 75 -4 75 -11z m175 5 c41 -16 60
-126 30 -183 -27 -53 -111 -65 -150 -21 -20 22 -31 104 -21 145 11 41 41 65
85 65 22 0 47 -3 56 -6z m296 -4 c33 -18 52 -68 46 -124 -12 -124 -155 -144
-187 -25 -23 84 17 159 85 159 20 0 45 -5 56 -10z m233 -21 c46 -55 32 -165
-25 -195 -45 -23 -78 -17 -110 17 -25 26 -29 39 -29 86 0 55 19 107 42 116 7
3 32 6 55 6 34 1 46 -4 67 -30z m206 25 c0 -3 -11 -21 -24 -40 l-23 -35 28
-29 c16 -16 29 -38 29 -50 0 -32 -53 -80 -88 -80 -36 0 -82 34 -82 61 0 26 41
25 58 -1 10 -17 16 -18 32 -10 11 6 20 21 20 34 0 24 -17 36 -51 36 -24 0 -24
1 2 44 l21 36 -41 0 c-34 0 -41 3 -41 20 0 18 7 20 80 20 44 0 80 -2 80 -6z
m170 -14 c0 -17 -7 -20 -45 -20 -38 0 -45 -3 -45 -20 0 -13 7 -20 20 -20 55 0
99 -53 86 -105 -9 -33 -59 -59 -102 -50 -50 9 -89 75 -44 75 11 0 29 -9 41
-21 16 -16 23 -18 35 -8 19 15 18 55 -2 63 -9 3 -31 6 -50 6 -31 0 -34 3 -34
29 0 16 3 43 6 60 6 31 7 31 70 31 57 0 64 -2 64 -20z m-10980 -55 c0 -25 0
-25 -95 -25 -95 0 -95 0 -95 25 0 25 0 25 95 25 95 0 95 0 95 -25z"/>
<path d="M1360 3660 c0 -22 4 -40 8 -40 10 0 72 63 72 73 0 4 -18 7 -40 7
l-40 0 0 -40z"/>
<path d="M1615 3660 c21 -22 42 -40 46 -40 5 0 6 27 1 68 -1 7 -18 12 -44 12
l-42 0 39 -40z"/>
<path d="M1452 3607 c-29 -29 -52 -57 -52 -63 0 -6 25 -35 56 -64 l56 -53 61
61 62 62 -55 55 c-30 30 -59 55 -65 55 -6 0 -34 -24 -63 -53z"/>
<path d="M1360 3440 l0 -40 42 0 42 0 -39 40 c-21 22 -40 40 -42 40 -2 0 -3
-18 -3 -40z"/>
<path d="M1620 3435 l-34 -35 40 0 c40 0 40 0 36 35 -2 19 -5 35 -6 35 -1 0
-17 -16 -36 -35z"/>
<path d="M9871 3841 c-45 -45 -48 -53 -26 -71 8 -7 15 -23 15 -36 0 -24 14
-32 25 -14 3 6 42 10 86 10 l79 0 0 -78 c0 -47 -5 -83 -12 -90 -9 -9 -8 -12 8
-12 25 0 114 -90 114 -115 0 -25 -103 -107 -125 -99 -16 7 -20 -6 -6 -22 5 -5
6 -43 2 -84 l-6 -75 -75 3 c-61 3 -78 7 -93 24 -20 23 -19 24 -32 -16 -6 -17
-34 -50 -64 -74 l-54 -44 -49 49 c-27 26 -52 60 -55 75 -4 23 -8 26 -24 18
-10 -6 -54 -10 -98 -10 -78 0 -81 1 -87 26 -9 34 4 134 19 152 9 12 9 14 0 11
-28 -10 -591 -577 -618 -623 -38 -65 -63 -144 -71 -221 l-7 -64 132 -3 c125
-3 132 -2 136 17 2 11 11 97 21 190 9 94 18 176 20 183 2 8 25 12 69 12 77 0
73 24 45 -225 -38 -348 -70 -645 -70 -652 0 -21 24 22 30 54 l8 38 1 -42 c1
-33 -5 -47 -28 -70 -24 -24 -29 -38 -30 -83 -5 -188 -9 -257 -15 -271 -4 -10
-2 -16 7 -16 11 0 16 24 21 97 4 53 11 109 16 125 10 33 9 20 -10 -167 -14
-141 -13 -178 6 -178 10 0 14 -6 10 -17 -2 -10 -7 -36 -11 -59 l-6 -41 43 -6
c23 -3 45 -4 47 -1 9 8 40 193 52 303 6 62 9 140 6 172 -5 54 4 86 16 57 3 -7
6 -2 7 12 0 14 11 33 25 42 23 18 24 17 44 -11 11 -15 32 -59 46 -97 31 -84
85 -247 82 -249 -6 -5 -151 -25 -177 -25 -35 0 -33 5 -55 -120 -10 -52 -20
-101 -22 -107 -4 -9 -24 -11 -66 -8 l-62 5 56 -13 c31 -6 55 -16 53 -22 -1 -5
-5 -31 -9 -58 l-6 -47 -195 0 c-107 0 -194 -3 -194 -7 0 -5 52 -7 117 -6 64 2
121 -1 127 -5 6 -4 39 -7 74 -7 l62 1 0 -34 c0 -25 -5 -35 -20 -39 -11 -3 -17
-9 -14 -14 3 -5 -13 -9 -35 -9 -27 0 -41 4 -41 13 0 10 -31 13 -135 13 -106 0
-134 -3 -131 -13 3 -7 -2 -13 -10 -13 -8 0 -13 4 -10 9 3 5 0 11 -8 14 -9 4
-13 -2 -13 -18 0 -17 6 -25 21 -27 25 -4 29 -33 4 -33 -9 0 -20 -4 -25 -9 -4
-4 47 -6 115 -3 67 2 125 7 129 10 3 4 1 7 -5 7 -7 0 -12 7 -12 15 0 11 12 14
49 14 27 -1 54 2 60 5 6 4 11 3 11 -2 0 -6 6 -10 13 -9 30 1 47 -4 47 -14 0
-5 -12 -9 -27 -8 -49 4 -117 -1 -110 -7 4 -4 35 -7 69 -8 61 -1 63 -2 66 -29
l3 -27 -175 0 c-97 0 -176 -3 -176 -7 0 -5 24 -7 54 -7 30 1 60 -2 68 -7 11
-8 -113 -15 -164 -10 -10 1 -18 -3 -18 -8 0 -11 12 -15 43 -12 10 2 21 -8 26
-21 l10 -23 0 23 c1 23 26 31 34 10 4 -10 6 -10 6 0 1 6 7 12 14 12 9 0 12
-11 9 -34 -3 -27 -9 -35 -29 -39 -13 -2 -30 2 -39 10 -8 8 -14 10 -14 4 0 -6
-10 -11 -22 -12 -22 -1 -22 -1 2 -9 24 -8 23 -8 -7 -9 -33 -1 -45 -15 -20 -23
13 -4 285 -2 302 2 6 2 19 -1 29 -5 11 -5 31 -4 47 2 28 11 28 10 26 -27 -2
-21 0 -37 4 -34 3 2 20 0 36 -5 20 -6 40 -4 62 5 41 17 75 18 65 2 -5 -8 -3
-8 7 -2 8 5 43 9 79 9 59 0 65 2 62 20 -2 10 -11 25 -20 32 -14 11 -6 13 53
12 39 0 125 0 193 0 l122 1 -1 33 c-2 30 -2 30 -6 5 -4 -24 -9 -28 -39 -28
-19 0 -34 5 -34 10 0 6 6 10 13 9 40 -5 47 1 47 41 0 38 2 40 30 40 17 0 30 4
30 8 0 4 -30 7 -67 7 -38 0 -74 3 -80 8 -9 6 -13 5 -13 -4 0 -10 -3 -10 -12
-1 -8 8 -8 15 3 29 11 15 9 14 -9 -2 -19 -15 -25 -17 -31 -6 -7 11 -11 10 -19
-4 -5 -11 -14 -15 -22 -10 -9 6 -9 9 1 16 8 5 -20 7 -66 6 -80 -2 -80 -2 -83
25 l-3 27 373 1 c205 0 432 3 504 6 139 7 156 2 132 -36 -9 -13 -23 -20 -45
-20 -17 0 -34 -6 -36 -12 -4 -10 -6 -10 -6 0 -1 6 -14 12 -30 12 -16 0 -32 -6
-34 -12 -4 -10 -6 -10 -6 0 -1 7 -14 11 -33 11 -31 -2 -31 -2 -5 -6 30 -5 36
-18 12 -27 -8 -3 -15 -1 -15 4 0 6 -9 10 -20 10 -11 0 -20 5 -20 10 0 12 -47
13 -54 1 -3 -4 7 -6 22 -4 l27 5 -29 -17 c-16 -8 -37 -13 -45 -9 -25 11 -80
14 -85 6 -2 -4 -23 -6 -46 -4 -30 3 -40 8 -36 18 4 10 -3 14 -24 14 -20 0 -31
-6 -35 -20 -7 -21 -25 -28 -25 -9 0 8 -5 7 -15 -1 -9 -7 -14 -15 -11 -17 7 -7
96 -10 96 -3 0 4 11 5 25 2 14 -2 25 -11 25 -19 0 -8 5 -11 11 -7 8 5 10 -3 7
-25 -4 -29 -3 -31 27 -31 29 0 32 3 31 30 -1 34 -19 35 -24 2 -2 -12 -8 -22
-14 -22 -5 0 -7 7 -4 16 3 9 6 24 6 35 0 12 7 19 19 19 22 0 31 -19 31 -66 l0
-34 78 -1 c42 -1 90 0 106 1 16 1 33 -4 37 -12 7 -10 9 -10 9 0 0 8 21 12 70
12 40 0 70 -4 70 -10 0 -5 5 -10 11 -10 5 0 7 4 4 10 -4 6 36 10 112 11 65 0
147 3 183 5 71 5 77 -3 9 -14 -30 -5 -45 -13 -47 -25 -3 -14 3 -17 27 -15 17
1 31 5 31 9 0 8 114 34 193 44 46 6 52 4 118 -40 38 -26 69 -51 69 -56 0 -12
27 -11 35 0 3 6 -16 25 -42 43 -35 24 -43 34 -30 36 9 2 17 8 17 13 0 5 82 10
193 10 105 1 182 4 169 6 -12 2 -20 9 -17 14 4 5 -1 9 -9 9 -8 0 -18 -4 -21
-10 -3 -5 -34 -9 -68 -8 l-62 1 50 7 c34 5 1 7 -102 8 -135 2 -152 4 -156 20
-4 13 -5 12 -6 -5 -1 -18 -6 -21 -28 -17 -30 6 -48 25 -32 35 5 3 7 13 4 22
-5 12 0 16 24 15 19 -1 32 -7 34 -17 4 -13 5 -13 6 -1 2 23 131 24 132 1 0
-14 1 -14 7 0 6 13 28 15 137 15 72 -1 136 -5 144 -10 10 -6 12 -6 7 3 -5 8 2
10 25 9 17 -2 34 2 36 9 5 13 -100 23 -121 11 -6 -4 -18 -3 -26 2 -7 4 -24 4
-38 -1 -22 -8 -24 -7 -19 11 4 16 0 20 -18 20 -13 0 -27 -5 -31 -12 -5 -8 -2
-9 9 -5 9 3 19 2 22 -3 6 -10 -48 -14 -145 -13 -92 2 -93 2 -86 21 6 16 5 16
-8 0 -15 -21 -123 -27 -110 -7 3 6 0 15 -7 20 -28 17 4 21 150 21 124 0 149 2
144 14 -6 17 -7 17 177 19 180 3 240 6 218 12 -19 5 -25 33 -7 33 5 0 7 -6 3
-12 -6 -10 -4 -10 7 0 7 6 21 12 31 12 10 0 18 5 18 10 0 6 -63 10 -170 10
-107 0 -170 4 -170 10 0 6 -35 10 -85 10 -72 0 -85 3 -85 16 0 12 6 15 21 11
15 -4 18 -3 9 7 -8 10 -4 12 17 8 16 -2 34 -10 42 -16 12 -9 13 -8 6 3 -6 11
-4 13 8 8 9 -3 27 -2 39 3 13 5 17 9 9 9 -8 1 -12 3 -9 6 9 9 38 -7 32 -17 -4
-6 4 -4 17 3 13 7 29 12 34 10 6 -2 89 -5 186 -6 l176 -3 91 91 92 92 -7 118
c-3 65 -9 113 -13 107 -16 -25 -124 -39 -159 -20 -27 14 -34 68 -16 128 9 29
13 58 9 64 -4 7 -3 8 4 4 7 -4 20 10 33 36 23 48 67 98 84 98 6 0 18 -8 26
-18 13 -15 16 -42 14 -143 l-3 -124 8 110 c8 123 7 115 18 115 5 0 12 -97 15
-216 4 -119 9 -219 12 -222 3 -3 19 7 35 24 28 28 29 33 33 139 2 61 8 118 12
128 6 15 22 17 110 17 l103 0 20 48 c21 49 42 145 42 194 0 24 -4 28 -30 28
-19 0 -30 5 -31 15 -1 8 -3 20 -4 25 -1 6 -3 30 -4 55 -1 43 -2 45 -30 45 -36
0 -66 -11 -53 -19 5 -3 12 -18 16 -33 6 -26 4 -28 -28 -28 -62 0 -93 26 -38
32 19 2 27 9 27 23 0 12 -7 20 -17 20 -9 0 -20 4 -24 8 -4 4 -14 7 -23 7 -14
0 -14 -2 -1 -10 12 -7 12 -12 2 -22 -9 -9 -12 -9 -12 1 0 6 -14 17 -31 23 -17
6 -27 14 -22 18 13 13 83 40 83 32 0 -4 -16 -14 -36 -22 -36 -15 -34 -15 67
-14 202 2 189 0 189 35 l0 31 -82 -5 c-46 -2 -94 -8 -108 -12 -18 -5 -21 -4
-11 3 11 8 7 11 -20 15 -19 2 23 5 94 5 l127 2 0 25 0 25 -37 -16 c-21 -9 -49
-18 -63 -21 -14 -2 3 8 38 23 54 23 62 30 62 53 0 24 -10 30 -104 69 -100 42
-106 43 -165 34 -33 -5 -61 -5 -61 -1 0 4 8 10 18 12 13 4 11 5 -6 6 -22 1
-22 -1 -16 -71 7 -93 8 -96 36 -101 l23 -4 -23 -2 c-22 -1 -23 -5 -21 -53 1
-29 6 -60 10 -70 8 -14 3 -15 -31 -11 -26 4 -40 2 -40 -5 0 -6 8 -9 18 -6 13
5 14 4 3 -4 -8 -6 -20 -8 -27 -5 -7 2 -20 -7 -30 -22 -14 -22 -23 -26 -47 -21
l-29 6 23 -20 c13 -11 19 -19 12 -20 -6 0 -13 3 -15 8 -4 9 -68 51 -139 91
-64 35 -110 41 -103 14 5 -22 -10 -48 -24 -39 -5 3 -12 18 -15 33 -5 28 -5 28
-81 25 l-75 -4 -3 -66 -3 -67 -5 88 c-3 48 -2 87 3 87 4 0 7 -7 7 -15 0 -12
14 -15 68 -15 38 0 71 3 75 6 6 7 -12 45 -28 56 -5 4 -28 8 -50 9 -33 2 -35 3
-11 6 28 4 26 6 -34 40 -44 24 -72 33 -92 31 -16 -3 -31 -1 -34 4 -3 4 5 8 17
8 48 0 -1 22 -135 61 -76 21 -145 43 -154 49 -32 18 13 11 98 -16 45 -14 84
-24 86 -22 8 8 -80 51 -108 53 -15 1 -43 3 -60 5 -31 3 -31 3 10 9 l42 6 -47
27 -48 26 5 -116 5 -117 62 0 c34 0 65 -3 69 -8 4 -4 -14 -7 -39 -7 -26 0 -47
-4 -47 -8 0 -5 17 -8 38 -7 36 3 49 -8 51 -42 1 -15 -72 -10 -77 6 -2 6 -8 9
-13 5 -5 -3 -9 1 -9 8 0 8 -5 6 -11 -4 -14 -25 -42 -22 -54 5 -7 16 -20 23
-45 25 -19 2 -39 8 -45 15 -11 13 -64 21 -120 18 -49 -3 -110 14 -113 32 -4
21 24 46 53 47 11 0 27 5 35 10 12 8 9 9 -10 6 -14 -2 -30 1 -37 6 -9 7 -18 5
-28 -6 -31 -31 -61 -19 -56 22 1 7 -9 12 -24 12 -14 0 -25 -5 -25 -11 0 -5 5
-7 10 -4 6 3 10 -1 10 -9 0 -8 -4 -18 -10 -21 -5 -3 -10 -2 -10 4 0 14 -61 2
-82 -16 -17 -15 -58 -10 -58 7 0 38 83 116 112 105 9 -4 18 1 21 10 8 20 48
35 68 25 10 -6 19 -2 27 11 14 22 54 25 71 5 7 -8 20 -12 30 -9 11 3 28 0 40
-6 20 -11 21 -9 21 35 0 37 3 45 15 40 8 -3 15 -1 15 4 0 5 -36 26 -80 46 -44
20 -80 41 -80 46 0 8 26 51 47 77 2 3 19 -11 39 -30 l35 -34 -3 60 c-4 79 11
95 85 94 66 -2 102 -11 103 -26 1 -7 2 -71 3 -143 l1 -130 38 -23 c133 -83
144 -83 212 -2 42 50 70 68 70 45 0 -6 -20 -33 -45 -59 l-45 -48 273 -7 c153
-4 276 -12 282 -17 6 -7 -96 -8 -295 -4 l-305 7 44 -26 c23 -14 49 -26 57 -26
8 0 14 -5 14 -11 0 -5 21 -20 47 -31 49 -22 49 -22 223 6 14 3 59 9 100 16 41
6 85 13 98 16 12 2 22 1 22 -4 0 -5 -71 -19 -157 -31 -87 -13 -164 -27 -172
-31 -9 -5 6 -12 40 -20 30 -7 48 -15 42 -17 -7 -3 -37 3 -67 11 -30 9 -58 16
-63 16 -18 0 119 -70 142 -72 13 -1 21 -6 19 -10 -5 -8 58 -50 104 -71 15 -6
29 -14 32 -17 12 -14 122 -72 127 -67 5 5 -27 468 -45 649 -8 74 -7 77 16 87
12 6 49 11 81 11 l58 0 7 -55 c3 -30 9 -109 13 -175 3 -66 10 -120 15 -120 5
0 44 20 87 45 74 43 109 56 97 36 -5 -8 -91 -59 -166 -98 -21 -11 -1 -13 148
-13 l172 0 0 170 0 169 -72 4 -73 3 73 2 72 2 0 94 c0 90 -1 95 -22 99 l-23 4
23 2 22 1 0 415 0 415 -37 0 c-35 0 -350 12 -1153 45 -358 15 -1000 47 -1216
61 l-101 7 -42 -42z m529 -192 c0 -55 2 -60 18 -53 40 18 116 15 150 -5 95
-60 96 -204 2 -268 -51 -36 -91 -30 -134 17 l-36 40 0 -35 c0 -34 -1 -35 -40
-35 -23 0 -42 6 -47 14 -4 8 -7 98 -5 200 l3 186 44 0 45 0 0 -61z m1234 -41
c4 -29 7 -77 9 -107 l2 -55 38 57 c37 57 38 57 87 57 28 0 50 -3 50 -6 0 -3
-20 -32 -45 -64 -25 -32 -45 -62 -45 -67 0 -4 25 -35 56 -68 30 -33 46 -46 34
-30 -32 47 -36 95 -12 148 34 76 116 109 184 73 17 -9 30 -10 36 -4 5 5 25 8
43 6 l34 -3 12 -130 c8 -90 8 -134 1 -142 -6 -7 -30 -13 -54 -13 -42 0 -44 1
-44 31 l0 30 -37 -30 c-42 -35 -77 -39 -112 -14 -19 13 -28 14 -42 5 -10 -7
-39 -12 -63 -12 -42 0 -47 3 -78 46 l-33 47 -3 -34 c-5 -47 -18 -59 -63 -59
-37 0 -39 1 -39 33 0 17 -5 97 -10 176 -11 168 -7 181 50 181 l39 0 5 -52z
m-770 -22 c23 -10 37 -11 44 -4 6 6 26 8 46 4 l36 -7 0 -132 c0 -73 -4 -138
-9 -145 -5 -8 -23 -12 -47 -10 -36 3 -39 5 -37 31 2 35 -8 34 -52 -4 -29 -26
-41 -30 -68 -25 -62 12 -107 79 -107 159 0 108 96 174 194 133z m239 -23 c-4
-17 7 -16 31 2 11 8 28 15 38 15 15 0 18 -8 18 -47 0 -46 -10 -76 -24 -74 -54
7 -56 5 -56 -78 0 -92 -10 -107 -65 -97 l-35 7 0 138 c0 76 3 141 7 145 13 12
88 2 86 -11z m297 2 c17 -9 29 -10 37 -3 6 5 27 8 45 6 l33 -3 8 -129 c4 -71
6 -135 3 -143 -3 -8 -22 -13 -50 -13 -43 0 -45 1 -48 31 l-3 30 -43 -36 c-34
-30 -48 -36 -69 -30 -99 25 -141 148 -82 245 33 53 115 75 169 45z m-680 -320
l0 -35 25 16 c34 22 44 10 17 -19 l-22 -23 22 -22 c16 -16 19 -25 11 -33 -7
-7 -16 -3 -31 15 -19 24 -20 25 -25 6 -3 -11 -10 -20 -16 -20 -12 0 -16 132
-4 143 15 15 23 5 23 -28z m-270 0 c13 -8 13 -105 1 -105 -6 0 -11 17 -13 37
-2 26 -8 39 -20 41 -13 2 -17 -5 -20 -34 -4 -53 -28 -57 -28 -5 0 34 -3 41
-19 41 -16 0 -20 -8 -23 -37 -5 -61 -28 -53 -28 10 0 29 3 56 6 59 7 8 130 2
144 -7z m510 0 c0 -8 7 -15 15 -15 8 0 15 -5 15 -10 0 -6 -7 -13 -15 -16 -20
-8 -20 -54 1 -54 9 0 14 -6 12 -12 -3 -7 -16 -13 -29 -13 -21 0 -24 5 -27 38
-2 20 -7 37 -13 37 -14 0 -11 18 8 40 21 24 33 26 33 5z m-362 -54 l-3 -54
-41 -4 c-45 -4 -58 6 -69 49 -10 39 22 67 75 65 l41 -1 -3 -55z m82 39 c0 -5
-9 -14 -21 -21 -14 -7 -19 -17 -16 -31 6 -23 -1 -48 -14 -48 -5 0 -9 25 -9 55
0 54 0 55 30 55 17 0 30 -4 30 -10z m205 -10 c43 -48 -27 -128 -75 -85 -22 20
-27 74 -8 93 18 18 63 14 83 -8z m-752 -257 c-13 -2 -33 -2 -45 0 -13 2 -3 4
22 4 25 0 35 -2 23 -4z m-5 -30 c-2 -12 -14 -19 -33 -20 -25 -2 -27 -1 -10 7
11 5 16 9 12 9 -15 2 4 21 19 21 9 0 14 -7 12 -17z m-527 -9 c11 -14 8 -15
-26 -12 -21 2 -40 9 -43 16 -6 18 53 15 69 -4z m1522 9 c-13 -2 -33 -2 -45 0
-13 2 -3 4 22 4 25 0 35 -2 23 -4z m-15 -30 c-2 -10 -11 -19 -20 -21 -12 -2
-15 2 -11 17 7 25 36 28 31 4z m1129 1 c-3 -3 -12 -4 -19 -1 -8 3 -5 6 6 6 11
1 17 -2 13 -5z m-1627 -13 c0 -12 -21 -19 -42 -13 -29 7 -21 22 12 22 17 0 30
-4 30 -9z m1593 -22 c-17 -17 -37 -1 -22 17 8 10 15 12 23 4 7 -7 7 -13 -1
-21z m-597 3 c-2 -4 -19 -9 -36 -10 -19 -2 -29 1 -25 8 3 5 20 10 36 10 17 0
28 -4 25 -8z m-2187 -58 c9 -8 -165 -2 -184 6 -11 4 24 6 80 3 55 -3 102 -7
104 -9z m803 -96 c0 -57 0 -110 -1 -118 -1 -8 -4 -46 -8 -85 -4 -58 -3 -68 8
-57 7 6 21 12 31 12 31 0 108 43 108 60 0 9 7 17 15 17 8 0 15 -4 15 -9 0 -4
5 -8 10 -8 6 0 10 7 10 15 0 8 16 19 38 25 21 5 64 28 95 50 l57 40 22 -46
c27 -54 26 -55 -77 -80 -38 -10 -76 -23 -83 -31 -8 -7 -18 -11 -23 -7 -10 6
-139 -34 -139 -43 0 -3 11 -2 25 1 14 4 25 2 25 -4 0 -5 -8 -10 -18 -10 -10 0
-29 -12 -43 -26 l-24 -26 25 7 c22 7 23 6 8 -9 -9 -9 -21 -16 -27 -16 -6 0
-11 -7 -11 -15 0 -8 0 -18 0 -22 0 -5 3 -8 8 -8 4 -1 18 -7 31 -14 l25 -14
-23 -18 c-12 -10 -28 -16 -35 -13 -7 3 -20 -6 -29 -20 -14 -21 -14 -26 -2 -36
19 -15 19 -44 2 -59 -8 -6 -12 -23 -9 -41 2 -16 0 -30 -6 -30 -10 0 -21 19
-18 32 0 3 -11 16 -26 28 -26 20 -29 20 -50 6 -12 -9 -18 -16 -13 -16 6 0 3
-5 -6 -10 -20 -12 -14 -60 7 -60 17 0 36 -44 28 -64 -3 -8 4 -16 20 -20 29 -7
43 -41 25 -62 -9 -11 -9 -18 -1 -26 7 -7 12 -25 12 -40 0 -24 -4 -28 -26 -28
-24 0 -26 3 -22 35 3 31 1 35 -24 40 -26 6 -33 19 -29 53 1 6 -4 12 -12 12
-22 0 -50 37 -44 59 3 13 -3 22 -18 29 -21 10 -23 17 -23 79 0 42 5 74 13 83
12 14 26 152 15 145 -3 -1 -59 -24 -125 -50 -66 -26 -130 -51 -143 -56 -15 -6
-20 -13 -15 -21 16 -26 10 -37 -38 -78 -40 -33 -50 -38 -55 -26 -4 9 -1 23 6
31 7 9 10 18 6 22 -3 3 -6 1 -6 -5 0 -7 -11 -12 -25 -12 -15 0 -25 -6 -25 -14
0 -8 -4 -18 -10 -21 -6 -4 -7 6 -3 26 7 37 15 39 -143 -26 -79 -32 -111 -41
-116 -32 -5 8 -8 7 -8 -5 0 -11 -7 -16 -20 -15 -39 3 -22 23 26 31 16 3 83 27
149 53 l120 48 -222 3 c-123 1 -223 6 -223 10 0 4 99 6 220 4 192 -2 220 -1
220 13 0 12 13 15 59 15 58 0 117 19 271 87 25 11 57 25 71 31 30 12 33 31 44
282 4 74 9 143 11 153 5 14 18 17 85 17 l79 0 2 -102z m-449 85 c-7 -2 -19 -2
-25 0 -7 3 -2 5 12 5 14 0 19 -2 13 -5z m185 -10 c-10 -2 -26 -2 -35 0 -10 3
-2 5 17 5 19 0 27 -2 18 -5z m860 -30 c-32 -2 -86 -2 -120 0 -35 2 -9 3 57 3
66 0 94 -1 63 -3z m825 -10 c-56 -2 -151 -2 -210 0 -59 1 -13 3 102 3 116 0
164 -2 108 -3z m200 -10 c-13 -2 -33 -2 -45 0 -13 2 -3 4 22 4 25 0 35 -2 23
-4z m-2676 -130 c-3 -10 -5 -4 -5 12 0 17 2 24 5 18 2 -7 2 -21 0 -30z m273
-108 l64 -65 253 0 c157 0 254 -4 258 -10 4 -6 -6 -11 -22 -11 -23 -2 -24 -2
-5 -6 12 -2 22 -9 22 -14 0 -12 0 -12 -73 6 l-62 15 -210 -54 c-115 -30 -199
-55 -185 -55 25 -1 182 -29 209 -37 8 -3 12 -6 9 -9 -2 -2 -55 5 -118 17 -149
27 -174 27 -302 -10 -60 -16 -108 -26 -108 -22 0 4 37 18 83 29 141 38 140 35
26 56 -57 10 -97 20 -88 22 8 2 64 -5 122 -15 l107 -19 187 47 188 47 -169 6
c-93 4 -231 7 -308 7 -90 0 -138 4 -138 11 0 7 47 9 140 7 77 -2 140 0 140 4
0 4 -25 28 -55 55 -30 26 -55 51 -55 56 0 21 32 0 90 -58z m-283 3 c-2 -13 -4
-5 -4 17 -1 22 1 32 4 23 2 -10 2 -28 0 -40z m1443 -13 c0 -9 -9 -15 -25 -15
-14 0 -25 -4 -25 -10 0 -5 5 -10 11 -10 5 0 7 -5 3 -12 -6 -9 -9 -9 -12 0 -2
7 -8 12 -13 12 -6 0 -8 -4 -5 -8 3 -5 -1 -9 -9 -10 -8 -1 -21 -3 -29 -4 -8 -1
-19 -11 -25 -24 -5 -12 -18 -25 -29 -28 -14 -5 -17 -13 -14 -36 3 -24 0 -32
-22 -41 -39 -18 -31 -30 17 -24 l42 5 -45 -14 c-25 -8 -55 -18 -66 -21 -18 -6
-22 -2 -26 25 -5 30 17 89 42 114 5 5 10 22 10 36 0 33 17 50 51 50 15 0 40 7
55 15 39 20 114 20 114 0z m60 -11 c0 -3 -4 -2 -10 1 -5 3 -10 2 -10 -4 0 -6
-6 -8 -14 -5 -8 3 -12 12 -9 20 4 10 10 11 24 3 10 -5 19 -12 19 -15z m-1762
4 c-6 -18 -28 -21 -28 -4 0 9 7 16 16 16 9 0 14 -5 12 -12z m249 -85 c-3 -10
-5 -2 -5 17 0 19 2 27 5 18 2 -10 2 -26 0 -35z m2113 32 c0 -8 -4 -15 -10 -15
-5 0 -10 7 -10 15 0 8 5 15 10 15 6 0 10 -7 10 -15z m-755 -45 c3 -5 1 -10 -4
-10 -6 0 -11 5 -11 10 0 6 2 10 4 10 3 0 8 -4 11 -10z m-1368 -82 c-2 -13 -4
-5 -4 17 -1 22 1 32 4 23 2 -10 2 -28 0 -40z m2043 13 c0 -5 -9 -7 -20 -4 -11
3 -20 7 -20 9 0 2 9 4 20 4 11 0 20 -4 20 -9z m-512 -61 c190 -42 185 -40 180
-46 -5 -5 -329 64 -337 71 -9 9 21 5 157 -25z m-1548 -87 c-10 -16 -11 -14 -6
7 3 14 7 41 8 60 1 32 2 32 5 -7 2 -24 -1 -51 -7 -60z m860 63 c0 -8 6 -17 13
-19 9 -4 9 -8 -2 -15 -8 -6 -17 -42 -22 -93 -8 -84 -8 -84 -4 23 l4 107 -27 4
c-24 4 -24 4 6 6 22 1 32 -4 32 -13z m2345 -7 c-22 -4 -56 -7 -75 -7 l-35 1
40 7 c22 4 56 7 75 7 l35 1 -40 -9z m-575 -25 l35 -14 -35 6 c-43 8 -80 21
-80 29 0 7 24 0 80 -21z m-248 -19 c2 -19 0 -35 -4 -35 -4 0 -8 15 -8 33 0 24
-3 28 -10 17 -8 -13 -10 -12 -10 3 0 33 28 18 32 -18z m-1144 18 c-10 -2 -28
-2 -40 0 -13 2 -5 4 17 4 22 1 32 -1 23 -4z m152 -2 c-14 -5 -45 -5 -70 -1
-41 7 -39 8 25 8 47 0 62 -2 45 -7z m278 -1 c42 0 72 -4 72 -10 0 -7 -22 -8
-62 -4 -39 4 -108 0 -178 -10 -63 -9 -126 -15 -140 -15 -14 1 13 7 60 14 47 7
92 14 100 16 8 1 -7 6 -35 9 -38 6 -31 7 30 4 44 -2 113 -4 153 -4z m249 -22
c-3 -8 -6 -5 -6 6 -1 11 2 17 5 13 3 -3 4 -12 1 -19z m-598 -157 c1 -15 -3
-21 -8 -15 -13 14 -34 162 -24 176 7 12 31 -104 32 -161z m1461 159 c0 -6 -36
-9 -92 -8 l-93 2 90 6 c50 3 91 7 93 8 1 1 2 -2 2 -8z m-855 -72 c21 -24 42
-104 31 -116 -10 -9 -38 8 -43 26 -3 11 -19 23 -41 28 -23 6 -36 15 -34 23 2
9 -4 12 -18 8 -15 -4 -20 0 -20 13 0 11 -4 22 -10 25 -6 4 -6 11 2 19 20 21
107 4 133 -26z m-1395 0 c7 -18 15 -36 18 -40 2 -5 -3 -8 -11 -8 -14 0 -37 40
-37 65 0 26 15 16 30 -17z m-405 -8 c21 0 19 -9 -8 -34 -19 -18 -26 -19 -36
-9 -6 7 -19 13 -29 12 -14 0 -14 -2 3 -9 11 -5 16 -9 10 -9 -5 -1 -4 -5 4 -10
8 -5 9 -11 3 -15 -5 -3 -18 6 -27 20 -14 22 -15 28 -4 35 8 5 19 9 25 9 7 0
15 10 18 23 6 20 7 20 17 5 5 -10 17 -18 24 -18z m45 10 c0 -5 -2 -10 -4 -10
-3 0 -8 5 -11 10 -3 6 -1 10 4 10 6 0 11 -4 11 -10z m1310 -21 c25 -25 28 -33
24 -74 -4 -51 -11 -68 -24 -60 -4 3 -13 -2 -20 -10 -11 -14 -7 -19 13 -16 4 0
7 -6 7 -14 0 -17 -16 -20 -25 -5 -4 6 -11 8 -16 5 -5 -4 -14 6 -19 20 -12 32
-41 30 -46 -2 -3 -17 1 -23 14 -23 13 0 14 -2 3 -9 -11 -7 -9 -11 8 -20 19
-11 25 -8 22 12 -2 15 27 6 45 -14 16 -17 16 -22 4 -29 -8 -6 -19 -10 -24 -10
-9 0 -2 -158 10 -217 l6 -31 -66 -4 c-52 -2 -66 0 -70 12 -2 8 -4 -34 -5 -93
l-1 -108 -35 3 c-20 2 -35 8 -35 13 1 6 11 9 24 8 23 -1 23 -1 29 170 4 95 10
183 14 196 6 23 7 24 14 5 6 -15 8 -13 8 11 1 17 4 41 7 55 6 21 4 23 -7 13
-18 -18 -29 -16 -30 5 0 11 -2 12 -6 4 -3 -7 1 -19 7 -27 10 -12 9 -15 -3 -15
-22 0 -30 30 -12 50 8 9 15 30 15 47 0 33 24 52 34 27 8 -22 28 -17 21 6 -3
11 -3 20 2 20 5 0 7 18 5 39 -2 21 1 48 7 59 9 17 8 21 -7 24 -9 2 4 4 31 4
39 1 53 -5 77 -27z m53 24 c-7 -2 -21 -2 -30 0 -10 3 -4 5 12 5 17 0 24 -2 18
-5z m195 0 c-10 -2 -28 -2 -40 0 -13 2 -5 4 17 4 22 1 32 -1 23 -4z m-63 -13
c3 -5 18 -10 33 -10 15 0 34 -5 42 -10 12 -8 9 -9 -10 -6 -82 17 -139 23 -170
19 -27 -3 -31 -2 -20 6 19 14 117 14 125 1z m1062 -6 c-3 -3 -12 -4 -19 -1 -8
3 -5 6 6 6 11 1 17 -2 13 -5z m-1702 -22 c-3 -3 -11 0 -18 7 -9 10 -8 11 6 5
10 -3 15 -9 12 -12z m320 -18 c-8 -16 -15 -23 -15 -16 0 17 20 55 26 49 2 -2
-2 -17 -11 -33z m-1080 -1 c19 -9 35 -21 35 -25 0 -5 -5 -6 -12 -2 -7 5 -26 7
-43 7 -17 -1 -22 1 -11 4 13 4 15 7 7 13 -7 4 -23 2 -35 -3 l-23 -11 21 -17
c12 -10 18 -21 13 -25 -4 -4 -18 3 -32 16 l-26 24 33 18 c18 9 34 17 35 18 1
0 18 -8 38 -17z m2345 -6 c0 -19 -21 -37 -44 -37 -18 0 -17 2 5 24 28 28 39
31 39 13z m-867 -14 c-7 -2 -21 -2 -30 0 -10 3 -4 5 12 5 17 0 24 -2 18 -5z
m-60 -10 c-7 -2 -19 -2 -25 0 -7 3 -2 5 12 5 14 0 19 -2 13 -5z m-100 -10 c-7
-2 -19 -2 -25 0 -7 3 -2 5 12 5 14 0 19 -2 13 -5z m-1518 -13 c19 -8 19 -9 -2
-9 -12 -1 -25 4 -28 9 -7 12 2 12 30 0z m1578 3 c-7 -2 -21 -2 -30 0 -10 3 -4
5 12 5 17 0 24 -2 18 -5z m1454 -20 c3 -8 3 -16 0 -19 -8 -8 -47 19 -47 32 0
16 40 5 47 -13z m-2630 -95 c-3 -62 -3 -101 -1 -85 5 24 10 27 45 27 35 0 39
-3 39 -25 0 -14 4 -25 10 -25 5 0 7 6 5 13 -4 9 7 11 40 9 42 -4 45 -6 45 -33
0 -16 -4 -29 -10 -29 -5 0 -10 11 -10 25 0 17 -5 25 -17 24 -11 0 -13 -3 -5
-6 18 -7 15 -24 -10 -50 l-21 -23 31 0 c30 0 32 -2 32 -37 0 -21 -3 -69 -7
-107 l-6 -68 -43 5 c-51 5 -94 -15 -57 -27 12 -4 37 -6 57 -4 19 1 37 0 40 -3
3 -2 -56 -65 -131 -139 -75 -74 -126 -120 -114 -102 12 17 26 32 30 32 3 0 6
12 5 28 -1 15 -3 33 -3 40 -1 7 -6 10 -12 6 -7 -4 -6 2 2 17 11 22 11 23 -4
10 -10 -8 -17 -9 -17 -3 0 6 5 14 10 17 6 3 10 11 10 16 0 6 -4 8 -8 5 -5 -3
-9 15 -9 40 l0 45 43 -3 c25 -2 42 1 41 7 -1 6 -13 10 -27 11 -61 1 -70 4 -70
23 0 11 -10 61 -21 112 -15 66 -18 94 -10 97 6 2 11 12 11 23 0 24 23 34 47
20 10 -6 12 -11 6 -11 -8 0 -13 -13 -12 -32 0 -18 3 -26 6 -18 3 8 10 18 14
21 5 3 10 17 11 31 1 15 7 26 13 25 6 -1 11 23 13 55 l3 57 -68 4 -68 3 73 2
c78 2 96 18 46 41 -15 6 -24 14 -21 17 3 3 15 1 26 -6 19 -9 21 -8 21 15 0 14
3 25 6 25 3 0 3 -51 1 -112z m2467 103 c4 -5 -3 -7 -14 -4 -23 6 -26 13 -6 13
8 0 17 -4 20 -9z m-1191 -8 c-7 -2 -19 -2 -25 0 -7 3 -2 5 12 5 14 0 19 -2 13
-5z m1427 -18 c0 -24 -2 -25 -57 -23 -36 1 -46 3 -25 5 18 2 30 8 27 14 -3 5
0 6 8 3 8 -3 20 2 27 11 17 21 20 19 20 -10z m-2316 -25 c10 8 15 4 19 -18 4
-17 16 -33 31 -40 14 -6 26 -16 26 -22 0 -21 2 -25 15 -41 8 -8 16 -26 17 -40
2 -15 13 -28 32 -36 25 -11 28 -17 24 -47 -3 -29 0 -37 20 -46 21 -9 23 -15
18 -45 -4 -22 -3 -35 4 -35 14 0 13 -43 -2 -58 -7 -7 -21 -12 -31 -12 -16 0
-18 6 -15 31 4 25 0 33 -24 45 -21 11 -28 22 -28 43 0 20 -6 30 -20 34 -14 4
-20 14 -20 35 0 23 -5 31 -25 36 -16 4 -27 15 -31 34 -10 45 -13 52 -24 52 -6
0 -10 -24 -10 -55 l0 -55 -32 1 c-32 2 -32 2 -5 6 29 4 29 5 26 73 -2 38 0 72
4 76 4 4 8 35 8 68 1 34 4 48 6 33 3 -22 7 -26 17 -17z m1206 25 c0 -8 -4 -15
-10 -15 -5 0 -7 7 -4 15 4 8 8 15 10 15 2 0 4 -7 4 -15z m-761 1 c-2 -2 -15
-9 -29 -15 -24 -11 -24 -11 -6 3 16 13 49 24 35 12z m-1077 -37 c10 -13 20
-40 23 -59 5 -35 5 -34 -15 10 -12 25 -29 53 -38 64 -13 14 -14 18 -3 14 8 -2
23 -15 33 -29z m1476 24 c-10 -2 -28 -2 -40 0 -13 2 -5 4 17 4 22 1 32 -1 23
-4z m399 -13 c1 -11 -2 -18 -8 -15 -11 7 -12 35 -1 35 4 0 8 -9 9 -20z m763 2
c-40 -20 -49 -19 -30 3 7 8 24 15 39 15 25 0 24 -1 -9 -18z m-1230 -2 l25 -8
-25 0 c-14 0 -34 3 -45 8 l-20 9 20 -1 c11 0 31 -4 45 -8z m360 -14 c1 16 4
15 25 -10 l24 -30 6 27 c10 38 29 34 21 -4 -4 -20 -1 -38 6 -47 15 -18 34
-183 30 -253 l-4 -49 -43 0 c-23 0 -63 3 -89 6 l-48 7 7 141 c7 160 27 244 51
211 14 -18 14 -18 14 1z m413 -108 l5 -118 -76 2 -77 2 73 3 c64 4 72 6 72 24
0 11 -5 17 -10 14 -6 -4 -9 -3 -8 2 5 17 -26 51 -41 46 -9 -3 -2 4 14 16 26
18 27 21 10 22 -18 0 -18 1 3 9 18 8 22 17 22 56 0 85 7 41 13 -78z m-700 105
c-7 -2 -21 -2 -30 0 -10 3 -4 5 12 5 17 0 24 -2 18 -5z m-1136 -25 c-3 -8 -6
-5 -6 6 -1 11 2 17 5 13 3 -3 4 -12 1 -19z m1804 8 c5 3 9 -2 9 -10 0 -9 -4
-16 -10 -16 -5 0 -10 2 -10 4 0 2 -2 10 -3 18 -2 7 -2 10 0 5 3 -4 9 -5 14 -1z
m-676 -6 c-3 -5 -25 -10 -48 -10 -31 0 -38 3 -27 10 20 13 83 13 75 0z m168
-10 c3 -11 1 -18 -4 -14 -5 3 -9 12 -9 20 0 20 7 17 13 -6z m958 -44 c-18 -19
-44 -51 -57 -73 -20 -33 -23 -35 -24 -15 0 13 4 21 8 18 5 -3 14 10 21 29 12
34 68 91 79 80 3 -3 -9 -21 -27 -39z m243 28 c25 -24 19 -36 -9 -18 -14 9 -22
20 -19 25 7 12 10 11 28 -7z m-2339 -34 c3 -5 1 -10 -4 -10 -6 0 -11 5 -11 10
0 6 2 10 4 10 3 0 8 -4 11 -10z m-431 -15 c-4 -8 -8 -15 -10 -15 -2 0 -4 7 -4
15 0 8 4 15 10 15 5 0 7 -7 4 -15z m1216 0 c0 -8 -4 -15 -10 -15 -5 0 -7 7 -4
15 4 8 8 15 10 15 2 0 4 -7 4 -15z m-887 -2 c-7 -2 -19 -2 -25 0 -7 3 -2 5 12
5 14 0 19 -2 13 -5z m851 -75 c3 -40 14 -128 23 -195 15 -118 17 -123 40 -123
12 0 23 -4 23 -9 0 -13 -61 -20 -65 -7 -6 15 -33 246 -41 340 -5 52 -4 77 3
73 6 -4 13 -39 17 -79z m-1404 42 c0 -16 -5 -30 -10 -30 -7 0 -7 -7 1 -21 12
-23 -3 -42 -29 -36 -16 3 -16 5 -8 67 5 41 10 50 26 50 16 0 20 -7 20 -30z
m650 20 c0 -5 -2 -10 -4 -10 -3 0 -8 5 -11 10 -3 6 -1 10 4 10 6 0 11 -4 11
-10z m-399 -51 c-20 -8 -25 -4 -17 16 5 13 8 14 20 3 12 -11 12 -14 -3 -19z
m412 13 c10 -11 14 -26 10 -40 -3 -15 -1 -22 8 -22 11 0 11 -3 -1 -11 -11 -8
1 -9 43 -6 56 4 59 3 55 -18 -4 -18 -1 -21 16 -17 18 5 19 3 8 -11 -20 -24
-11 -70 16 -82 16 -7 22 -18 22 -42 0 -21 5 -33 13 -33 21 0 37 -43 25 -65 -9
-16 -7 -17 15 -13 31 6 52 -26 45 -66 -3 -16 -1 -26 7 -26 6 0 20 -9 30 -20
15 -17 16 -24 5 -50 -10 -23 -19 -30 -40 -30 -33 0 -50 18 -54 57 -2 16 -10
29 -20 31 -18 4 -31 44 -22 67 3 10 -1 15 -13 15 -29 0 -54 35 -47 65 9 34
-20 34 -36 0 -8 -19 -8 -28 2 -40 10 -12 10 -19 2 -27 -19 -19 -14 -64 8 -79
17 -11 19 -20 14 -46 -4 -18 -10 -33 -14 -33 -12 0 -180 229 -180 245 0 3 39
5 86 5 54 0 83 4 79 10 -3 6 -15 10 -26 10 -11 0 -17 5 -14 10 3 6 1 10 -4 10
-6 0 -11 -4 -11 -10 0 -5 -25 -9 -56 -9 l-55 1 5 37 c3 20 8 82 12 138 6 102
7 104 45 112 3 0 13 -7 22 -17z m1184 -24 c-3 -8 -6 -5 -6 6 -1 11 2 17 5 13
3 -3 4 -12 1 -19z m1065 -39 c3 -56 0 -63 -23 -46 -10 8 -15 25 -13 52 2 48 1
45 18 45 10 0 15 -16 18 -51z m-2678 -9 c5 -17 4 -20 -2 -10 -5 8 -13 26 -16
40 -5 17 -4 20 2 10 5 -8 13 -26 16 -40z m2036 28 c0 -6 -6 -5 -15 2 -8 7 -15
14 -15 16 0 2 7 1 15 -2 8 -4 15 -11 15 -16z m-1053 -20 c-3 -7 -5 -2 -5 12 0
14 2 19 5 13 2 -7 2 -19 0 -25z m937 26 c33 -13 17 -34 -24 -34 -56 0 -53 17
7 39 1 1 8 -2 17 -5z m-1008 -49 c1 -14 -2 -25 -7 -25 -5 0 -9 9 -9 19 0 11
-6 22 -12 24 -7 3 -4 6 7 6 15 1 20 -6 21 -24z m-1210 -12 c-3 -10 -8 -39 -12
-66 -3 -26 -11 -50 -17 -54 -6 -4 -7 4 -2 23 4 16 7 44 6 62 -2 36 5 52 20 52
6 0 8 -8 5 -17z m2222 -34 c-10 -7 -10 -9 0 -9 10 0 10 -5 1 -21 -6 -12 -7
-19 -1 -15 5 3 13 -1 16 -10 11 -28 6 -36 -10 -19 -9 9 -24 13 -35 10 -16 -5
-18 -1 -15 29 1 20 -1 36 -6 36 -4 0 -8 5 -8 11 0 6 8 8 19 4 11 -3 25 0 33 9
11 12 13 12 16 -1 2 -9 -2 -19 -10 -24z m112 5 c22 -20 37 -40 35 -44 -3 -4 2
-10 10 -14 9 -3 12 -12 8 -23 -6 -16 -5 -16 10 -5 9 8 22 10 28 6 7 -4 9 -3 6
3 -4 6 0 14 9 17 9 3 14 12 11 20 -3 7 0 19 6 26 9 10 9 11 -2 5 -8 -4 -17 -2
-21 6 -12 19 -42 20 -62 3 -15 -14 -17 -14 -27 5 -16 29 -13 38 4 15 12 -15
14 -16 15 -3 0 12 13 16 55 18 36 1 55 -2 55 -10 0 -6 -7 -9 -15 -5 -8 3 -15
2 -15 -3 0 -8 38 -24 53 -22 4 1 7 -8 7 -20 0 -11 4 -18 8 -15 5 3 9 -10 10
-29 1 -26 -2 -33 -13 -29 -8 3 -14 9 -13 12 0 4 0 16 -1 27 -2 19 -2 19 -14
-3 -7 -12 -17 -19 -22 -15 -4 4 -5 2 -1 -5 4 -7 11 -10 16 -7 5 3 12 -4 15
-16 13 -39 -41 -53 -85 -22 -22 16 -23 16 -17 0 5 -13 1 -17 -14 -17 -19 0
-19 1 -5 16 18 18 19 24 7 43 -5 7 -14 10 -20 6 -9 -5 -9 -11 1 -23 12 -15 11
-16 -4 -4 -9 8 -14 20 -11 28 7 18 -2 18 -21 -2 -20 -20 -20 -29 2 -50 16 -17
16 -17 -8 -11 -14 4 -31 7 -37 7 -8 0 -13 13 -13 31 0 22 4 30 14 26 14 -6 40
38 31 53 -3 5 -2 10 2 13 5 2 2 2 -4 1 -7 -2 -13 5 -13 16 0 13 -5 18 -15 14
-8 -4 -15 -1 -15 5 0 22 32 10 70 -25z m-2010 -19 c0 -5 -5 -3 -10 5 -5 8 -10
20 -10 25 0 6 5 3 10 -5 5 -8 10 -19 10 -25z m1965 -15 c0 -13 -6 -25 -12 -27
-9 -3 -13 6 -13 27 0 21 4 30 13 28 6 -3 12 -15 12 -28z m140 0 c0 -33 -32
-40 -44 -8 -5 15 -5 26 3 30 21 14 41 3 41 -22z m195 0 c0 -18 -6 -33 -15 -36
-8 -4 -15 -10 -15 -15 0 -4 7 -6 17 -2 13 5 15 2 11 -15 -3 -11 -2 -22 2 -24
4 -2 1 -10 -8 -18 -14 -13 -15 -12 -9 3 4 11 1 17 -9 17 -8 0 -12 5 -9 10 3 6
2 10 -3 10 -5 0 -12 9 -15 20 -3 11 -1 20 4 20 5 0 8 10 8 23 -1 16 -2 18 -6
5 -5 -21 -19 -24 -26 -5 -8 23 3 33 38 35 33 2 35 1 35 -28z m50 3 c0 -12 -4
-23 -10 -23 -5 0 -10 4 -10 9 0 5 -2 16 -5 24 -4 8 0 14 10 14 9 0 15 -9 15
-24z m-19 -33 c5 0 9 -7 9 -15 0 -8 -5 -15 -11 -15 -5 0 -7 -6 -3 -12 4 -7 3
-10 -1 -5 -5 4 -9 24 -11 45 -1 20 0 29 3 20 2 -10 9 -18 14 -18z m-438 -35
c-3 -9 -8 -14 -10 -11 -3 3 -2 9 2 15 9 16 15 13 8 -4z m340 -7 c4 -12 4 -24
1 -27 -6 -7 -24 20 -24 37 0 21 17 13 23 -10z m-2586 -20 c-3 -8 -6 -5 -6 6
-1 11 2 17 5 13 3 -3 4 -12 1 -19z m2273 2 c0 -13 -6 -20 -17 -19 -11 0 -13 3
-5 6 6 2 12 11 12 19 0 8 2 14 5 14 3 0 5 -9 5 -20z m284 -5 c3 -9 0 -15 -9
-15 -9 0 -12 6 -9 15 4 8 7 15 9 15 2 0 5 -7 9 -15z m-1504 -54 c0 -17 -17
-30 -47 -37 -20 -4 -15 34 5 45 26 16 42 13 42 -8z m1173 13 l46 -7 -36 -53
c-35 -53 -51 -68 -39 -39 3 8 2 14 -2 12 -9 -3 -12 7 -12 33 0 17 5 19 25 14
14 -3 25 -2 25 4 0 5 -20 13 -45 16 -25 4 -45 11 -45 17 0 11 20 11 83 3z
m-323 -14 c0 -5 -7 -10 -15 -10 -8 0 -15 5 -15 10 0 6 7 10 15 10 8 0 15 -4
15 -10z m640 -22 l10 -33 -5 33 c-4 31 -3 32 30 32 59 0 69 -44 33 -156 l-21
-69 -14 40 c-13 39 -12 21 2 -41 6 -25 3 -33 -11 -38 -15 -6 -42 18 -131 111
-62 65 -112 123 -113 130 0 6 -8 14 -17 16 -10 3 37 5 104 6 l122 1 11 -32z
m147 -45 c-13 -13 -14 -11 -10 14 8 48 16 61 21 29 2 -17 -3 -35 -11 -43z
m-2052 -59 c-6 -65 -9 -74 -24 -69 -10 3 -36 11 -59 18 l-40 12 61 67 c34 37
64 62 66 57 2 -6 0 -44 -4 -85z m125 -35 c0 -4 -12 -9 -27 -12 -16 -3 -36 -9
-45 -12 -16 -6 -18 1 -18 71 l0 77 45 -59 c24 -32 45 -62 45 -65z m1278 96
c-3 -16 -1 -25 7 -25 11 0 25 -42 25 -76 0 -18 -34 -18 -49 0 -16 20 -3 126
16 126 3 0 3 -11 1 -25z m225 -32 c-3 -29 -10 -53 -15 -53 -5 0 -7 4 -3 9 3 5
0 13 -7 17 -7 4 -10 4 -6 -1 11 -12 -11 -35 -28 -28 -7 3 -11 9 -8 14 3 5 10
6 16 3 7 -4 8 -2 4 4 -4 6 2 20 14 32 11 11 21 23 21 28 3 14 11 33 14 30 2
-2 0 -27 -2 -55z m106 -81 c-65 -16 -69 -11 -68 78 l0 65 60 -65 61 -65 -53
-13z m334 88 c-3 -12 -8 -19 -11 -16 -5 6 5 36 12 36 2 0 2 -9 -1 -20z m-40
-110 c-6 -52 -9 -55 -31 -41 -11 7 -11 19 4 71 14 51 19 59 25 42 5 -12 5 -44
2 -72z m40 3 c8 -16 18 -38 21 -50 7 -21 4 -23 -29 -23 -32 0 -35 2 -25 19 5
11 10 33 10 50 0 38 5 39 23 4z m-2105 -9 c46 -13 53 -18 50 -37 -3 -20 -10
-22 -93 -27 -49 -3 -101 -3 -114 0 l-25 6 39 43 c42 46 36 45 143 15z m200 -1
c32 -48 33 -52 13 -63 -25 -13 -71 6 -71 29 0 12 -2 13 -9 3 -6 -10 -13 -11
-35 -1 -35 16 -29 31 20 46 56 17 61 16 82 -14z m1671 -7 c18 -19 29 -36 24
-38 -19 -11 -103 -8 -103 3 0 6 7 9 15 5 21 -8 19 0 -7 26 -21 21 -21 22 -2
29 32 13 39 10 73 -25z m-559 -12 c0 -21 -4 -34 -11 -32 -6 2 -10 7 -10 11 1
4 1 18 1 32 0 14 5 25 10 25 6 0 10 -16 10 -36z m-1686 -39 c4 -12 -2 -15 -27
-14 -18 0 -26 3 -19 6 6 2 10 9 6 14 -3 5 4 9 14 9 11 0 22 -7 26 -15z m1046
-25 l60 0 0 -35 0 -35 -52 -1 c-54 -1 -91 1 -96 6 -1 1 0 10 4 19 4 11 18 16
42 16 47 0 34 12 -18 16 -37 4 -41 2 -35 -15 8 -25 -19 -51 -47 -46 -12 3 -27
0 -35 -6 -10 -9 -13 -8 -13 2 0 11 -3 11 -11 -1 -8 -11 -12 -12 -16 -2 -2 6
-16 12 -29 12 -21 0 -23 3 -15 19 6 10 8 21 5 23 -6 7 42 2 53 -5 5 -3 17 1
28 9 17 13 14 14 -30 14 -72 0 -44 19 46 31 41 6 76 13 79 15 2 3 8 -4 12 -16
6 -17 16 -20 68 -20z m230 0 c0 -5 -2 -10 -4 -10 -3 0 -8 5 -11 10 -3 6 -1 10
4 10 6 0 11 -4 11 -10z m390 6 c0 -3 -4 -8 -10 -11 -5 -3 -10 -1 -10 4 0 6 5
11 10 11 6 0 10 -2 10 -4z m-432 -13 c-10 -2 -28 -2 -40 0 -13 2 -5 4 17 4 22
1 32 -1 23 -4z m-1262 -12 c-3 -5 1 -12 10 -15 8 -3 12 -2 9 4 -3 6 -1 10 4
10 6 0 11 -13 11 -30 0 -25 -10 -37 -23 -27 -2 1 -12 -4 -21 -12 -12 -10 -20
-11 -27 -4 -15 15 -1 71 19 76 9 3 18 5 20 6 2 0 1 -3 -2 -8z m576 -4 c56 3
78 2 74 -6 -8 -12 7 -15 18 -4 11 11 86 13 86 3 0 -5 -6 -11 -12 -13 -8 -3 -6
-6 5 -6 10 -1 20 5 23 13 3 8 13 12 24 9 16 -4 17 -8 7 -24 -6 -10 -18 -21
-25 -24 -7 -2 -10 0 -7 5 3 6 -1 7 -9 4 -9 -3 -13 -11 -9 -17 4 -6 1 -7 -8 -1
-8 5 -39 9 -69 9 -40 0 -54 4 -52 13 1 8 -2 11 -8 7 -6 -3 -8 -9 -6 -13 2 -4
-17 -8 -42 -10 -26 -2 -50 -8 -54 -15 -6 -9 -11 -8 -18 3 -7 10 -13 11 -17 5
-10 -14 -53 -17 -53 -4 0 5 -16 9 -35 9 -19 0 -35 -4 -35 -10 0 -6 -23 -9 -52
-8 l-53 1 45 7 c36 6 28 7 -47 8 -85 2 -93 4 -93 21 0 27 7 30 94 36 56 4 76
2 71 -6 -5 -8 -2 -8 12 -1 10 6 47 10 81 10 34 -1 65 2 69 6 4 4 9 3 11 -2 2
-6 37 -8 84 -5z m728 -29 c0 -15 -9 -18 -45 -18 -37 0 -45 3 -45 18 0 15 8 18
45 18 36 -1 45 -5 45 -18z m147 -2 c-4 7 0 15 9 18 22 9 36 7 30 -2 -3 -5 1
-9 9 -9 8 0 15 4 15 9 0 5 6 6 12 1 7 -4 53 -7 101 -6 60 1 87 -2 85 -9 -3 -7
-46 -13 -112 -14 -60 -2 -111 -5 -113 -8 -3 -2 -18 0 -34 4 -24 7 -29 6 -30
-8 0 -11 -2 -12 -6 -4 -2 6 -11 12 -19 12 -20 0 -18 17 3 29 13 7 23 5 37 -7
11 -9 16 -12 13 -6z m423 9 c0 -10 -10 -15 -30 -15 -49 0 -34 24 18 29 6 0 12
-6 12 -14z m-1070 -45 c0 -5 -5 -10 -11 -10 -5 0 -7 5 -4 10 3 6 8 10 11 10 2
0 4 -4 4 -10z m30 0 c0 -5 -2 -10 -4 -10 -3 0 -8 5 -11 10 -3 6 -1 10 4 10 6
0 11 -4 11 -10z m1263 3 c-7 -2 -21 -2 -30 0 -10 3 -4 5 12 5 17 0 24 -2 18
-5z m-1923 -13 c0 -5 -4 -10 -10 -10 -5 0 -10 5 -10 10 0 6 5 10 10 10 6 0 10
-4 10 -10z m37 4 c-3 -3 -12 -4 -19 -1 -8 3 -5 6 6 6 11 1 17 -2 13 -5z m790
0 c-3 -3 -12 -4 -19 -1 -8 3 -5 6 6 6 11 1 17 -2 13 -5z m280 -36 c-3 -8 -6
-5 -6 6 -1 11 2 17 5 13 3 -3 4 -12 1 -19z m813 12 c0 -5 -4 -10 -10 -10 -5 0
-10 5 -10 10 0 6 5 10 10 10 6 0 10 -4 10 -10z m120 1 c0 -18 -17 -20 -36 -6
-18 14 -18 14 9 15 15 0 27 -4 27 -9z m130 -12 c0 -5 -10 -9 -21 -9 -18 0 -19
2 -9 15 12 15 30 12 30 -6z m60 6 c0 -9 -9 -15 -25 -15 -16 0 -25 6 -25 15 0
9 9 15 25 15 16 0 25 -6 25 -15z m-2870 -2 c0 -5 -5 -15 -10 -23 -8 -12 -10
-11 -10 8 0 12 5 22 10 22 6 0 10 -3 10 -7z m107 -15 c1 -14 -5 -18 -28 -18
-32 0 -42 26 -11 32 32 7 38 5 39 -14z m873 5 c8 -7 -24 -23 -40 -20 -8 1 -16
10 -18 20 -3 15 1 17 25 11 15 -4 30 -9 33 -11z m118 5 c-3 -7 -15 -15 -28
-16 -21 -3 -22 -2 -11 12 16 19 44 21 39 4z m62 2 c0 -5 -5 -10 -11 -10 -5 0
-7 5 -4 10 3 6 8 10 11 10 2 0 4 -4 4 -10z m80 -5 c0 -9 -9 -14 -24 -13 -15 1
-22 7 -19 15 7 18 43 16 43 -2z m30 3 c0 6 7 12 16 12 23 0 11 -24 -14 -28
-16 -2 -22 2 -22 15 0 15 2 16 10 3 6 -10 10 -11 10 -2z m60 -3 c0 -8 -4 -15
-10 -15 -5 0 -10 7 -10 15 0 8 5 15 10 15 6 0 10 -7 10 -15z m283 0 c-3 -9 -8
-14 -10 -11 -3 3 -2 9 2 15 9 16 15 13 8 -4z m-1573 -10 c0 -8 -4 -15 -10 -15
-5 0 -7 7 -4 15 4 8 8 15 10 15 2 0 4 -7 4 -15z m402 0 c0 -5 -5 -11 -11 -13
-6 -2 -11 4 -11 13 0 9 5 15 11 13 6 -2 11 -8 11 -13z m48 0 c0 -8 -7 -15 -15
-15 -8 0 -15 7 -15 15 0 8 7 15 15 15 8 0 15 -7 15 -15z m150 5 c0 -5 -5 -10
-11 -10 -5 0 -7 5 -4 10 3 6 8 10 11 10 2 0 4 -4 4 -10z m70 0 c0 -5 -12 -10
-27 -10 -22 0 -25 2 -13 10 20 13 40 13 40 0z m50 0 c0 -5 -9 -10 -21 -10 -11
0 -17 5 -14 10 3 6 13 10 21 10 8 0 14 -4 14 -10z m80 0 c0 -5 -11 -10 -25
-10 -14 0 -25 5 -25 10 0 6 11 10 25 10 14 0 25 -4 25 -10z m68 -2 c-7 -20
-48 -23 -48 -4 0 11 9 16 26 16 16 0 24 -5 22 -12z m132 2 c0 -5 -11 -10 -25
-10 -14 0 -25 5 -25 10 0 6 11 10 25 10 14 0 25 -4 25 -10z m750 -29 c0 -10
-34 -21 -67 -21 -14 0 -23 6 -23 15 0 11 12 15 45 15 25 0 45 -4 45 -9z m350
-8 c0 -7 9 -13 20 -13 27 0 29 -50 3 -51 -10 0 -51 -1 -90 -1 -66 -1 -73 -3
-73 -22 0 -15 3 -17 12 -8 16 16 125 16 132 0 5 -10 7 -10 12 0 12 25 22 11
11 -17 -13 -35 -50 -55 -76 -41 -10 5 -21 6 -25 3 -3 -3 -6 0 -6 8 0 21 -40
22 -41 1 0 -14 -2 -13 -9 3 -7 17 -9 17 -9 3 -1 -17 -22 -23 -58 -19 -7 1 -13
-3 -13 -9 0 -5 -9 -10 -21 -10 -11 0 -17 5 -14 10 3 6 -1 10 -9 10 -8 0 -20 8
-25 18 -10 16 -10 16 -11 0 0 -14 -8 -18 -35 -18 -19 0 -35 -4 -35 -10 0 -5
-15 -9 -32 -9 -18 1 -25 3 -15 6 11 3 17 14 17 35 0 25 -3 29 -20 25 -11 -3
-18 -1 -14 4 3 5 0 9 -6 9 -6 0 -8 -14 -4 -40 4 -22 3 -40 -2 -41 -5 0 -21 -3
-36 -5 -27 -4 -28 -3 -28 36 0 29 -4 40 -15 40 -8 0 -15 -4 -15 -10 0 -5 -9
-10 -20 -10 -25 0 -27 30 -2 31 9 1 24 2 32 3 8 2 38 4 65 5 39 2 45 4 29 11
-12 5 -40 7 -63 4 -43 -4 -58 12 -18 20 37 7 187 4 192 -4 6 -10 -22 -17 -57
-16 -16 1 -28 -2 -28 -6 0 -9 68 -13 148 -8 23 1 24 2 7 9 -19 8 -19 8 3 20
20 11 33 44 15 39 -5 -2 -19 5 -33 15 -24 18 -22 18 117 15 106 -2 143 -6 143
-15z m-1650 -20 c0 -26 -4 -28 -40 -30 -29 -2 -40 1 -40 11 0 33 13 46 46 46
30 0 34 -3 34 -27z m1020 -43 c-20 -13 -33 -13 -25 0 3 6 14 10 23 10 15 0 15
-2 2 -10z m-1315 -10 c-3 -5 -12 -10 -18 -10 -7 0 -6 4 3 10 19 12 23 12 15 0z
m45 0 c0 -5 -7 -10 -16 -10 -8 0 -12 5 -9 10 3 6 10 10 16 10 5 0 9 -4 9 -10z
m1163 -31 c-4 -16 -8 -17 -14 -7 -7 10 -9 10 -9 -2 0 -13 -1 -13 -10 0 -7 12
-11 10 -19 -10 -7 -18 -10 -20 -10 -7 -1 25 -37 21 -56 -5 l-16 -23 3 29 c3
25 8 30 36 33 21 3 32 0 32 -9 0 -9 2 -10 8 -2 4 7 18 14 32 17 14 2 26 5 27
6 0 0 -1 -8 -4 -20z m154 8 c7 -8 -7 -47 -18 -47 -5 0 -10 8 -10 18 -1 16 -2
16 -6 0 -6 -25 -20 -22 -27 4 -5 22 -6 22 -20 3 -10 -13 -15 -15 -16 -6 0 7
-6 11 -14 8 -8 -3 -17 0 -20 8 -3 8 2 15 11 17 24 5 114 1 120 -5z m663 3 c0
-5 -2 -10 -4 -10 -3 0 -8 5 -11 10 -3 6 -1 10 4 10 6 0 11 -4 11 -10z m-2057
-36 c-3 -27 -2 -27 7 -6 13 30 20 28 20 -8 0 -27 -3 -30 -32 -31 l-33 -1 30
-8 30 -8 -28 -1 c-16 0 -35 5 -43 13 -8 9 -26 12 -44 10 -26 -5 -30 -2 -30 18
0 35 12 47 49 46 25 -1 29 -3 17 -10 -9 -5 -16 -16 -16 -24 0 -8 4 -13 9 -10
5 4 11 0 14 -6 2 -7 7 3 11 24 5 26 11 35 24 34 12 -2 16 -11 15 -32z m747 25
c0 -7 -7 -17 -15 -23 -8 -6 -16 -22 -18 -36 -3 -18 -11 -26 -30 -28 -16 -2
-27 2 -27 8 0 7 7 10 15 7 19 -8 25 4 27 48 1 30 5 35 25 35 12 0 23 -5 23
-11z m-180 -29 c0 -36 -15 -38 -40 -8 -19 24 -11 38 23 38 12 0 17 -8 17 -30z
m-460 -10 c0 -10 -4 -22 -10 -25 -6 -4 -10 7 -10 25 0 18 4 29 10 25 6 -3 10
-15 10 -25z m1050 13 c0 -5 -4 -14 -9 -21 -7 -11 -9 -11 -14 1 -3 8 -3 18 0
21 9 8 23 7 23 -1z m-525 -23 c3 -5 1 -10 -4 -10 -6 0 -11 5 -11 10 0 6 2 10
4 10 3 0 8 -4 11 -10z m1263 -17 c-10 -2 -26 -2 -35 0 -10 3 -2 5 17 5 19 0
27 -2 18 -5z m295 0 c-7 -2 -19 -2 -25 0 -7 3 -2 5 12 5 14 0 19 -2 13 -5z
m-1035 -10 c-10 -2 -26 -2 -35 0 -10 3 -2 5 17 5 19 0 27 -2 18 -5z m49 1 c-3
-3 -12 -4 -19 -1 -8 3 -5 6 6 6 11 1 17 -2 13 -5z m40 0 c-3 -3 -12 -4 -19 -1
-8 3 -5 6 6 6 11 1 17 -2 13 -5z m126 -1 c-7 -2 -19 -2 -25 0 -7 3 -2 5 12 5
14 0 19 -2 13 -5z m-1510 -10 c-7 -2 -19 -2 -25 0 -7 3 -2 5 12 5 14 0 19 -2
13 -5z m220 0 c-7 -2 -19 -2 -25 0 -7 3 -2 5 12 5 14 0 19 -2 13 -5z m2037 -3
c0 -5 -2 -10 -4 -10 -3 0 -8 5 -11 10 -3 6 -1 10 4 10 6 0 11 -4 11 -10z
m-1800 -23 c0 -8 -14 -14 -37 -15 -36 -2 -37 -1 -19 13 24 18 56 20 56 2z"/>
<path d="M10428 3499 c-40 -23 -3 -89 50 -89 31 0 62 27 62 53 0 36 -72 60
-112 36z"/>
<path d="M11895 3449 c-23 -35 35 -96 80 -85 53 13 14 96 -46 96 -15 0 -31 -5
-34 -11z"/>
<path d="M10778 3489 c-23 -13 -23 -51 0 -72 43 -39 127 -4 102 43 -18 34 -69
49 -102 29z"/>
<path d="M11306 3465 c-16 -17 -12 -39 12 -67 18 -21 75 -24 90 -5 17 20 3 56
-29 72 -36 19 -54 19 -73 0z"/>
<path d="M10510 3192 c0 -22 22 -34 45 -25 25 9 13 38 -18 41 -21 3 -27 -1
-27 -16z"/>
<path d="M10828 3203 c6 -2 18 -2 25 0 6 3 1 5 -13 5 -14 0 -19 -2 -12 -5z"/>
<path d="M10833 3163 c9 -2 23 -2 30 0 6 3 -1 5 -18 5 -16 0 -22 -2 -12 -5z"/>
<path d="M10100 2330 c-6 -11 -8 -25 -4 -31 3 -6 -3 -17 -15 -25 -40 -28 -18
-79 34 -79 33 0 60 24 44 40 -11 12 -12 56 0 74 5 8 7 20 4 28 -8 20 -51 16
-63 -7z m38 -18 c2 -7 -1 -12 -8 -12 -6 0 -9 4 -6 9 4 5 1 12 -4 14 -6 3 -5 4
2 3 6 -1 14 -8 16 -14z m-33 -59 c-2 -10 -4 -20 -4 -22 -1 -3 -7 1 -13 7 -10
10 -10 15 2 22 19 12 19 13 15 -7z"/>
<path d="M9695 2220 c-3 -5 -2 -10 4 -10 5 0 13 5 16 10 3 6 2 10 -4 10 -5 0
-13 -4 -16 -10z"/>
<path d="M10464 1927 c-8 -9 -7 -16 3 -26 8 -7 17 -10 21 -6 4 4 2 10 -5 12
-7 2 -9 11 -6 19 6 17 2 17 -13 1z"/>
<path d="M10559 1888 c0 -2 -2 -11 -4 -21 -3 -15 -1 -16 11 -6 7 6 11 15 8 20
-5 9 -13 12 -15 7z"/>
<path d="M10453 1725 c0 -27 2 -38 4 -22 2 15 2 37 0 50 -2 12 -4 0 -4 -28z"/>
<path d="M9629 1808 c-5 -18 -6 -38 -1 -34 7 8 12 36 6 36 -2 0 -4 -1 -5 -2z"/>
<path d="M9570 1741 c0 -25 6 -27 13 -6 4 8 2 17 -3 20 -6 4 -10 -3 -10 -14z"/>
<path d="M9961 1894 c0 -11 3 -14 6 -6 3 7 2 16 -1 19 -3 4 -6 -2 -5 -13z"/>
<path d="M11318 1713 c6 -2 18 -2 25 0 6 3 1 5 -13 5 -14 0 -19 -2 -12 -5z"/>
<path d="M11570 1545 c0 -15 18 -40 24 -34 3 3 -1 14 -9 25 -8 10 -14 15 -15
9z"/>
<path d="M10380 1146 c6 -8 18 -12 26 -9 23 9 16 23 -12 23 -22 0 -24 -2 -14
-14z"/>
<path d="M10225 1140 c-3 -5 -12 -7 -20 -3 -8 3 -15 1 -15 -4 0 -14 33 -12 48
4 7 7 9 13 3 13 -5 0 -12 -4 -16 -10z"/>
<path d="M10148 1113 c7 -3 16 -2 19 1 4 3 -2 6 -13 5 -11 0 -14 -3 -6 -6z"/>
<path d="M9996 1132 c-3 -5 1 -9 9 -9 8 0 12 4 9 9 -3 4 -7 8 -9 8 -2 0 -6 -4
-9 -8z"/>
<path d="M10823 953 c9 -2 25 -2 35 0 9 3 1 5 -18 5 -19 0 -27 -2 -17 -5z"/>
<path d="M10788 913 c6 -2 18 -2 25 0 6 3 1 5 -13 5 -14 0 -19 -2 -12 -5z"/>
<path d="M10760 866 c0 -7 14 -13 30 -14 17 -1 30 2 30 8 0 5 -3 11 -7 11 -36
6 -53 4 -53 -5z"/>
<path d="M8886 854 c-8 -20 -4 -25 11 -16 7 4 9 13 4 21 -6 10 -10 9 -15 -5z"/>
<path d="M9805 3659 c-22 -16 -44 -34 -49 -39 -9 -9 50 -81 106 -128 l28 -24
50 38 c58 44 52 52 -39 53 l-53 1 4 65 c2 36 1 65 -2 65 -3 0 -23 -14 -45 -31z"/>
<path d="M9616 3580 c-55 -54 -67 -73 -58 -82 19 -19 16 -24 -39 -64 -45 -32
-49 -39 -33 -45 10 -4 43 -8 72 -8 l54 -1 -4 -69 c-2 -45 1 -67 7 -62 6 4 32
24 58 45 l49 39 53 -53 54 -53 3 69 3 69 75 -3 75 -3 -115 110 c-63 61 -120
110 -125 111 -6 0 -40 -25 -77 -55 -62 -52 -88 -65 -88 -47 0 5 29 29 64 55
83 61 90 70 76 96 -6 12 -16 21 -23 21 -7 0 -43 -32 -81 -70z m162 -70 c23
-21 42 -48 42 -59 0 -20 -73 -85 -89 -79 -19 7 -92 101 -84 109 6 6 86 68 89
69 0 0 19 -18 42 -40z"/>
<path d="M10986 2521 c11 -11 104 -51 104 -46 0 6 -96 55 -107 55 -4 0 -3 -4
3 -9z"/>
<path d="M8835 2424 c39 -7 85 -16 103 -19 17 -3 32 -10 32 -14 0 -5 -56 2
-125 14 l-125 22 0 -78 c0 -65 3 -78 18 -82 16 -4 16 -5 0 -6 -11 -1 -18 -9
-18 -21 0 -22 1 -23 24 -14 9 3 16 14 16 24 0 15 8 17 68 14 37 -2 75 -4 85
-4 10 0 16 -4 13 -9 -3 -5 3 -11 14 -14 17 -4 20 0 20 21 -1 15 1 43 4 62 3
19 9 54 12 78 l7 42 -109 -1 -109 -1 70 -14z"/>
<path d="M10895 2397 c-11 -7 -20 -23 -20 -37 -1 -31 31 -53 55 -37 22 13 70
1 70 -18 0 -16 9 -19 34 -9 19 7 21 45 4 62 -7 7 -25 12 -40 12 -17 0 -28 5
-28 14 0 26 -40 32 -75 13z"/>
<path d="M10780 2379 c0 -5 5 -7 10 -4 6 3 10 8 10 11 0 2 -4 4 -10 4 -5 0
-10 -5 -10 -11z"/>
<path d="M12281 2366 c2 -2 34 -18 72 -34 l67 -31 0 35 0 34 -72 0 c-39 0 -69
-2 -67 -4z"/>
<path d="M8861 2206 c-11 -14 -5 -46 9 -46 15 0 30 28 24 44 -8 20 -18 20 -33
2z"/>
<path d="M8915 2178 c-9 -41 -6 -79 8 -98 6 -8 8 -12 3 -8 -4 3 -20 -8 -36
-25 -28 -31 -28 -32 -49 -13 -12 11 -21 24 -21 30 0 7 -15 10 -41 8 l-42 -4 5
40 c4 29 2 42 -8 46 -11 4 -14 -10 -14 -73 l0 -77 87 -2 c48 -1 88 -3 89 -5 1
-1 -32 -268 -35 -284 -1 -2 -32 -3 -71 -3 l-70 0 2 -42 1 -43 4 37 4 38 72 -3
72 -2 -1 -40 c-1 -22 -3 -66 -4 -97 l-2 -58 -57 0 c-59 0 -74 6 -84 30 -3 8
-6 0 -6 -17 l-1 -33 75 0 c52 0 77 4 80 13 2 6 18 147 35 312 45 437 43 405
27 405 -8 0 -18 -15 -22 -32z"/>
<path d="M11700 2120 c0 -6 7 -10 15 -10 8 0 15 2 15 4 0 2 -7 6 -15 10 -8 3
-15 1 -15 -4z"/>
<path d="M12412 1990 c0 -14 2 -19 5 -12 2 6 2 18 0 25 -3 6 -5 1 -5 -13z"/>
<path d="M8728 1923 c6 -2 18 -2 25 0 6 3 1 5 -13 5 -14 0 -19 -2 -12 -5z"/>
<path d="M8743 1903 c15 -2 37 -2 50 0 12 2 0 4 -28 4 -27 0 -38 -2 -22 -4z"/>
<path d="M8805 1880 c3 -5 8 -10 11 -10 2 0 4 5 4 10 0 6 -5 10 -11 10 -5 0
-7 -4 -4 -10z"/>
<path d="M8728 1853 c6 -2 18 -2 25 0 6 3 1 5 -13 5 -14 0 -19 -2 -12 -5z"/>
<path d="M9244 1748 l0 -113 9 77 c5 44 6 92 1 113 -7 27 -9 9 -10 -77z"/>
<path d="M8748 1833 c17 -2 47 -2 65 0 17 2 3 4 -33 4 -36 0 -50 -2 -32 -4z"/>
<path d="M8745 1810 c3 -5 8 -10 11 -10 2 0 4 5 4 10 0 6 -5 10 -11 10 -5 0
-7 -4 -4 -10z"/>
<path d="M8733 1783 c9 -2 23 -2 30 0 6 3 -1 5 -18 5 -16 0 -22 -2 -12 -5z"/>
<path d="M8780 1772 c0 -16 39 -44 50 -37 8 5 6 13 -6 26 -17 19 -44 26 -44
11z"/>
<path d="M9232 1590 c0 -19 2 -27 5 -17 2 9 2 25 0 35 -3 9 -5 1 -5 -18z"/>
<path d="M9041 1564 c0 -11 3 -14 6 -6 3 7 2 16 -1 19 -3 4 -6 -2 -5 -13z"/>
<path d="M9034 1506 c-3 -8 -4 -23 -2 -33 3 -11 6 -6 9 15 6 34 2 42 -7 18z"/>
<path d="M12160 1496 c0 -10 8 -16 22 -16 12 0 19 1 17 3 -2 1 -12 9 -21 16
-15 12 -18 11 -18 -3z"/>
<path d="M8720 1170 c0 -5 7 -10 15 -10 8 0 15 5 15 10 0 6 -7 10 -15 10 -8 0
-15 -4 -15 -10z"/>
<path d="M11588 1093 c6 -2 18 -2 25 0 6 3 1 5 -13 5 -14 0 -19 -2 -12 -5z"/>
<path d="M11668 1093 c12 -2 30 -2 40 0 9 3 -1 5 -23 4 -22 0 -30 -2 -17 -4z"/>
<path d="M10027 953 c-4 -3 -7 -11 -7 -17 0 -6 5 -5 12 2 6 6 9 14 7 17 -3 3
-9 2 -12 -2z"/>
<path d="M9980 940 c0 -5 7 -7 15 -4 8 4 15 8 15 10 0 2 -7 4 -15 4 -8 0 -15
-4 -15 -10z"/>
<path d="M9888 823 c7 -3 16 -2 19 1 4 3 -2 6 -13 5 -11 0 -14 -3 -6 -6z"/>
<path d="M10008 803 c12 -2 30 -2 40 0 9 3 -1 5 -23 4 -22 0 -30 -2 -17 -4z"/>
<path d="M10213 696 c-9 -11 -9 -15 0 -19 7 -3 14 3 14 14 2 22 2 22 -14 5z"/>
<path d="M9996 692 c-3 -4 4 -9 15 -9 23 -2 25 3 4 10 -8 4 -16 3 -19 -1z"/>
<path d="M10125 691 c-2 -4 6 -8 17 -8 12 -1 25 -8 29 -15 7 -10 9 -9 9 3 0
16 -46 33 -55 20z"/>
<path d="M10290 681 c-7 -14 -6 -21 3 -24 7 -3 5 -6 -5 -6 -22 -1 -24 -21 -3
-21 17 0 20 -25 5 -35 -5 -3 -10 0 -10 7 0 10 -2 10 -9 0 -4 -8 -12 -13 -17
-13 -5 1 -9 -5 -9 -11 0 -29 -20 -25 -26 5 -6 31 -6 30 -8 -10 l-1 -41 41 5
c29 4 44 2 50 -8 7 -11 9 -12 9 0 0 11 38 12 211 9 194 -4 213 -7 227 -24 14
-19 14 -19 8 1 -5 19 -1 20 72 19 42 0 82 -2 87 -3 6 -2 27 -2 48 -1 21 1 45
-4 53 -11 12 -10 15 -10 12 1 -4 18 79 32 151 25 64 -7 87 0 102 27 10 18 9
20 -5 15 -12 -5 -16 0 -16 23 0 28 2 29 41 27 23 -2 45 3 51 10 8 10 -9 13
-86 13 -77 0 -98 3 -102 15 -8 19 -24 19 -24 0 0 -12 -14 -15 -62 -16 -35 0
-126 -2 -203 -4 -125 -4 -141 -2 -147 13 -6 16 -7 16 -7 0 -1 -15 -19 -16
-200 -14 -109 2 -204 6 -210 10 -9 6 -9 11 0 22 8 10 8 14 1 14 -6 0 -16 -9
-22 -19z m357 -63 c2 -19 1 -19 -18 -3 -15 14 -19 15 -20 4 0 -10 -2 -11 -6
-1 -2 6 -12 12 -21 12 -13 0 -14 2 -4 8 23 15 68 2 69 -20z m-280 16 c16 -4
21 -13 20 -31 -1 -14 3 -27 8 -29 6 -2 10 11 10 28 0 31 3 33 37 36 27 2 42
-2 58 -20 l22 -23 -7 23 c-5 17 -2 22 13 22 11 0 25 -7 32 -15 7 -8 16 -12 21
-9 9 5 13 -17 9 -46 -3 -23 -10 -26 -20 -10 -7 10 -10 11 -10 3 0 -7 -4 -13
-10 -13 -13 0 -13 37 0 45 5 3 7 12 3 20 -4 12 -10 9 -25 -10 -11 -14 -17 -32
-14 -40 4 -10 -1 -15 -14 -15 -17 0 -20 7 -21 43 0 23 -3 37 -5 30 -3 -7 -12
-9 -21 -6 -19 8 -32 -13 -27 -44 4 -23 3 -24 -51 -22 -31 1 -59 7 -62 12 -3 6
-1 7 4 4 6 -4 16 0 23 8 7 8 16 12 21 9 5 -3 9 -2 9 3 0 18 -16 30 -37 28 -23
-2 -29 6 -16 18 8 8 21 9 50 1z m565 -5 c15 1 30 -3 33 -9 4 -6 10 -8 15 -5
15 9 21 -28 7 -43 -22 -21 -221 -27 -242 -6 -8 8 -15 11 -15 5 0 -6 -15 -11
-33 -11 -31 0 -32 2 -33 40 l-1 41 121 -7 c66 -3 133 -5 148 -5z m148 -1 c0
-4 7 -8 15 -8 8 0 15 5 15 10 0 6 11 10 25 10 14 0 25 -6 25 -12 0 -9 4 -8 10
2 7 11 10 11 10 2 0 -9 5 -10 18 -3 25 13 55 -11 50 -41 -3 -22 -8 -23 -80
-26 -44 -2 -78 1 -78 6 0 6 -6 10 -12 9 -58 -2 -67 3 -65 33 2 28 5 30 35 28
17 -1 32 -6 32 -10z"/>
<path d="M10685 610 c-3 -5 -1 -18 5 -27 9 -15 10 -14 4 6 -4 17 -3 21 6 16 9
-5 11 -4 6 3 -9 15 -13 15 -21 2z"/>
<path d="M10776 594 c3 -35 12 -41 12 -9 0 14 -4 27 -8 30 -4 2 -6 -7 -4 -21z"/>
<path d="M8730 680 c8 -5 20 -10 25 -10 6 0 3 5 -5 10 -8 5 -19 10 -25 10 -5
0 -3 -5 5 -10z"/>
<path d="M8823 675 c0 -7 6 -11 14 -8 7 3 13 6 13 8 0 2 -6 5 -13 8 -8 3 -14
-1 -14 -8z"/>
<path d="M9065 680 c-16 -7 -17 -9 -3 -9 9 -1 20 4 23 9 7 11 7 11 -20 0z"/>
<path d="M9110 680 c-9 -6 -10 -10 -3 -10 6 0 15 5 18 10 8 12 4 12 -15 0z"/>
<path d="M9155 680 c-3 -6 1 -7 9 -4 18 7 21 14 7 14 -6 0 -13 -4 -16 -10z"/>
<path d="M9195 680 c-3 -6 1 -7 9 -4 18 7 21 14 7 14 -6 0 -13 -4 -16 -10z"/>
<path d="M9385 679 c3 -3 -5 -15 -16 -25 -18 -16 -40 -18 -197 -18 -178 0
-238 6 -227 24 4 6 10 8 14 6 4 -3 13 -1 21 5 11 6 5 9 -21 9 -27 0 -41 -6
-53 -22 -15 -23 -16 -23 -31 -4 -8 11 -15 14 -15 7 0 -15 -25 -41 -39 -41 -6
0 -8 8 -5 18 5 16 5 16 -9 -1 -12 -15 -16 -15 -26 -3 -10 11 -7 17 11 30 12 9
17 16 11 16 -14 0 -43 -28 -43 -41 0 -5 -9 -9 -20 -9 -11 0 -20 -6 -20 -13 0
-10 14 -13 52 -12 37 1 56 -3 69 -16 16 -16 17 -16 22 1 6 23 44 26 357 28
135 1 263 3 285 6 22 2 50 0 61 -5 12 -4 25 -5 29 -1 10 11 164 11 171 1 3 -5
10 -7 15 -3 25 15 69 15 75 -1 6 -14 7 -14 18 0 9 12 30 16 89 17 42 0 77 5
77 10 0 5 -21 9 -47 8 -108 -4 -123 -1 -132 23 -8 19 -10 20 -16 5 -3 -9 -18
-19 -33 -23 -42 -11 -184 -14 -203 -5 -9 5 -19 7 -23 3 -3 -3 -40 -6 -81 -7
-70 -1 -76 1 -81 21 -4 13 -13 21 -24 20 -10 -1 -17 -4 -15 -8z"/>
<path d="M9018 673 c7 -3 16 -2 19 1 4 3 -2 6 -13 5 -11 0 -14 -3 -6 -6z"/>
<path d="M10153 653 c-98 -4 -140 -18 -70 -25 31 -3 32 -5 32 -46 0 -40 1 -42
30 -41 24 1 25 3 8 6 -19 4 -23 11 -23 39 0 19 1 37 3 41 1 4 30 6 65 5 50 -2
62 0 62 13 0 8 -1 14 -2 13 -2 -1 -49 -4 -105 -5z"/>
<path d="M10071 568 c0 -28 2 -30 9 -13 12 28 12 45 0 45 -5 0 -10 -15 -9 -32z"/>
<path d="M9672 555 c0 -16 2 -22 5 -12 2 9 2 23 0 30 -3 6 -5 -1 -5 -18z"/>
<path d="M9941 544 c0 -11 3 -14 6 -6 3 7 2 16 -1 19 -3 4 -6 -2 -5 -13z"/>
<path d="M8743 543 c-7 -3 -13 -12 -13 -20 0 -13 10 -15 63 -10 34 4 161 7
282 8 121 1 252 5 290 9 82 8 69 13 -30 9 -74 -3 -102 -3 -175 0 -25 0 -81 -1
-124 -4 -58 -4 -82 -2 -88 7 -4 7 -8 8 -8 3 0 -11 -158 -13 -175 -3 -6 3 -16
3 -22 1z"/>
<path d="M10385 520 c3 -5 10 -10 16 -10 5 0 9 5 9 10 0 6 -7 10 -16 10 -8 0
-12 -4 -9 -10z"/>
<path d="M10483 485 c0 -22 2 -30 4 -17 2 12 2 30 0 40 -3 9 -5 -1 -4 -23z"/>
<path d="M10838 513 c7 -3 16 -2 19 1 4 3 -2 6 -13 5 -11 0 -14 -3 -6 -6z"/>
<path d="M10785 380 c-16 -7 -17 -9 -3 -9 9 -1 20 4 23 9 7 11 7 11 -20 0z"/>
<path d="M9229 363 c-13 -16 -12 -17 4 -4 16 13 21 21 13 21 -2 0 -10 -8 -17
-17z"/>
<path d="M9549 363 c-13 -16 -12 -17 4 -4 9 7 17 15 17 17 0 8 -8 3 -21 -13z"/>
<path d="M10828 373 c7 -3 16 -2 19 1 4 3 -2 6 -13 5 -11 0 -14 -3 -6 -6z"/>
<path d="M13114 3804 c-75 -37 -73 -153 4 -190 66 -31 143 -1 163 64 29 97
-72 173 -167 126z m109 -46 c41 -48 -3 -137 -61 -124 -34 9 -62 41 -62 73 0
73 76 105 123 51z"/>
<path d="M13290 3795 c0 -10 10 -15 30 -15 l30 0 0 -85 c0 -78 2 -85 20 -85
18 0 20 7 20 85 l0 85 30 0 c20 0 30 5 30 15 0 12 -16 15 -80 15 -64 0 -80 -3
-80 -15z"/>
<path d="M13552 3794 c-12 -8 -22 -24 -22 -35 0 -26 36 -25 43 2 8 30 41 21
45 -12 2 -19 -9 -39 -42 -76 -26 -28 -46 -54 -46 -57 0 -3 32 -6 70 -6 40 0
70 4 70 10 0 6 -16 10 -35 10 -38 0 -44 10 -19 31 22 18 44 64 44 93 0 28 -33
56 -65 56 -11 0 -31 -7 -43 -16z"/>
<path d="M13734 3799 c-41 -21 -57 -99 -33 -153 23 -50 103 -57 134 -13 21 30
20 119 -2 146 -21 25 -70 35 -99 20z m60 -35 c32 -31 13 -134 -24 -134 -16 0
-40 44 -40 75 0 31 24 75 40 75 5 0 16 -7 24 -16z"/>
<path d="M13905 3785 c-21 -20 -25 -34 -25 -80 0 -46 4 -60 25 -80 56 -57 135
-10 135 80 0 90 -79 137 -135 80z m77 -22 c36 -32 15 -133 -28 -133 -33 0 -48
105 -18 134 19 20 23 20 46 -1z"/>
<path d="M14210 3525 c-17 -21 -4 -32 20 -17 30 18 26 -9 -6 -47 l-26 -31 46
0 c25 0 46 5 46 10 0 6 -7 10 -15 10 -14 0 -14 3 0 31 13 24 14 34 4 45 -15
18 -53 18 -69 -1z"/>
<path d="M12856 3478 c-3 -18 -8 -54 -11 -80 -3 -26 -13 -54 -21 -62 -8 -8
-14 -28 -14 -45 0 -24 4 -31 20 -31 13 0 20 7 20 20 0 18 7 20 65 20 58 0 65
-2 65 -20 0 -13 7 -20 20 -20 16 0 20 7 20 35 0 19 -4 35 -10 35 -6 0 -10 37
-10 90 l0 90 -70 0 -69 0 -5 -32z m104 -73 l0 -75 -45 0 c-44 0 -44 0 -35 26
6 14 10 40 10 59 0 51 9 65 41 65 l29 0 0 -75z"/>
<path d="M13068 3482 c-27 -25 -31 -36 -31 -77 0 -41 4 -52 31 -77 27 -23 41
-28 83 -28 43 0 55 5 80 29 24 24 29 38 29 76 0 38 -5 52 -29 76 -25 24 -37
29 -80 29 -42 0 -56 -5 -83 -28z m131 -28 c12 -15 21 -37 21 -49 0 -34 -37
-75 -68 -75 -62 0 -94 80 -50 127 29 31 71 30 97 -3z"/>
<path d="M13386 3433 c-15 -37 -30 -73 -33 -80 -4 -10 8 -13 46 -13 44 0 51
-3 51 -20 0 -13 7 -20 20 -20 13 0 20 7 20 20 0 11 5 20 10 20 6 0 10 7 10 15
0 8 -4 15 -10 15 -5 0 -10 11 -10 25 0 18 -5 25 -20 25 -15 0 -20 -7 -20 -25
0 -20 -5 -25 -25 -25 l-24 0 29 65 c29 65 29 65 7 65 -18 0 -28 -14 -51 -67z"/>
<path d="M13562 3493 c-19 -7 -42 -58 -42 -93 0 -79 66 -124 130 -90 43 23 49
131 9 171 -18 18 -67 24 -97 12z m67 -36 c34 -42 15 -122 -29 -122 -20 0 -27
7 -34 37 -16 66 28 126 63 85z"/>
<path d="M13731 3474 c-15 -19 -21 -41 -21 -74 0 -65 28 -100 80 -100 52 0 80
35 80 100 0 65 -28 100 -80 100 -30 0 -43 -6 -59 -26z m89 -23 c23 -44 5 -121
-28 -121 -29 0 -42 21 -42 70 0 25 5 51 12 58 18 18 46 14 58 -7z"/>
<path d="M13981 3397 c-15 -88 -14 -97 9 -97 16 0 20 7 21 33 0 17 4 41 8 51
6 15 11 9 30 -33 12 -28 26 -49 31 -46 5 3 19 27 31 53 l22 47 9 -52 c8 -42
13 -53 29 -53 10 0 19 1 19 3 0 9 -22 124 -26 140 -11 35 -41 19 -64 -35 l-23
-53 -23 53 c-16 37 -28 52 -42 52 -17 0 -22 -11 -31 -63z"/>
<path d="M2535 3698 c-43 -24 -60 -79 -39 -123 27 -58 93 -71 143 -29 82 69
-11 205 -104 152z"/>
<path d="M3009 3681 c-79 -79 3 -196 105 -150 29 14 59 69 50 96 -28 85 -98
110 -155 54z"/>
<path d="M3845 3701 c-93 -40 -66 -181 35 -181 81 0 123 99 67 157 -25 26 -72
37 -102 24z"/>
<path d="M4734 3700 c-11 -4 -28 -20 -37 -34 -59 -90 62 -198 138 -122 77 77
0 197 -101 156z"/>
<path d="M6843 3043 c-17 -43 -40 -102 -52 -130 l-21 -53 25 0 c17 0 29 9 40
30 14 27 20 30 65 30 45 0 51 -3 65 -30 11 -21 23 -30 41 -30 14 0 24 4 22 8
-102 252 -102 252 -129 252 -23 0 -29 -9 -56 -77z m78 -38 l17 -45 -38 0 -38
0 16 49 c10 27 19 47 22 45 2 -3 12 -25 21 -49z"/>
<path d="M7060 2990 l0 -130 25 0 c23 0 25 4 25 45 0 45 0 45 36 45 64 0 103
33 104 88 0 22 -8 41 -25 57 -21 22 -33 25 -95 25 l-70 0 0 -130z m128 78 c30
-30 0 -78 -49 -78 -28 0 -29 2 -29 45 0 44 1 45 33 45 18 0 38 -5 45 -12z"/>
<path d="M7290 2990 l0 -130 80 0 c73 0 80 2 80 20 0 18 -7 20 -55 20 l-55 0
0 40 0 40 50 0 c38 0 50 4 50 15 0 11 -12 15 -50 15 l-50 0 0 35 0 35 50 0
c43 0 50 3 50 20 0 18 -7 20 -75 20 l-75 0 0 -130z"/>
<path d="M7490 2990 l0 -130 25 0 c22 0 24 4 27 58 l3 57 52 3 52 3 3 -58 c3
-51 6 -58 26 -61 22 -3 22 -3 22 127 l0 131 -25 0 c-24 0 -25 -3 -25 -56 l0
-55 -52 3 -53 3 -3 53 c-3 48 -5 52 -28 52 l-24 0 0 -130z"/>
<path d="M7796 3083 c-3 -21 -8 -64 -11 -96 -4 -38 -13 -65 -26 -78 -12 -12
-19 -33 -19 -59 0 -33 3 -40 20 -40 15 0 20 7 20 25 0 25 1 25 85 25 84 0 85
0 85 -25 0 -20 5 -25 25 -25 23 0 25 4 25 44 0 30 -5 46 -15 50 -12 4 -15 26
-15 111 l0 105 -84 0 -84 0 -6 -37z m124 -93 l0 -90 -55 0 c-53 0 -55 1 -45
21 6 11 14 51 17 90 l6 69 38 0 39 0 0 -90z"/>
<path d="M8067 2997 c-26 -67 -47 -125 -47 -129 0 -5 11 -8 24 -8 18 0 27 8
35 30 9 28 13 30 65 30 51 0 55 -2 65 -30 7 -23 16 -30 35 -30 15 0 26 2 26 5
0 3 -23 62 -51 130 -48 115 -54 125 -78 125 -24 0 -30 -9 -74 -123z m96 11
l16 -48 -36 0 c-32 0 -35 2 -29 25 9 36 26 78 30 74 2 -2 10 -25 19 -51z"/>
<path d="M2646 3234 c-26 -25 -17 -67 17 -78 23 -8 31 -6 50 12 20 21 21 24 7
50 -19 32 -51 40 -74 16z"/>
<path d="M3104 3233 c-17 -17 -16 -18 25 -21 50 -4 59 1 41 23 -17 20 -44 19
-66 -2z"/>
<path d="M13726 2359 c-127 -35 -99 -213 34 -211 52 1 87 24 106 69 17 40 7
89 -26 118 -25 22 -78 34 -114 24z m79 -54 c14 -13 25 -36 25 -50 0 -33 -41
-75 -74 -75 -30 0 -66 43 -66 78 0 33 37 72 67 72 13 0 35 -11 48 -25z"/>
<path d="M16257 2364 c-17 -17 -4 -24 44 -24 36 0 49 4 47 13 -5 13 -79 22
-91 11z"/>
<path d="M12930 2345 c0 -10 10 -15 30 -15 l30 0 0 -90 c0 -89 0 -90 25 -90
25 0 25 1 25 90 l0 90 30 0 c20 0 30 5 30 15 0 12 -16 15 -85 15 -69 0 -85 -3
-85 -15z"/>
<path d="M13120 2255 l0 -105 25 0 c22 0 25 4 25 35 0 32 3 35 29 35 41 0 81
35 81 71 0 48 -30 69 -100 69 l-60 0 0 -105z m94 69 c10 -4 16 -18 16 -35 0
-26 -4 -29 -30 -29 -28 0 -30 3 -30 35 0 36 10 42 44 29z"/>
<path d="M13310 2255 l0 -105 65 0 c50 0 65 3 65 14 0 10 -14 16 -42 18 -39 3
-43 6 -46 31 -3 26 -1 27 37 27 55 0 58 27 4 32 -33 3 -38 6 -38 28 0 22 5 25
43 28 28 2 42 8 42 18 0 11 -15 14 -65 14 l-65 0 0 -105z"/>
<path d="M13470 2255 l0 -105 60 0 c47 0 64 4 80 20 43 43 10 110 -55 110 -31
0 -35 3 -35 25 0 23 4 25 45 25 33 0 45 4 45 15 0 12 -14 15 -70 15 l-70 0 0
-105z m107 -21 c8 -22 -9 -48 -36 -52 -18 -3 -21 1 -21 32 0 32 3 36 25 36 15
0 28 -7 32 -16z"/>
<path d="M13900 2255 l0 -106 66 3 c59 3 69 6 87 30 19 26 19 28 3 53 -13 20
-15 30 -7 38 18 18 12 55 -11 71 -14 10 -44 16 -80 16 l-58 0 0 -105z m108 51
c4 -20 -13 -36 -40 -36 -13 0 -18 8 -18 31 0 27 3 30 27 27 18 -2 29 -10 31
-22z m8 -81 c9 -21 -14 -45 -42 -45 -20 0 -24 5 -24 30 0 27 3 30 30 30 18 0
33 -6 36 -15z"/>
<path d="M14115 2268 c-21 -51 -39 -99 -42 -105 -3 -9 4 -13 20 -13 17 0 28 7
32 20 5 16 15 20 50 20 35 0 45 -4 50 -20 4 -13 15 -20 32 -20 16 0 23 4 20
13 -74 187 -79 197 -102 197 -20 0 -28 -14 -60 -92z m84 -30 c1 -5 -11 -8 -25
-8 -22 0 -24 3 -19 23 4 12 9 31 12 42 5 17 8 15 19 -15 7 -19 13 -38 13 -42z"/>
<path d="M14300 2255 l0 -105 25 0 c23 0 25 4 25 45 l0 45 40 0 40 0 0 -45 c0
-41 2 -45 25 -45 l25 0 0 105 0 105 -25 0 c-22 0 -25 -4 -25 -40 l0 -40 -40 0
-40 0 0 40 c0 36 -2 40 -25 40 l-25 0 0 -105z"/>
<path d="M14520 2255 c0 -95 2 -105 18 -105 12 0 36 25 63 64 l44 64 5 -61 c4
-55 8 -62 28 -65 22 -3 22 -2 22 102 0 96 -2 106 -18 106 -12 0 -35 -25 -63
-65 l-44 -65 -3 65 c-3 62 -4 65 -27 65 -25 0 -25 0 -25 -105z"/>
<path d="M14755 2335 c-31 -30 -32 -54 -3 -85 l22 -23 -22 -39 -23 -38 25 0
c19 0 31 10 48 40 30 52 48 52 48 0 0 -36 3 -40 25 -40 l25 0 0 105 0 105 -60
0 c-51 0 -65 -4 -85 -25z m95 -41 c0 -32 -2 -35 -26 -32 -56 6 -53 68 2 68 21
0 24 -5 24 -36z"/>
<path d="M17130 2340 c0 -11 -4 -20 -9 -20 -5 0 -23 -12 -40 -26 -24 -20 -31
-34 -31 -63 0 -40 32 -81 63 -81 11 0 17 -8 17 -25 0 -18 5 -25 20 -25 14 0
20 7 20 21 0 13 10 23 30 31 71 24 73 122 4 155 -20 10 -34 24 -34 35 0 11 -7
18 -20 18 -13 0 -20 -7 -20 -20z m0 -110 c0 -54 -14 -65 -32 -25 -8 19 -8 31
0 50 18 40 32 29 32 -25z m68 38 c23 -23 9 -88 -20 -88 -4 0 -8 23 -8 50 0 51
6 60 28 38z"/>
<path d="M17350 2340 c0 -11 -8 -23 -17 -27 -63 -22 -85 -99 -40 -141 13 -12
31 -22 40 -22 11 0 17 -8 17 -25 0 -18 5 -25 20 -25 13 0 20 7 20 20 0 13 11
24 33 34 21 8 38 25 46 45 19 43 -1 89 -46 107 -22 10 -33 21 -33 34 0 13 -7
20 -20 20 -13 0 -20 -7 -20 -20z m0 -110 c0 -54 -14 -65 -32 -25 -8 19 -8 31
0 50 18 40 32 29 32 -25z m68 38 c23 -23 9 -88 -20 -88 -4 0 -8 23 -8 50 0 51
6 60 28 38z"/>
<path d="M15533 2310 c-36 -15 -56 -55 -49 -95 13 -69 108 -92 155 -38 l24 28
-22 3 c-12 2 -31 -4 -40 -12 -34 -31 -71 -13 -71 34 0 14 5 31 12 38 17 17 53
15 68 -3 15 -19 40 -20 40 -2 0 36 -74 65 -117 47z"/>
<path d="M15724 2310 c-54 -22 -70 -91 -31 -135 30 -36 97 -38 133 -4 32 30
33 87 1 117 -27 25 -73 35 -103 22z m76 -51 c30 -55 -34 -106 -72 -59 -19 23
-16 58 6 72 21 15 55 8 66 -13z"/>
<path d="M16702 2311 c-7 -4 -24 -6 -38 -3 l-24 4 0 -111 0 -111 25 0 c22 0
25 4 25 33 0 32 2 33 30 29 51 -7 80 6 95 43 11 26 12 40 4 64 -16 46 -81 75
-117 52z m71 -52 c5 -9 7 -28 3 -42 -7 -31 -48 -46 -71 -27 -18 15 -20 61 -3
78 17 17 58 11 71 -9z"/>
<path d="M16885 2309 c-32 -19 -45 -41 -45 -79 0 -43 35 -82 72 -82 13 1 42 1
66 2 l42 1 0 80 0 79 -27 -1 c-16 -1 -41 2 -58 5 -16 3 -39 1 -50 -5z m81 -54
c15 -23 15 -27 0 -50 -19 -29 -47 -32 -70 -9 -19 18 -20 38 -6 65 15 27 56 24
76 -6z"/>
<path d="M15090 2230 l0 -80 58 0 c32 0 63 5 70 12 14 14 16 54 2 63 -6 4 -5
13 3 25 22 36 -2 55 -72 58 l-61 3 0 -81z m90 35 c0 -9 -9 -15 -25 -15 -16 0
-25 6 -25 15 0 9 9 15 25 15 16 0 25 -6 25 -15z m5 -65 c0 -9 -11 -16 -27 -18
-23 -3 -28 1 -28 18 0 17 5 21 28 18 16 -2 27 -9 27 -18z"/>
<path d="M15260 2230 l0 -80 50 0 c51 0 90 23 90 53 0 26 -31 55 -65 61 -26 5
-35 12 -35 26 0 13 -7 20 -20 20 -18 0 -20 -7 -20 -80z m88 -22 c-2 -15 -11
-24 -25 -26 -19 -3 -23 1 -23 22 0 21 5 26 26 26 21 0 25 -4 22 -22z"/>
<path d="M15410 2230 c0 -79 0 -80 25 -80 25 0 25 1 25 80 0 79 0 80 -25 80
-25 0 -25 -1 -25 -80z"/>
<path d="M15870 2230 c0 -78 1 -80 24 -80 21 0 25 5 28 38 l3 37 25 -37 c19
-28 32 -38 53 -38 l27 0 -30 41 c-31 43 -31 45 6 97 16 21 15 22 -7 22 -15 0
-34 -12 -51 -32 l-27 -33 -1 33 c0 27 -4 32 -25 32 -25 0 -25 -1 -25 -80z"/>
<path d="M16040 2230 c0 -71 2 -80 18 -80 11 0 34 22 55 53 l37 52 0 -52 c0
-46 3 -53 20 -53 18 0 20 7 20 80 0 96 -12 103 -65 34 l-35 -47 0 47 c0 42 -2
46 -25 46 -25 0 -25 -1 -25 -80z"/>
<path d="M16220 2230 c0 -71 2 -80 18 -80 11 0 33 21 53 48 l34 47 3 -47 c3
-40 6 -48 23 -48 17 0 19 7 19 80 0 96 -12 103 -62 34 l-33 -47 -3 47 c-3 41
-6 46 -28 46 -23 0 -24 -2 -24 -80z"/>
<path d="M16470 2295 c0 -9 9 -15 25 -15 24 0 25 -2 25 -65 0 -63 1 -65 25
-65 24 0 25 2 25 64 0 63 1 65 27 68 14 2 28 9 31 16 3 9 -17 12 -77 12 -65 0
-81 -3 -81 -15z"/>
<path d="M17500 2230 c0 -96 12 -103 62 -35 18 24 36 44 41 45 4 0 7 -20 7
-45 0 -38 3 -45 20 -45 18 0 20 7 20 80 0 70 -2 80 -17 80 -10 -1 -34 -22 -53
-48 l-35 -47 -3 48 c-3 39 -6 47 -23 47 -17 0 -19 -7 -19 -80z"/>
<path d="M17680 2230 c0 -78 1 -80 24 -80 21 0 25 5 28 38 l3 37 23 -37 c17
-27 31 -38 48 -38 30 0 30 4 -1 44 -14 18 -25 36 -25 40 0 4 12 23 26 42 l26
34 -23 0 c-15 0 -34 -12 -51 -32 l-27 -33 -1 33 c0 27 -4 32 -25 32 -25 0 -25
-1 -25 -80z"/>
<path d="M14930 2280 c0 -15 7 -20 25 -20 18 0 25 5 25 20 0 15 -7 20 -25 20
-18 0 -25 -5 -25 -20z"/>
<path d="M14930 2170 c0 -15 7 -20 25 -20 18 0 25 5 25 20 0 15 -7 20 -25 20
-18 0 -25 -5 -25 -20z"/>
<path d="M17850 2170 c0 -11 5 -20 12 -20 9 0 9 -3 0 -12 -16 -16 -15 -28 3
-28 19 0 40 43 32 64 -9 24 -47 20 -47 -4z"/>
<path d="M13970 2025 c0 -11 12 -15 45 -15 33 0 45 4 45 15 0 11 -12 15 -45
15 -33 0 -45 -4 -45 -15z"/>
<path d="M12950 1905 c0 -78 2 -85 20 -85 17 0 19 8 22 68 l3 67 30 0 30 0 3
-67 c3 -60 5 -68 22 -68 18 0 20 7 20 85 l0 85 -75 0 -75 0 0 -85z"/>
<path d="M13156 1969 c-36 -29 -37 -89 0 -126 22 -22 32 -25 67 -20 27 4 49
14 61 29 18 23 18 23 -2 26 -12 2 -33 -5 -47 -14 -25 -16 -27 -16 -48 4 l-21
22 67 0 c65 0 67 1 67 25 0 64 -89 97 -144 54z m88 -25 c23 -22 21 -24 -24
-24 -28 0 -40 4 -40 14 0 27 41 33 64 10z"/>
<path d="M13327 1983 c-4 -3 -7 -53 -7 -110 l0 -103 25 0 c21 0 25 5 25 29 0
28 1 29 40 24 34 -5 43 -2 70 25 16 17 30 40 30 52 0 29 -26 76 -45 84 -27 10
-80 7 -93 -6 -9 -9 -12 -9 -12 0 0 13 -22 16 -33 5z m117 -39 c23 -22 20 -60
-6 -78 -19 -13 -25 -14 -43 -2 -26 17 -31 59 -10 80 21 20 39 20 59 0z"/>
<path d="M13532 1908 l3 -83 41 -3 c73 -5 121 28 97 68 -6 9 -8 29 -5 45 7 39
-18 55 -85 55 l-54 0 3 -82z m93 32 c0 -8 -10 -16 -22 -18 -18 -3 -23 2 -23
18 0 16 5 21 23 18 12 -2 22 -10 22 -18z m5 -65 c0 -9 -9 -15 -25 -15 -16 0
-25 6 -25 15 0 9 9 15 25 15 16 0 25 -6 25 -15z"/>
<path d="M13702 1908 l3 -83 51 0 c60 1 84 16 84 55 0 33 -28 60 -63 60 -22 0
-27 5 -27 25 0 20 -5 25 -25 25 -26 0 -26 0 -23 -82z m88 -13 c15 -18 5 -35
-21 -35 -14 0 -19 7 -19 25 0 28 21 33 40 10z"/>
<path d="M13860 1905 c0 -78 2 -85 20 -85 18 0 20 7 20 85 0 78 -2 85 -20 85
-18 0 -20 -7 -20 -85z"/>
<path d="M13940 1905 c0 -101 10 -108 61 -37 l34 47 5 -45 c4 -37 9 -45 25
-45 18 0 20 7 20 79 0 52 -4 81 -12 83 -6 2 -30 -19 -52 -47 l-41 -52 0 51 c0
44 -3 51 -20 51 -18 0 -20 -7 -20 -85z"/>
<path d="M14212 1974 c-12 -8 -22 -22 -22 -30 0 -19 34 -18 50 1 15 18 42 19
58 3 19 -19 14 -28 -18 -28 -20 0 -30 -5 -30 -15 0 -10 10 -15 30 -15 35 0 39
-14 9 -31 -18 -9 -27 -7 -50 10 -33 25 -49 27 -49 7 0 -22 49 -56 82 -56 41 0
88 48 88 90 0 66 -90 105 -148 64z"/>
<path d="M14360 1975 c0 -10 10 -15 30 -15 l30 0 0 -70 c0 -63 2 -70 20 -70
18 0 20 7 20 70 l0 70 30 0 c20 0 30 5 30 15 0 12 -16 15 -80 15 -64 0 -80 -3
-80 -15z"/>
<path d="M14551 1973 c-12 -10 -24 -35 -28 -55 -5 -32 -1 -41 25 -68 31 -31
72 -39 102 -20 9 6 17 5 21 -2 4 -6 14 -8 23 -5 13 5 16 22 16 82 0 60 -3 77
-16 82 -9 3 -20 0 -24 -7 -5 -8 -9 -9 -14 -1 -11 17 -81 13 -105 -6z m93 -29
c24 -24 20 -61 -9 -80 -24 -16 -27 -16 -45 1 -25 22 -26 70 -2 84 24 15 38 13
56 -5z"/>
<path d="M14730 1981 c0 -4 9 -20 20 -34 26 -33 25 -43 -5 -83 -31 -40 -31
-44 -1 -44 17 0 31 11 48 38 l23 37 5 -35 c4 -27 10 -35 25 -35 15 0 21 8 25
34 l5 35 24 -36 c16 -23 33 -35 48 -35 29 0 29 -1 -3 47 l-26 39 21 34 c26 42
26 47 4 47 -10 0 -30 -14 -45 -32 l-27 -33 -1 33 c0 29 -3 33 -22 30 -16 -2
-24 -12 -28 -33 l-5 -30 -23 33 c-21 29 -62 45 -62 23z"/>
<path d="M15155 1965 c-48 -47 -25 -128 39 -141 65 -12 116 25 116 83 0 49
-37 83 -90 83 -30 0 -47 -6 -65 -25z m86 -15 c29 -16 27 -78 -3 -89 -49 -19
-88 41 -52 80 20 22 28 23 55 9z"/>
<path d="M15310 1975 c0 -10 10 -15 30 -15 l30 0 0 -70 c0 -63 2 -70 20 -70
17 0 19 8 22 68 3 65 4 67 31 70 15 2 27 9 27 18 0 11 -17 14 -80 14 -64 0
-80 -3 -80 -15z"/>
<path d="M15484 1977 c-3 -8 -4 -45 -2 -83 3 -63 5 -69 26 -72 19 -3 22 1 22
32 0 45 9 45 38 1 13 -21 30 -35 42 -35 27 0 25 15 -6 56 l-26 34 26 34 c32
43 32 46 2 46 -17 0 -31 -10 -43 -30 -9 -16 -21 -30 -25 -30 -4 0 -8 14 -8 30
0 23 -4 30 -20 30 -11 0 -23 -6 -26 -13z"/>
<path d="M15650 1880 l0 -110 25 0 c21 0 25 5 25 29 0 28 2 29 38 24 84 -11
132 89 68 143 -29 26 -84 32 -104 12 -9 -9 -12 -9 -12 0 0 7 -9 12 -20 12 -19
0 -20 -7 -20 -110z m122 63 c25 -22 23 -59 -4 -77 -28 -20 -33 -20 -52 0 -22
21 -20 70 2 83 24 14 33 13 54 -6z"/>
<path d="M15860 1904 l0 -87 52 5 c52 5 88 31 88 64 0 24 -39 54 -70 54 -25 0
-30 4 -30 25 0 18 -5 25 -20 25 -18 0 -20 -7 -20 -86z m88 -21 c3 -19 -1 -23
-22 -23 -21 0 -26 5 -26 26 0 21 4 25 23 22 14 -2 23 -11 25 -25z"/>
<path d="M16012 1908 c3 -75 5 -83 23 -83 18 0 20 8 23 83 l3 82 -26 0 -26 0
3 -82z"/>
<path d="M16077 1983 c-15 -14 -6 -23 23 -23 29 0 29 0 32 -67 3 -60 5 -68 23
-68 18 0 20 8 23 68 3 64 4 67 27 67 16 0 25 6 25 15 0 12 -15 15 -73 15 -41
0 -77 -3 -80 -7z"/>
<path d="M16255 1958 c-21 -25 -25 -38 -21 -62 11 -57 81 -94 126 -66 9 6 17
5 21 -2 4 -6 14 -8 23 -5 13 5 16 22 16 87 0 73 -2 80 -20 80 -11 0 -20 -5
-20 -12 0 -9 -3 -9 -12 0 -7 7 -29 12 -49 12 -30 0 -43 -7 -64 -32z m96 -8
c23 -13 26 -62 3 -84 -19 -20 -24 -20 -52 0 -26 18 -29 56 -6 78 18 19 28 20
55 6z"/>
<path d="M16468 1978 c-24 -20 -27 -40 -10 -70 14 -24 14 -29 -1 -52 -22 -32
-21 -36 2 -36 11 0 29 14 41 30 27 37 38 38 42 3 2 -20 9 -28 23 -28 18 0 20
8 23 83 l3 82 -54 0 c-29 0 -60 -6 -69 -12z m72 -43 c0 -18 -5 -25 -19 -25
-11 0 -23 5 -26 10 -11 18 3 40 25 40 15 0 20 -7 20 -25z"/>
<path d="M16700 1905 c0 -78 2 -85 20 -85 17 0 19 8 22 68 l3 67 30 0 30 0 3
-67 c3 -60 5 -68 22 -68 18 0 20 7 20 85 l0 85 -75 0 -75 0 0 -85z"/>
<path d="M16917 1983 c-2 -4 -8 -34 -11 -65 -5 -40 -12 -58 -22 -58 -8 0 -14
-9 -14 -20 0 -25 21 -26 49 -2 15 11 24 34 29 67 5 35 12 51 24 53 14 3 18 -7
20 -65 3 -60 5 -68 23 -68 18 0 20 7 20 80 l0 80 -57 3 c-31 2 -58 -1 -61 -5z"/>
<path d="M17091 1973 c-12 -10 -24 -35 -28 -55 -5 -32 -1 -41 25 -68 31 -31
72 -39 102 -20 9 6 17 5 21 -2 4 -6 14 -8 23 -5 13 5 16 22 16 82 0 60 -3 77
-16 82 -9 3 -19 1 -23 -5 -4 -7 -12 -8 -21 -2 -24 15 -76 11 -99 -7z m93 -29
c24 -24 20 -61 -9 -80 -24 -16 -27 -16 -45 1 -25 22 -26 70 -2 84 24 15 38 13
56 -5z"/>
<path d="M17280 1905 c0 -84 1 -86 23 -83 17 2 23 11 25 36 3 28 7 32 33 32
27 0 29 -3 29 -35 0 -28 4 -35 20 -35 18 0 20 7 20 85 0 78 -2 85 -20 85 -16
0 -20 -7 -20 -35 0 -32 -2 -35 -29 -35 -26 0 -30 4 -33 33 -2 24 -8 33 -25 35
-22 3 -23 1 -23 -83z"/>
<path d="M17470 1905 c0 -101 10 -108 61 -37 l34 47 5 -45 c4 -37 9 -45 25
-45 18 0 20 7 20 79 0 52 -4 81 -12 83 -6 2 -30 -19 -52 -47 l-41 -52 0 51 c0
44 -3 51 -20 51 -18 0 -20 -7 -20 -85z"/>
<path d="M17650 1880 l0 -110 25 0 c21 0 25 5 25 29 0 28 2 29 38 24 84 -11
132 89 68 143 -29 26 -84 32 -104 12 -9 -9 -12 -9 -12 0 0 7 -9 12 -20 12 -19
0 -20 -7 -20 -110z m122 63 c25 -22 23 -59 -4 -77 -28 -20 -33 -20 -52 0 -22
21 -20 70 2 83 24 14 33 13 54 -6z"/>
<path d="M17876 1969 c-30 -24 -36 -81 -11 -116 17 -24 71 -39 104 -28 61 19
81 96 36 140 -31 32 -91 34 -129 4z m85 -19 c29 -16 27 -78 -3 -89 -49 -19
-88 41 -52 80 20 22 28 23 55 9z"/>
<path d="M18054 1977 c-3 -8 -4 -45 -2 -83 l3 -69 51 -3 c38 -2 56 2 75 17 21
17 23 23 13 48 -7 20 -8 34 0 45 8 13 6 22 -8 37 -15 16 -31 21 -73 21 -36 0
-55 -4 -59 -13z m91 -37 c0 -8 -10 -16 -22 -18 -18 -3 -23 2 -23 18 0 16 5 21
23 18 12 -2 22 -10 22 -18z m6 -65 c0 -5 -12 -11 -26 -13 -18 -2 -25 1 -25 13
0 12 7 15 25 13 14 -2 26 -7 26 -13z"/>
<path d="M18224 1977 c-3 -8 -4 -45 -2 -83 3 -63 5 -69 26 -72 19 -3 22 1 22
32 0 45 9 45 38 1 13 -21 30 -35 42 -35 27 0 25 15 -6 56 l-26 34 26 34 c32
43 32 46 2 46 -17 0 -31 -10 -43 -30 -9 -16 -21 -30 -25 -30 -4 0 -8 14 -8 30
0 23 -4 30 -20 30 -11 0 -23 -6 -26 -13z"/>
<path d="M18395 1958 c-21 -25 -25 -38 -21 -62 11 -57 81 -94 126 -66 9 6 17
5 21 -2 4 -6 14 -8 23 -5 13 5 16 22 16 87 0 73 -2 80 -20 80 -11 0 -20 -5
-20 -12 0 -9 -3 -9 -12 0 -7 7 -29 12 -49 12 -30 0 -43 -7 -64 -32z m96 -8
c23 -13 26 -62 3 -84 -19 -20 -24 -20 -52 0 -26 18 -29 56 -6 78 18 19 28 20
55 6z"/>
<path d="M14980 1846 c0 -8 5 -18 10 -21 8 -5 8 -11 1 -19 -15 -18 -2 -27 20
-15 12 6 19 21 19 39 0 25 -4 30 -25 30 -15 0 -25 -6 -25 -14z"/>
<path d="M1062 2106 c-6 -57 -18 -122 -26 -145 l-14 -41 94 0 94 0 0 145 0
145 -68 0 -69 0 -11 -104z"/>
<path d="M1514 2210 c-42 -13 -91 -70 -100 -116 -9 -51 11 -107 51 -143 31
-27 43 -31 91 -31 30 0 68 7 85 15 89 46 93 203 7 259 -30 20 -95 27 -134 16z"/>
<path d="M2603 2199 c-46 -22 -83 -82 -83 -132 0 -42 24 -90 59 -120 27 -22
42 -27 87 -27 99 0 154 51 154 143 0 73 -38 130 -99 147 -52 14 -71 13 -118
-11z"/>
<path d="M3450 2135 l0 -75 55 0 c46 0 60 4 80 25 30 30 32 64 4 99 -18 23
-28 26 -80 26 l-59 0 0 -75z"/>
<path d="M3843 2200 c-46 -23 -83 -84 -83 -133 0 -42 24 -90 59 -120 27 -22
42 -27 87 -27 30 0 68 7 85 15 89 47 93 203 6 259 -41 28 -107 30 -154 6z"/>
<path d="M5030 1995 l0 -75 58 0 c73 0 102 22 102 79 0 55 -23 71 -98 71 l-62
0 0 -75z"/>
<path d="M1062 1426 c-6 -57 -18 -122 -26 -145 l-14 -41 94 0 94 0 0 145 0
145 -68 0 -69 0 -11 -104z"/>
<path d="M1493 1520 c-46 -23 -83 -84 -83 -133 0 -42 24 -90 59 -120 27 -22
42 -27 87 -27 100 0 154 51 154 146 0 116 -113 186 -217 134z"/>
<path d="M2213 1520 c-46 -23 -83 -84 -83 -133 0 -42 24 -90 59 -120 27 -22
42 -27 87 -27 100 0 154 51 154 146 0 116 -113 186 -217 134z"/>
<path d="M2620 1475 l0 -55 56 0 c74 0 94 12 94 55 0 43 -20 55 -94 55 l-56 0
0 -55z"/>
<path d="M2620 1300 l0 -60 58 0 c72 0 102 18 102 64 0 47 -15 56 -92 56 l-68
0 0 -60z"/>
<path d="M3031 1519 c-31 -16 -49 -34 -62 -63 -34 -75 -20 -138 41 -190 26
-21 42 -26 86 -26 66 0 108 20 134 63 24 39 26 116 5 157 -36 70 -129 97 -204
59z"/>
<path d="M3450 1455 l0 -75 55 0 c45 0 58 4 80 25 32 33 33 74 2 103 -18 17
-36 22 -80 22 l-57 0 0 -75z"/>
<path d="M3971 1426 c-17 -41 -31 -79 -31 -85 0 -7 26 -11 65 -11 36 0 65 4
65 9 0 8 -59 152 -65 159 -1 2 -17 -31 -34 -72z"/>
<path d="M4310 1455 l0 -75 55 0 c46 0 60 4 80 25 30 30 32 64 4 99 -18 23
-28 26 -80 26 l-59 0 0 -75z"/>
<path d="M5412 1426 c-6 -57 -18 -122 -26 -145 l-14 -41 94 0 94 0 0 145 0
145 -68 0 -69 0 -11 -104z"/>
<path d="M5790 1315 l0 -75 51 0 c50 0 87 12 101 34 4 6 8 28 8 48 0 50 -27
68 -102 68 l-58 0 0 -75z"/>
<path d="M13870 1331 c-19 -10 -48 -35 -65 -55 -26 -33 -30 -46 -30 -100 0
-74 27 -122 86 -155 44 -25 127 -28 168 -6 64 33 109 122 96 188 -24 115 -156
182 -255 128z m200 -80 c5 -11 10 -49 10 -85 0 -91 -7 -96 -130 -96 -123 0
-130 5 -130 96 0 103 2 104 130 104 98 0 110 -2 120 -19z"/>
<path d="M13890 1235 c0 -7 50 -55 58 -55 9 1 62 47 62 55 0 3 -27 5 -60 5
-33 0 -60 -2 -60 -5z"/>
<path d="M13858 1205 c-4 -5 0 -87 6 -92 5 -6 164 -6 173 0 11 7 14 85 3 92
-4 2 -22 -11 -40 -30 -19 -19 -41 -35 -49 -35 -8 0 -31 16 -51 35 -20 20 -39
33 -42 30z"/>
<path d="M15414 1185 c-21 -33 -7 -71 30 -81 31 -7 44 1 57 33 22 59 -53 100
-87 48z"/>
<path d="M15136 1175 c-21 -22 -20 -38 3 -59 18 -17 20 -17 41 4 19 19 20 24
7 43 -18 28 -31 31 -51 12z"/>
<path d="M14505 1203 c-22 -21 -20 -23 31 -23 39 0 44 2 35 14 -18 21 -50 26
-66 9z"/>
<path d="M15642 1198 c-30 -30 -3 -98 38 -98 21 0 50 35 50 61 0 37 -62 63
-88 37z"/>
<path d="M16006 1194 c-32 -31 -7 -94 37 -94 39 0 64 69 35 98 -17 17 -54 15
-72 -4z"/>
<path d="M16426 1194 c-32 -31 -7 -94 37 -94 39 0 64 69 35 98 -17 17 -54 15
-72 -4z"/>
<path d="M16982 1198 c-7 -7 -12 -27 -12 -45 0 -26 6 -36 24 -45 31 -14 53 -5
68 26 22 49 -43 101 -80 64z"/>
<path d="M17537 1199 l-22 -18 47 -1 c37 0 46 3 42 14 -9 23 -42 26 -67 5z"/>
<path d="M1465 842 c-48 -23 -85 -82 -85 -137 0 -50 35 -109 76 -129 44 -20
116 -21 155 -1 89 47 93 203 6 259 -39 26 -106 29 -152 8z"/>
<path d="M5284 830 c-47 -19 -69 -143 -38 -219 27 -69 102 -80 146 -21 39 53
32 186 -13 231 -20 20 -59 24 -95 9z"/>
<path d="M5628 826 c-26 -19 -48 -79 -48 -130 0 -123 83 -187 150 -116 74 79
36 261 -53 260 -18 0 -40 -7 -49 -14z"/>
<path d="M6528 826 c-46 -35 -62 -152 -30 -216 50 -100 154 -66 168 55 7 61
-9 128 -38 155 -25 23 -74 26 -100 6z"/>
<path d="M6884 830 c-47 -19 -69 -143 -38 -219 27 -69 102 -80 146 -21 39 53
32 186 -13 231 -20 20 -59 24 -95 9z"/>
<path d="M13855 796 c-57 -35 -80 -78 -80 -153 0 -53 4 -66 30 -99 40 -49 89
-74 145 -74 83 0 159 64 174 145 13 70 -30 157 -95 190 -45 24 -127 19 -174
-9z m59 -47 c28 -22 33 -48 14 -67 -10 -10 -7 -18 13 -38 22 -22 29 -24 51
-13 22 10 30 8 57 -12 37 -27 39 -44 9 -76 -27 -29 -57 -29 -110 -2 -60 31
-127 116 -128 163 0 22 37 66 55 66 7 0 24 -9 39 -21z"/>
<path d="M13861 721 c-13 -24 11 -81 51 -118 29 -28 96 -56 114 -49 17 7 18
28 2 44 -9 9 -16 8 -30 -5 -16 -15 -20 -14 -52 8 -19 13 -41 35 -50 49 -13 24
-13 28 0 41 13 14 12 17 -5 33 -19 17 -20 17 -30 -3z"/>
<path d="M14557 694 c-13 -13 -7 -51 9 -65 23 -19 49 1 49 37 0 24 -5 30 -25
32 -14 2 -29 0 -33 -4z"/>
<path d="M14747 694 c-13 -13 -7 -51 9 -65 23 -19 49 1 49 37 0 24 -5 30 -25
32 -14 2 -29 0 -33 -4z"/>
<path d="M14950 695 c-18 -21 -4 -47 22 -43 29 4 35 34 10 47 -15 8 -23 7 -32
-4z"/>
<path d="M14944 596 c-11 -28 1 -51 25 -51 32 0 49 28 32 49 -17 20 -50 21
-57 2z"/>
<path d="M15217 694 c-13 -13 -7 -51 9 -65 23 -19 49 1 49 37 0 24 -5 30 -25
32 -14 2 -29 0 -33 -4z"/>
<path d="M15693 703 c-18 -6 -16 -42 2 -49 16 -6 45 12 45 27 0 12 -33 27 -47
22z"/>
<path d="M15682 598 c-16 -16 -15 -33 3 -48 21 -18 55 -3 55 25 0 32 -35 46
-58 23z"/>
<path d="M16060 670 c-15 -37 -7 -100 16 -117 51 -37 87 78 42 135 -18 22 -45
13 -58 -18z"/>
<path d="M16360 681 c-17 -32 -12 -96 9 -122 19 -23 19 -24 40 -5 16 15 21 31
21 71 0 28 -5 56 -12 63 -18 18 -46 14 -58 -7z"/>
<path d="M16576 678 c-21 -30 -20 -91 2 -118 15 -19 22 -21 40 -11 35 19 41
99 10 139 -15 18 -35 15 -52 -10z"/>
</g>
</svg>
